<svg width="19" height="10" viewBox="0 0 19 10" fill="none" xmlns="http://www.w3.org/2000/svg">
<path fill-rule="evenodd" clip-rule="evenodd" d="M5.73488 0.303021C6.07319 0.663053 6.0861 1.21631 5.78291 1.59097L5.70053 1.6807L3.289 4H18C18.5523 4 19 4.44772 19 5C19 5.51284 18.614 5.93551 18.1166 5.99327L18 6H3.302L5.51331 8.35407C5.8798 8.7441 5.86442 9.36091 5.47895 9.73174C5.12313 10.0741 4.57635 10.0871 4.20607 9.78033L4.1174 9.69698L0.265116 5.59727C-0.0189307 5.29497 -0.0735906 4.85647 0.0956473 4.50183C0.130001 4.41387 0.178208 4.33126 0.239212 4.25588L0.321592 4.16615L4.37333 0.268255C4.7588 -0.102579 5.36839 -0.087014 5.73488 0.303021Z" fill="#232323"/>
</svg>
