<svg xmlns="http://www.w3.org/2000/svg" viewBox="0 0 512 512"><path d="M367.304 25.402C333.648 9.128 295.89 0 256 0s-77.648 9.128-111.304 25.402L122.435 256l22.261 230.598C178.352 502.872 216.11 512 256 512s77.648-9.128 111.304-25.402L389.565 256 367.304 25.402z" fill="#D80027"/><path fill="#FFDA44" d="M255.998 166.957L278.098 234.976 349.626 234.976 291.762 277.02 313.863 345.043 255.998 303.002 198.133 345.043 220.238 277.02 162.374 234.976 233.897 234.976z"/><path d="M144.696 25.411C59.066 66.817 0 154.506 0 256s59.066 189.183 144.696 230.589V25.411z" fill="#496E2D"/><path d="M367.304 25.411v461.178C452.934 445.183 512 357.493 512 256S452.934 66.817 367.304 25.411z" fill="#FFDA44"/></svg>