<svg width="64" height="48" viewBox="0 0 64 48" fill="none" xmlns="http://www.w3.org/2000/svg">
<path d="M57.4144 48H6.54892C4.81277 47.9976 3.14844 47.3014 1.92079 46.064C0.693152 44.8266 0.00240297 43.1491 0 41.3992V6.60993C0.00239583 4.85919 0.692856 3.18075 1.92024 1.94193C3.14762 0.70311 4.81194 0.00484134 6.54892 0H57.4144C59.1529 0.00242202 60.8196 0.699607 62.0489 1.93869C63.2783 3.17777 63.97 4.8576 63.9724 6.60993V41.3992C63.97 43.1507 63.278 44.8296 62.0484 46.0672C60.8188 47.3049 59.1521 48 57.4144 48ZM6.54892 1.82185C5.293 1.82427 4.08935 2.32882 3.20213 3.22478C2.31491 4.12074 1.81662 5.3349 1.81662 6.60077V41.39C1.81902 42.6543 2.31838 43.8661 3.20534 44.7601C4.0923 45.6541 5.29457 46.1574 6.54892 46.1598H57.4144C58.6703 46.1598 59.8749 45.6576 60.7638 44.7634C61.6528 43.8691 62.1534 42.6559 62.1558 41.39V6.60077C62.1558 5.33331 61.6562 4.11782 60.7671 3.2216C59.8779 2.32537 58.6719 1.82185 57.4144 1.82185H6.54892Z" fill="#202020"/>
<path d="M63.9727 12.8081H0.0275879V6.62842C0.0299837 4.87767 0.720444 3.19918 1.94783 1.96036C3.17521 0.72154 4.83953 0.0233274 6.57651 0.018486H57.442C59.1805 0.020908 60.8472 0.718037 62.0765 1.95712C63.3059 3.1962 63.9976 4.87609 64 6.62842L63.9727 12.8081ZM1.84421 10.9771H62.1561V6.62842C62.1561 5.36096 61.6566 4.14541 60.7674 3.24919C59.8782 2.35296 58.6722 1.8495 57.4147 1.8495H6.54926C5.29334 1.85192 4.08968 2.35647 3.20247 3.25243C2.31525 4.14839 1.81696 5.36255 1.81696 6.62842L1.84421 10.9771Z" fill="#202020"/>
<path d="M7.63896 7.98318C7.32419 7.98318 7.0165 7.88902 6.7549 7.71256C6.49331 7.53611 6.28959 7.2853 6.16955 6.99202C6.04952 6.69873 6.01858 6.37614 6.08066 6.06511C6.14273 5.75408 6.29502 5.46863 6.51824 5.24493C6.74145 5.02124 7.02553 4.86936 7.33446 4.80858C7.6434 4.7478 7.96327 4.78085 8.25356 4.90352C8.54385 5.02619 8.79147 5.23294 8.96503 5.49761C9.1386 5.76229 9.23031 6.07295 9.22851 6.39021C9.22851 6.60018 9.18731 6.80809 9.10732 7.00196C9.02732 7.19583 8.9101 7.37185 8.76238 7.5199C8.61465 7.66794 8.43935 7.78504 8.24654 7.86455C8.05374 7.94407 7.84727 7.98439 7.63896 7.98318ZM7.63896 6.15217C7.60836 6.15214 7.57806 6.15837 7.5499 6.17044C7.52174 6.18251 7.49629 6.20018 7.47508 6.22241C7.45387 6.24464 7.43735 6.27096 7.42649 6.2998C7.41563 6.32863 7.41066 6.35939 7.41188 6.39021C7.41188 6.64655 7.8751 6.64655 7.8751 6.39021C7.8751 6.32708 7.85023 6.26654 7.80594 6.2219C7.76166 6.17727 7.7016 6.15217 7.63896 6.15217Z" fill="#202020"/>
<path d="M12.7889 7.98312C12.4738 7.98493 12.1652 7.89232 11.9024 7.71697C11.6396 7.54163 11.4345 7.2915 11.313 6.99838C11.1916 6.70526 11.1594 6.38233 11.2204 6.07069C11.2815 5.75906 11.433 5.47278 11.6559 5.24817C11.8787 5.02356 12.1628 4.87077 12.472 4.80925C12.7812 4.74772 13.1015 4.78023 13.3923 4.90262C13.6832 5.02502 13.9313 5.23179 14.1053 5.49666C14.2793 5.76153 14.3712 6.0725 14.3694 6.39015C14.367 6.81189 14.1997 7.21569 13.9038 7.51391C13.608 7.81214 13.2073 7.98072 12.7889 7.98312ZM12.7889 6.15211C12.7263 6.15211 12.6662 6.17721 12.6219 6.22184C12.5776 6.26648 12.5528 6.32702 12.5528 6.39015C12.5528 6.64649 13.016 6.64649 13.016 6.39015C13.0172 6.35933 13.0122 6.32857 13.0014 6.29974C12.9905 6.2709 12.974 6.24458 12.9528 6.22235C12.9316 6.20012 12.9061 6.18245 12.878 6.17038C12.8498 6.15831 12.8195 6.15208 12.7889 6.15211Z" fill="#202020"/>
<path d="M17.9389 7.98312C17.6238 7.98493 17.3152 7.89232 17.0524 7.71697C16.7896 7.54163 16.5845 7.2915 16.4631 6.99838C16.3416 6.70526 16.3094 6.38233 16.3704 6.07069C16.4315 5.75906 16.5831 5.47278 16.8059 5.24817C17.0288 5.02356 17.3128 4.87077 17.622 4.80925C17.9312 4.74772 18.2515 4.78023 18.5423 4.90262C18.8332 5.02502 19.0813 5.23179 19.2553 5.49666C19.4293 5.76153 19.5212 6.0725 19.5194 6.39015C19.5194 6.81263 19.3529 7.2178 19.0565 7.51654C18.7601 7.81528 18.3581 7.98312 17.9389 7.98312ZM17.9389 6.15211C17.8763 6.15211 17.8162 6.17721 17.7719 6.22184C17.7276 6.26648 17.7028 6.32702 17.7028 6.39015C17.7028 6.64649 18.166 6.64649 18.166 6.39015C18.1672 6.35933 18.1623 6.32857 18.1514 6.29974C18.1405 6.2709 18.124 6.24458 18.1028 6.22235C18.0816 6.20012 18.0561 6.18245 18.028 6.17038C17.9998 6.15831 17.9695 6.15208 17.9389 6.15211Z" fill="#202020"/>
<path d="M54.3259 41.7927H37.068C36.2891 41.7903 35.5428 41.4768 34.9929 40.9207C34.443 40.3647 34.1342 39.6116 34.1342 38.8265V20.1319C34.1342 19.3467 34.443 18.5937 34.9929 18.0377C35.5428 17.4816 36.2891 17.168 37.068 17.1656H54.3259C55.1057 17.168 55.8529 17.4813 56.4043 18.0371C56.9556 18.5929 57.2665 19.3459 57.2689 20.1319V38.8357C57.2641 39.62 56.9522 40.3708 56.4011 40.9245C55.8499 41.4783 55.1041 41.7903 54.3259 41.7927ZM37.068 18.9875C36.9205 18.9875 36.7745 19.0169 36.6384 19.0741C36.5022 19.1312 36.3787 19.215 36.2748 19.3205C36.1709 19.426 36.0888 19.5513 36.0332 19.689C35.9776 19.8266 35.9496 19.974 35.9508 20.1227V38.8265C35.9496 38.9751 35.9776 39.1226 36.0332 39.2603C36.0888 39.3979 36.1709 39.5231 36.2748 39.6287C36.3787 39.7342 36.5022 39.818 36.6384 39.8752C36.7745 39.9323 36.9205 39.9617 37.068 39.9617H54.3259C54.6246 39.9617 54.9111 39.8421 55.1223 39.6292C55.3336 39.4163 55.4522 39.1276 55.4522 38.8265V20.1319C55.4522 19.8308 55.3336 19.542 55.1223 19.3291C54.9111 19.1162 54.6246 18.9966 54.3259 18.9966L37.068 18.9875Z" fill="#202020"/>
<path d="M25.678 25.1765H8.81063C8.08793 25.1765 7.39484 24.8871 6.88382 24.372C6.3728 23.857 6.08569 23.1584 6.08569 22.4299V20.9377C6.08569 20.2092 6.3728 19.5106 6.88382 18.9956C7.39484 18.4805 8.08793 18.1911 8.81063 18.1911H25.678C26.4007 18.1911 27.0938 18.4805 27.6048 18.9956C28.1158 19.5106 28.4029 20.2092 28.4029 20.9377V22.4299C28.4029 23.1584 28.1158 23.857 27.6048 24.372C27.0938 24.8871 26.4007 25.1765 25.678 25.1765ZM8.81063 19.9581C8.56973 19.9581 8.33871 20.0545 8.16837 20.2262C7.99803 20.3979 7.90232 20.6308 7.90232 20.8736V22.3659C7.90232 22.6087 7.99803 22.8415 8.16837 23.0132C8.33871 23.1849 8.56973 23.2814 8.81063 23.2814H25.678C25.9189 23.2814 26.1499 23.1849 26.3203 23.0132C26.4906 22.8415 26.5863 22.6087 26.5863 22.3659V20.8736C26.5863 20.6308 26.4906 20.3979 26.3203 20.2262C26.1499 20.0545 25.9189 19.9581 25.678 19.9581H8.81063Z" fill="#202020"/>
<path d="M27.5309 28.0602H6.96667V29.8912H27.5309V28.0602Z" fill="#202020"/>
<path d="M27.5309 33.0404H6.96667V34.8714H27.5309V33.0404Z" fill="#202020"/>
<path d="M27.5309 38.0208H6.96667V39.8518H27.5309V38.0208Z" fill="#202020"/>
</svg>
