<svg width="50" height="50" viewBox="0 0 50 50" fill="none" xmlns="http://www.w3.org/2000/svg">
<g clip-path="url(#clip0_19436_5152)">
<path fill-rule="evenodd" clip-rule="evenodd" d="M39.6395 26.3452C37.8495 26.3464 36.0994 25.8091 34.6107 24.8011C33.122 23.7931 31.9617 22.3598 31.2767 20.6828C30.5916 19.0057 30.4127 17.1602 30.7625 15.38C31.1124 13.5997 31.9752 11.9648 33.2418 10.6821C34.5085 9.39939 36.1219 8.52668 37.8779 8.17439C39.6339 7.82211 41.4535 8.00612 43.1063 8.70311C44.7591 9.4001 46.1709 10.5787 47.1628 12.0898C48.1547 13.6009 48.6822 15.3764 48.6785 17.1917C48.6702 19.6189 47.7148 21.9442 46.0211 23.6594C44.3274 25.3745 42.0331 26.3401 39.6395 26.3452ZM39.6395 9.2722C38.0992 9.27094 36.5931 9.73276 35.3115 10.5993C34.03 11.4658 33.0305 12.6981 32.4393 14.1404C31.8481 15.5828 31.6918 17.1705 31.9902 18.7029C32.2886 20.2354 33.0282 21.6437 34.1156 22.75C35.203 23.8563 36.5894 24.6108 38.0996 24.9183C39.6098 25.2258 41.1759 25.0725 42.6002 24.4776C44.0244 23.8828 45.2428 22.8731 46.1014 21.5763C46.96 20.2795 47.4202 18.7537 47.4239 17.1917C47.4256 16.1533 47.2255 15.1248 46.8352 14.1649C46.4449 13.205 45.872 12.3324 45.1491 11.597C44.4263 10.8616 43.5677 10.2778 42.6224 9.87895C41.677 9.48005 40.6635 9.27387 39.6395 9.2722ZM19.4666 40.9563C20.5023 41.1396 21.5515 41.2332 22.6029 41.2361C25.3302 41.2267 28.0198 40.5894 30.4688 39.3724L44.3628 32.5089L44.0366 31.9236C43.4343 30.8206 42.4619 29.9732 41.2959 29.5355C40.1299 29.0978 38.8477 29.0988 37.6824 29.5382L29.1704 32.7188C27.2256 33.443 25.1701 33.8134 23.0984 33.8129C22.4945 33.8129 21.9154 33.5696 21.4884 33.1365C21.0614 32.7035 20.8214 32.1162 20.8214 31.5038C20.8214 30.8914 21.0614 30.3041 21.4884 29.8711C21.9154 29.4381 22.4945 29.1948 23.0984 29.1948H23.7257C24.9779 29.1931 26.1783 28.6879 27.0637 27.79C27.9492 26.8921 28.4474 25.6748 28.449 24.4049V23.7688H19.7363C18.0686 23.7654 16.4174 24.1029 14.8813 24.7612L8.03994 27.6761C7.93555 27.5294 7.8192 27.3904 7.69154 27.2607C7.06002 26.6191 6.20325 26.2578 5.30932 26.2561H4.36842C3.47448 26.2578 2.61771 26.6191 1.98619 27.2607C1.35467 27.9023 0.999998 28.7718 1 29.6783V37.9476C1.00166 38.8531 1.35707 39.7209 1.98841 40.3612C2.61975 41.0014 3.47557 41.3618 4.36842 41.3635H5.30932C6.20217 41.3618 7.05798 41.0014 7.68932 40.3612C8.06599 39.9792 8.34444 39.5162 8.50815 39.0126L19.4666 40.9563ZM7.41677 29.5109V38.1149C7.37764 38.6222 7.16144 39.101 6.80405 39.4634C6.40762 39.8654 5.86995 40.0913 5.30932 40.0913H4.36842C4.08976 40.0905 3.81401 40.0338 3.55704 39.9245C3.30006 39.8152 3.06692 39.6555 2.87104 39.4545C2.67517 39.2535 2.5204 39.0152 2.41568 38.7533C2.31095 38.4914 2.25833 38.2111 2.26081 37.9285V29.6592C2.26081 29.0901 2.48333 28.5442 2.87958 28.1412C3.27583 27.7382 3.81348 27.5109 4.3747 27.5092L5.30932 27.5283C5.87053 27.53 6.40818 27.7573 6.80443 28.1603C7.16164 28.5236 7.37766 29.003 7.41677 29.5109ZM8.67773 37.7387L19.6673 39.6968C23.1537 40.3311 26.7487 39.8208 29.9294 38.2401L42.5813 31.9936C42.0656 31.3331 41.3574 30.8544 40.5577 30.626C39.758 30.3976 38.9076 30.431 38.1277 30.7214L29.6157 33.9019C27.5335 34.6824 25.3309 35.0808 23.111 35.0787C22.1744 35.0787 21.2761 34.7014 20.6138 34.0298C19.9515 33.3582 19.5795 32.4473 19.5795 31.4974C19.5795 30.5476 19.9515 29.6367 20.6138 28.9651C21.2761 28.2935 22.1744 27.9162 23.111 27.9162H23.7382C24.5492 27.9151 25.3343 27.6265 25.9575 27.1002C26.5806 26.574 27.0027 25.8433 27.1506 25.0347H19.7363C18.2287 25.0313 16.7357 25.3341 15.3454 25.9252L8.6525 28.7686L8.65355 29.2692C8.66958 29.4043 8.67773 29.5409 8.67773 29.6783V37.7387ZM40.3672 18.1903L41.8287 20.7347H43.5035L41.7973 17.9549C42.2176 17.7955 42.5798 17.5096 42.8355 17.1356C43.0911 16.7615 43.2279 16.3172 43.2275 15.8622C43.2275 14.4882 42.2114 13.6167 40.4801 13.6167H37.2058V20.7347H38.6359V18.1903H40.3672ZM40.3358 17.0517H38.6359V14.7808H40.3546C41.2077 14.7808 41.7221 15.1815 41.7221 15.9067C41.7221 16.6318 41.2077 17.0517 40.3358 17.0517Z" fill="#202020"/>
<path d="M39.6395 26.3452L39.6396 26.4702L39.6398 26.4702L39.6395 26.3452ZM31.2767 20.6828L31.3924 20.6355L31.3924 20.6355L31.2767 20.6828ZM30.7625 15.38L30.8852 15.4041L30.8852 15.4041L30.7625 15.38ZM33.2418 10.6821L33.3308 10.7699L33.3308 10.7699L33.2418 10.6821ZM37.8779 8.17439L37.9025 8.29695L37.9025 8.29695L37.8779 8.17439ZM43.1063 8.70311L43.1549 8.58793L43.1063 8.70311ZM48.6785 17.1917L48.8035 17.1921L48.8035 17.1919L48.6785 17.1917ZM46.0211 23.6594L46.1101 23.7472L46.1101 23.7472L46.0211 23.6594ZM39.6395 9.2722L39.6398 9.1472L39.6396 9.1472L39.6395 9.2722ZM32.4393 14.1404L32.3236 14.093L32.3236 14.093L32.4393 14.1404ZM31.9902 18.7029L31.8675 18.7268L31.8675 18.7268L31.9902 18.7029ZM34.1156 22.75L34.2048 22.6624L34.2048 22.6624L34.1156 22.75ZM38.0996 24.9183L38.1245 24.7958L38.1245 24.7958L38.0996 24.9183ZM42.6002 24.4776L42.6484 24.593L42.6484 24.593L42.6002 24.4776ZM46.1014 21.5763L45.9972 21.5073L45.9972 21.5073L46.1014 21.5763ZM47.4239 17.1917L47.5489 17.192L47.5489 17.1919L47.4239 17.1917ZM46.8352 14.1649L46.951 14.1178L46.951 14.1178L46.8352 14.1649ZM45.1491 11.597L45.2383 11.5094L45.2383 11.5094L45.1491 11.597ZM22.6029 41.2361L22.6025 41.3612L22.6033 41.3611L22.6029 41.2361ZM19.4666 40.9563L19.4447 41.0793L19.4448 41.0794L19.4666 40.9563ZM30.4688 39.3724L30.4134 39.2603L30.4132 39.2604L30.4688 39.3724ZM44.3628 32.5089L44.4181 32.6209L44.5359 32.5628L44.472 32.448L44.3628 32.5089ZM44.0366 31.9236L43.9269 31.9835L43.9274 31.9845L44.0366 31.9236ZM41.2959 29.5355L41.3398 29.4185L41.3398 29.4185L41.2959 29.5355ZM37.6824 29.5382L37.7261 29.6553L37.7265 29.6552L37.6824 29.5382ZM29.1704 32.7188L29.214 32.8359L29.2141 32.8358L29.1704 32.7188ZM23.0984 33.8129L23.0985 33.6879H23.0984V33.8129ZM21.4884 33.1365L21.5774 33.0488L21.5774 33.0488L21.4884 33.1365ZM21.4884 29.8711L21.5774 29.9589L21.5774 29.9589L21.4884 29.8711ZM23.7257 29.1948L23.7257 29.3198L23.7259 29.3198L23.7257 29.1948ZM27.0637 27.79L26.9747 27.7022L26.9747 27.7022L27.0637 27.79ZM28.449 24.4049L28.574 24.4051V24.4049H28.449ZM28.449 23.7688H28.574V23.6438H28.449V23.7688ZM19.7363 23.7688L19.736 23.8938H19.7363V23.7688ZM14.8813 24.7612L14.9302 24.8762L14.9305 24.8761L14.8813 24.7612ZM8.03994 27.6761L7.93808 27.7486L7.99639 27.8306L8.08893 27.7911L8.03994 27.6761ZM7.69154 27.2607L7.60246 27.3484L7.60246 27.3484L7.69154 27.2607ZM5.30932 26.2561L5.30955 26.1311H5.30932V26.2561ZM4.36842 26.2561V26.1311L4.36818 26.1311L4.36842 26.2561ZM1 29.6783L1.125 29.6783L1.125 29.6783L1 29.6783ZM1 37.9476L0.875 37.9476L0.875 37.9479L1 37.9476ZM1.98841 40.3612L2.07742 40.2734L2.07742 40.2734L1.98841 40.3612ZM4.36842 41.3635L4.36818 41.4885H4.36842V41.3635ZM5.30932 41.3635L5.30932 41.4885L5.30955 41.4885L5.30932 41.3635ZM7.68932 40.3612L7.60032 40.2734L7.60032 40.2734L7.68932 40.3612ZM8.50815 39.0126L8.52998 38.8895L8.42289 38.8705L8.38927 38.9739L8.50815 39.0126ZM7.41677 38.1149L7.54177 38.1245V38.1149H7.41677ZM7.41677 29.5109H7.54214L7.5414 29.5013L7.41677 29.5109ZM6.80405 39.4634L6.89306 39.5512L6.89306 39.5512L6.80405 39.4634ZM4.36842 40.0913L4.36805 40.2163H4.36842V40.0913ZM2.26081 37.9285L2.38581 37.9296V37.9285H2.26081ZM2.26081 29.6592L2.38581 29.6592L2.38581 29.6592L2.26081 29.6592ZM4.3747 27.5092L4.37725 27.3842L4.37432 27.3842L4.3747 27.5092ZM5.30932 27.5283L5.30676 27.6533L5.30894 27.6533L5.30932 27.5283ZM6.80443 28.1603L6.7153 28.2479L6.7153 28.2479L6.80443 28.1603ZM19.6673 39.6968L19.6897 39.5738L19.6892 39.5737L19.6673 39.6968ZM8.67773 37.7387H8.55273V37.8434L8.65581 37.8618L8.67773 37.7387ZM29.9294 38.2401L29.874 38.1281L29.8737 38.1282L29.9294 38.2401ZM42.5813 31.9936L42.6367 32.1057L42.7743 32.0377L42.6798 31.9167L42.5813 31.9936ZM40.5577 30.626L40.5234 30.7462L40.5234 30.7462L40.5577 30.626ZM38.1277 30.7214L38.0841 30.6043L38.084 30.6043L38.1277 30.7214ZM29.6157 33.9019L29.572 33.7848L29.5719 33.7849L29.6157 33.9019ZM23.111 35.0787L23.1111 34.9537H23.111V35.0787ZM20.6138 34.0298L20.7028 33.942L20.7028 33.942L20.6138 34.0298ZM20.6138 28.9651L20.7028 29.0529L20.7028 29.0529L20.6138 28.9651ZM23.7382 27.9162L23.7382 28.0412L23.7384 28.0412L23.7382 27.9162ZM25.9575 27.1002L26.0381 27.1957L26.0381 27.1957L25.9575 27.1002ZM27.1506 25.0347L27.2735 25.0572L27.3005 24.9097H27.1506V25.0347ZM19.7363 25.0347L19.736 25.1597H19.7363V25.0347ZM15.3454 25.9252L15.3943 26.0402L15.3943 26.0402L15.3454 25.9252ZM8.6525 28.7686L8.60362 28.6535L8.52733 28.686L8.5275 28.7688L8.6525 28.7686ZM8.65355 29.2692L8.52855 29.2695L8.52857 29.2768L8.52942 29.284L8.65355 29.2692ZM41.8287 20.7347L41.7203 20.797L41.7563 20.8597H41.8287V20.7347ZM40.3672 18.1903L40.4756 18.128L40.4396 18.0653H40.3672V18.1903ZM43.5035 20.7347V20.8597H43.7269L43.6101 20.6693L43.5035 20.7347ZM41.7973 17.9549L41.753 17.8381L41.6118 17.8916L41.6908 18.0203L41.7973 17.9549ZM42.8355 17.1356L42.9387 17.2061L42.9387 17.2061L42.8355 17.1356ZM43.2275 15.8622L43.1025 15.8622L43.1025 15.8622L43.2275 15.8622ZM37.2058 13.6167V13.4917H37.0808V13.6167H37.2058ZM37.2058 20.7347H37.0808V20.8597H37.2058V20.7347ZM38.6359 20.7347V20.8597H38.7609V20.7347H38.6359ZM38.6359 18.1903V18.0653H38.5109V18.1903H38.6359ZM38.6359 17.0517H38.5109V17.1767H38.6359V17.0517ZM38.6359 14.7808V14.6558H38.5109V14.7808H38.6359ZM34.5406 24.9046C36.0499 25.9265 37.8245 26.4714 39.6396 26.4702L39.6395 26.2202C37.8746 26.2214 36.1488 25.6916 34.6807 24.6976L34.5406 24.9046ZM31.1609 20.73C31.8552 22.4298 33.0313 23.8827 34.5406 24.9046L34.6807 24.6976C33.2126 23.7035 32.0681 22.2899 31.3924 20.6355L31.1609 20.73ZM30.6399 15.3559C30.2853 17.16 30.4667 19.0303 31.1609 20.73L31.3924 20.6355C30.7166 18.9811 30.5401 17.1604 30.8852 15.4041L30.6399 15.3559ZM33.1529 10.5942C31.8689 11.8945 30.9944 13.5517 30.6399 15.3559L30.8852 15.4041C31.2303 13.6477 32.0815 12.035 33.3308 10.7699L33.1529 10.5942ZM37.8533 8.05184C36.0727 8.40906 34.4369 9.29395 33.1529 10.5942L33.3308 10.7699C34.58 9.50483 36.1711 8.6443 37.9025 8.29695L37.8533 8.05184ZM43.1549 8.58793C41.479 7.88121 39.634 7.69461 37.8533 8.05184L37.9025 8.29695C39.6339 7.94961 41.428 8.13102 43.0577 8.81828L43.1549 8.58793ZM47.2673 12.0212C46.2619 10.4896 44.8307 9.29463 43.1549 8.58793L43.0577 8.81828C44.6875 9.50556 46.0799 10.6679 47.0583 12.1584L47.2673 12.0212ZM48.8035 17.1919C48.8073 15.3523 48.2727 13.5528 47.2673 12.0212L47.0583 12.1584C48.0367 13.6489 48.5572 15.4005 48.5535 17.1914L48.8035 17.1919ZM46.1101 23.7472C47.8269 22.0086 48.7951 19.6518 48.8035 17.1921L48.5535 17.1912C48.5453 19.586 47.6027 21.8798 45.9322 23.5715L46.1101 23.7472ZM39.6398 26.4702C42.067 26.4651 44.3931 25.4859 46.1101 23.7472L45.9322 23.5715C44.2617 25.2632 41.9993 26.2152 39.6393 26.2202L39.6398 26.4702ZM35.3816 10.7028C36.6425 9.85024 38.1242 9.39596 39.6394 9.3972L39.6396 9.1472C38.0742 9.14592 36.5437 9.61527 35.2415 10.4957L35.3816 10.7028ZM32.555 14.1878C33.1369 12.7681 34.1206 11.5554 35.3816 10.7028L35.2415 10.4957C33.9394 11.3761 32.9241 12.628 32.3236 14.093L32.555 14.1878ZM32.1129 18.6791C31.8192 17.1705 31.9731 15.6076 32.555 14.1878L32.3236 14.093C31.7232 15.558 31.5645 17.1705 31.8675 18.7268L32.1129 18.6791ZM34.2048 22.6624C33.1347 21.5737 32.4066 20.1876 32.1129 18.6791L31.8675 18.7268C32.1706 20.2832 32.9218 21.7137 34.0265 22.8376L34.2048 22.6624ZM38.1245 24.7958C36.6389 24.4933 35.2749 23.751 34.2048 22.6624L34.0265 22.8376C35.1312 23.9615 36.5399 24.7283 38.0747 25.0408L38.1245 24.7958ZM42.552 24.3623C41.1508 24.9475 39.6101 25.0983 38.1245 24.7958L38.0747 25.0408C39.6094 25.3533 41.201 25.1975 42.6484 24.593L42.552 24.3623ZM45.9972 21.5073C45.1522 22.7836 43.9532 23.7771 42.552 24.3623L42.6484 24.593C44.0957 23.9885 45.3335 22.9626 46.2056 21.6453L45.9972 21.5073ZM47.2989 17.1914C47.2953 18.729 46.8422 20.2309 45.9972 21.5073L46.2056 21.6453C47.0778 20.328 47.5452 18.7783 47.5489 17.192L47.2989 17.1914ZM46.7194 14.212C47.1036 15.1569 47.3006 16.1693 47.2989 17.1915L47.5489 17.1919C47.5506 16.1374 47.3475 15.0928 46.951 14.1178L46.7194 14.212ZM45.06 11.6846C45.7713 12.4083 46.3352 13.2671 46.7194 14.212L46.951 14.1178C46.5546 13.1428 45.9726 12.2565 45.2383 11.5094L45.06 11.6846ZM42.5738 9.99411C43.5038 10.3866 44.3487 10.961 45.06 11.6846L45.2383 11.5094C44.5039 10.7623 43.6316 10.1691 42.671 9.76378L42.5738 9.99411ZM39.6393 9.3972C40.6466 9.39884 41.6437 9.60167 42.5738 9.99411L42.671 9.76378C41.7103 9.35844 40.6803 9.14889 39.6398 9.1472L39.6393 9.3972ZM22.6032 41.1111C21.5591 41.1082 20.517 41.0152 19.4884 40.8332L19.4448 41.0794C20.4876 41.2639 21.544 41.3582 22.6025 41.3611L22.6032 41.1111ZM30.4132 39.2604C27.9812 40.469 25.3105 41.1018 22.6025 41.1111L22.6033 41.3611C25.3498 41.3516 28.0583 40.7099 30.5244 39.4843L30.4132 39.2604ZM44.3074 32.3968L30.4134 39.2603L30.5242 39.4845L44.4181 32.6209L44.3074 32.3968ZM43.9274 31.9845L44.2536 32.5697L44.472 32.448L44.1458 31.8628L43.9274 31.9845ZM41.252 29.6525C42.3896 30.0796 43.3388 30.9065 43.9269 31.9835L44.1463 31.8637C43.5298 30.7346 42.5342 29.8668 41.3398 29.4185L41.252 29.6525ZM37.7265 29.6552C38.8635 29.2264 40.1143 29.2255 41.252 29.6525L41.3398 29.4185C40.1454 28.9701 38.832 28.9711 37.6383 29.4213L37.7265 29.6552ZM29.2141 32.8358L37.7261 29.6553L37.6386 29.4212L29.1266 32.6017L29.2141 32.8358ZM23.0984 33.9379C25.185 33.9384 27.2553 33.5653 29.214 32.8359L29.1267 32.6016C27.196 33.3206 25.1552 33.6884 23.0985 33.6879L23.0984 33.9379ZM21.3994 33.2243C21.8497 33.681 22.4608 33.9379 23.0984 33.9379V33.6879C22.5283 33.6879 21.9811 33.4582 21.5774 33.0488L21.3994 33.2243ZM20.6964 31.5038C20.6964 32.1488 20.9491 32.7677 21.3994 33.2243L21.5774 33.0488C21.1736 32.6393 20.9464 32.0836 20.9464 31.5038H20.6964ZM21.3994 29.7833C20.9491 30.2399 20.6964 30.8588 20.6964 31.5038H20.9464C20.9464 30.924 21.1736 30.3683 21.5774 29.9589L21.3994 29.7833ZM23.0984 29.0698C22.4608 29.0698 21.8497 29.3267 21.3994 29.7833L21.5774 29.9589C21.9811 29.5495 22.5283 29.3198 23.0984 29.3198V29.0698ZM23.7257 29.0698H23.0984V29.3198H23.7257V29.0698ZM26.9747 27.7022C26.1126 28.5766 24.9441 29.0681 23.7255 29.0698L23.7259 29.3198C25.0117 29.318 26.2441 28.7993 27.1528 27.8778L26.9747 27.7022ZM28.324 24.4048C28.3224 25.6421 27.837 26.8279 26.9747 27.7022L27.1528 27.8778C28.0614 26.9563 28.5723 25.7075 28.574 24.4051L28.324 24.4048ZM28.324 23.7688V24.4049H28.574V23.7688H28.324ZM19.7363 23.8938H28.449V23.6438H19.7363V23.8938ZM14.9305 24.8761C16.451 24.2245 18.0854 23.8904 19.736 23.8938L19.7365 23.6438C18.0518 23.6403 16.3838 23.9813 14.832 24.6463L14.9305 24.8761ZM8.08893 27.7911L14.9302 24.8762L14.8323 24.6462L7.99094 27.5611L8.08893 27.7911ZM7.60246 27.3484C7.72542 27.4733 7.83751 27.6072 7.93808 27.7486L8.14179 27.6037C8.03359 27.4516 7.91298 27.3075 7.78063 27.173L7.60246 27.3484ZM5.30908 26.3811C6.16934 26.3827 6.99419 26.7304 7.60246 27.3484L7.78063 27.173C7.12585 26.5078 6.23717 26.1329 5.30955 26.1311L5.30908 26.3811ZM4.36842 26.3811H5.30932V26.1311H4.36842V26.3811ZM2.07528 27.3484C2.68355 26.7304 3.50839 26.3827 4.36865 26.3811L4.36818 26.1311C3.44057 26.1329 2.55188 26.5078 1.89711 27.173L2.07528 27.3484ZM1.125 29.6783C1.125 28.8044 1.46695 27.9664 2.07528 27.3484L1.89711 27.173C1.24239 27.8382 0.874998 28.7393 0.875 29.6783L1.125 29.6783ZM1.125 37.9476V29.6783H0.875V37.9476H1.125ZM2.07742 40.2734C1.46926 39.6567 1.1266 38.8203 1.125 37.9474L0.875 37.9479C0.876718 38.8858 1.24488 39.7852 1.89941 40.4489L2.07742 40.2734ZM4.36865 41.2385C3.50944 41.2369 2.68551 40.8901 2.07742 40.2734L1.89941 40.4489C2.554 41.1128 3.44169 41.4868 4.36818 41.4885L4.36865 41.2385ZM5.30932 41.2385H4.36842V41.4885H5.30932V41.2385ZM7.60032 40.2734C6.99222 40.8901 6.1683 41.2369 5.30908 41.2385L5.30955 41.4885C6.23604 41.4868 7.12374 41.1128 7.77833 40.4489L7.60032 40.2734ZM8.38927 38.9739C8.23147 39.4594 7.96314 39.9055 7.60032 40.2734L7.77833 40.4489C8.16884 40.0529 8.4574 39.573 8.62702 39.0512L8.38927 38.9739ZM19.4884 40.8332L8.52998 38.8895L8.48631 39.1356L19.4447 41.0793L19.4884 40.8332ZM7.54177 38.1149V29.5109H7.29177V38.1149H7.54177ZM6.89306 39.5512C7.2714 39.1675 7.50003 38.6609 7.5414 38.1245L7.29214 38.1052C7.25526 38.5835 7.05147 39.0345 6.71505 39.3757L6.89306 39.5512ZM5.30932 40.2163C5.90368 40.2163 6.47332 39.9768 6.89306 39.5512L6.71505 39.3757C6.34192 39.7541 5.83623 39.9663 5.30932 39.9663V40.2163ZM4.36842 40.2163H5.30932V39.9663H4.36842V40.2163ZM3.50811 40.0395C3.78041 40.1553 4.07266 40.2154 4.36805 40.2163L4.36879 39.9663C4.10686 39.9655 3.84762 39.9122 3.60596 39.8094L3.50811 40.0395ZM2.78152 39.5417C2.9889 39.7545 3.23583 39.9237 3.50811 40.0395L3.60596 39.8094C3.36429 39.7067 3.14493 39.5564 2.96056 39.3672L2.78152 39.5417ZM2.29961 38.7997C2.4104 39.0767 2.57415 39.3289 2.78152 39.5417L2.96056 39.3672C2.77618 39.178 2.63041 38.9536 2.53174 38.7069L2.29961 38.7997ZM2.13582 37.9274C2.13319 38.2263 2.18883 38.5227 2.29961 38.7997L2.53174 38.7069C2.43307 38.4602 2.38347 38.196 2.38581 37.9296L2.13582 37.9274ZM2.13581 29.6592V37.9285H2.38581V29.6592H2.13581ZM2.79044 28.0536C2.37103 28.4801 2.13581 29.0576 2.13581 29.6592L2.38581 29.6592C2.38581 29.1226 2.59562 28.6083 2.96871 28.2288L2.79044 28.0536ZM4.37432 27.3842C3.77945 27.386 3.20992 27.6269 2.79044 28.0536L2.96871 28.2288C3.34174 27.8494 3.84752 27.6358 4.37507 27.6342L4.37432 27.3842ZM5.31187 27.4033L4.37725 27.3842L4.37214 27.6342L5.30676 27.6533L5.31187 27.4033ZM6.89357 28.0727C6.4741 27.646 5.90456 27.4051 5.30969 27.4033L5.30894 27.6533C5.8365 27.6549 6.34227 27.8685 6.7153 28.2479L6.89357 28.0727ZM7.5414 29.5013C7.50005 28.9644 7.27166 28.4572 6.89357 28.0727L6.7153 28.2479C7.05161 28.59 7.25527 29.0417 7.29214 29.5205L7.5414 29.5013ZM19.6892 39.5737L8.69966 37.6157L8.65581 37.8618L19.6454 39.8199L19.6892 39.5737ZM29.8737 38.1282C26.7172 39.6969 23.1495 40.2033 19.6897 39.5738L19.6449 39.8198C23.1579 40.4589 26.7803 39.9447 29.985 38.3521L29.8737 38.1282ZM42.526 31.8815L29.874 38.1281L29.9847 38.3522L42.6367 32.1057L42.526 31.8815ZM40.5234 30.7462C41.2975 30.9673 41.9832 31.4307 42.4828 32.0705L42.6798 31.9167C42.148 31.2355 41.4174 30.7416 40.5921 30.5058L40.5234 30.7462ZM38.1714 30.8386C38.9263 30.5574 39.7494 30.5251 40.5234 30.7462L40.5921 30.5058C39.7667 30.27 38.889 30.3045 38.0841 30.6043L38.1714 30.8386ZM29.6595 34.019L38.1715 30.8385L38.084 30.6043L29.572 33.7848L29.6595 34.019ZM23.1109 35.2037C25.3458 35.2059 27.5633 34.8047 29.6596 34.019L29.5719 33.7849C27.5037 34.5601 25.316 34.9558 23.1111 34.9537L23.1109 35.2037ZM20.5248 34.1175C21.2104 34.8128 22.1406 35.2037 23.111 35.2037V34.9537C22.2081 34.9537 21.3418 34.59 20.7028 33.942L20.5248 34.1175ZM19.4545 31.4974C19.4545 32.4798 19.8393 33.4224 20.5248 34.1175L20.7028 33.942C20.0638 33.294 19.7045 32.4147 19.7045 31.4974H19.4545ZM20.5248 28.8774C19.8393 29.5725 19.4545 30.515 19.4545 31.4974H19.7045C19.7045 30.5802 20.0638 29.7009 20.7028 29.0529L20.5248 28.8774ZM23.111 27.7912C22.1406 27.7912 21.2104 28.1821 20.5248 28.8774L20.7028 29.0529C21.3418 28.4049 22.2081 28.0412 23.111 28.0412V27.7912ZM23.7382 27.7912H23.111V28.0412H23.7382V27.7912ZM25.8768 27.0047C25.276 27.5121 24.5194 27.7902 23.7381 27.7912L23.7384 28.0412C24.579 28.0401 25.3925 27.7409 26.0381 27.1957L25.8768 27.0047ZM27.0276 25.0122C26.8849 25.7925 26.4777 26.4973 25.8768 27.0047L26.0381 27.1957C26.6836 26.6506 27.1205 25.894 27.2735 25.0572L27.0276 25.0122ZM19.7363 25.1597H27.1506V24.9097H19.7363V25.1597ZM15.3943 26.0402C16.7691 25.4557 18.2454 25.1563 19.736 25.1597L19.7366 24.9097C18.2121 24.9062 16.7023 25.2124 15.2965 25.8102L15.3943 26.0402ZM8.70138 28.8836L15.3943 26.0402L15.2965 25.8101L8.60362 28.6535L8.70138 28.8836ZM8.77855 29.269L8.7775 28.7683L8.5275 28.7688L8.52855 29.2695L8.77855 29.269ZM8.80273 29.6783C8.80273 29.536 8.79429 29.3944 8.77768 29.2545L8.52942 29.284C8.54488 29.4142 8.55273 29.5458 8.55273 29.6783H8.80273ZM8.80273 37.7387V29.6783H8.55273V37.7387H8.80273ZM41.9371 20.6724L40.4756 18.128L40.2588 18.2526L41.7203 20.797L41.9371 20.6724ZM43.5035 20.6097H41.8287V20.8597H43.5035V20.6097ZM41.6908 18.0203L43.397 20.8001L43.6101 20.6693L41.9039 17.8896L41.6908 18.0203ZM42.7322 17.065C42.4909 17.4181 42.1492 17.6878 41.753 17.8381L41.8417 18.0718C42.2861 17.9032 42.6688 17.601 42.9387 17.2061L42.7322 17.065ZM43.1025 15.8622C43.1028 16.2922 42.9736 16.7119 42.7322 17.065L42.9387 17.2061C43.2085 16.8112 43.3529 16.3422 43.3525 15.8621L43.1025 15.8622ZM40.4801 13.7417C41.3261 13.7417 41.9816 13.9547 42.4233 14.3205C42.8622 14.6839 43.1025 15.2085 43.1025 15.8622H43.3525C43.3525 15.1419 43.0848 14.5437 42.5828 14.1279C42.0835 13.7145 41.3653 13.4917 40.4801 13.4917V13.7417ZM37.2058 13.7417H40.4801V13.4917H37.2058V13.7417ZM37.3308 20.7347V13.6167H37.0808V20.7347H37.3308ZM38.6359 20.6097H37.2058V20.8597H38.6359V20.6097ZM38.5109 18.1903V20.7347H38.7609V18.1903H38.5109ZM40.3672 18.0653H38.6359V18.3153H40.3672V18.0653ZM38.6359 17.1767H40.3358V16.9267H38.6359V17.1767ZM38.5109 14.7808V17.0517H38.7609V14.7808H38.5109ZM40.3546 14.6558H38.6359V14.9058H40.3546V14.6558ZM41.8471 15.9067C41.8471 15.512 41.7056 15.1926 41.437 14.9747C41.1722 14.7599 40.7988 14.6558 40.3546 14.6558V14.9058C40.7636 14.9058 41.0739 15.002 41.2795 15.1689C41.4814 15.3327 41.5971 15.5762 41.5971 15.9067H41.8471ZM40.3358 17.1767C40.7901 17.1767 41.1684 17.0675 41.4354 16.8476C41.7057 16.625 41.8471 16.3012 41.8471 15.9067H41.5971C41.5971 16.2373 41.4813 16.486 41.2765 16.6546C41.0683 16.826 40.7535 16.9267 40.3358 16.9267V17.1767Z" fill="#202020"/>
</g>
<defs>
<clipPath id="clip0_19436_5152">
<rect width="50" height="50" fill="white"/>
</clipPath>
</defs>
</svg>
