<svg width="201" height="70" viewBox="0 0 201 70" fill="none" xmlns="http://www.w3.org/2000/svg">
<path d="M23.5896 23.438C15.9796 23.438 10.0195 35.2584 10.0195 50.351C10.0195 55.7182 11.3497 59.0673 14.2085 60.8844C16.6851 62.4602 19.9224 62.5881 23.5896 62.5881C27.2568 62.5881 30.494 62.4602 32.9707 60.8844C35.8294 59.0673 37.1633 55.7182 37.1633 50.351C37.1633 35.262 31.2032 23.438 23.5896 23.438ZM34.6021 50.4716C34.5654 59.5755 30.3875 60.0398 23.5896 60.0398C16.7623 60.0398 12.5807 59.5718 12.5807 50.3473C12.5807 37.1413 17.6221 25.9827 23.5896 25.9827C29.557 25.9827 34.5985 37.1413 34.5985 50.3473V50.4716H34.6021Z" fill="#53E0CC"/>
<path d="M28.9509 20.9926C32.8753 20.3198 34.5509 19.3985 34.5509 17.9104C34.5509 16.4224 32.8753 15.501 28.9509 14.8283C25.9194 14.3091 21.8995 14.0239 17.637 14.0239C13.3746 14.0239 9.35462 14.3091 6.32313 14.8283C2.39873 15.501 0.723145 16.4224 0.723145 17.9104C0.723145 19.3985 2.39873 20.3198 6.32313 20.9926C9.35462 21.5117 13.3746 21.7969 17.637 21.7969C21.8995 21.7969 25.9157 21.5117 28.9509 20.9926V20.9926ZM4.33888 18.0969C4.15148 18.042 4.15148 17.7788 4.33888 17.7203C5.02602 17.5119 6.04019 17.2779 7.52838 17.0585C10.3247 16.6417 13.9147 16.4151 17.637 16.4151C21.3593 16.4151 24.9493 16.6454 27.7456 17.0585C29.2265 17.2779 30.237 17.5119 30.9241 17.7166C31.1152 17.7751 31.1152 18.0384 30.9241 18.0969C30.237 18.3016 29.2228 18.5356 27.7456 18.755C24.9493 19.1718 21.3593 19.3985 17.637 19.3985C13.9147 19.3985 10.3247 19.1681 7.52838 18.755C6.04387 18.5356 5.0297 18.3016 4.33888 18.0932V18.0969Z" fill="#53E0CC"/>
<path d="M42.5865 7.62155C40.6463 7.21937 38.0852 7 35.3734 7C32.6616 7 30.1004 7.21937 28.1603 7.62155C26.5325 7.95791 24.3682 8.59043 24.3682 10.1662C24.3682 11.7457 26.5325 12.3746 28.1603 12.7109C30.1004 13.1131 32.6616 13.3325 35.3734 13.3325C38.0852 13.3325 40.6463 13.1094 42.5865 12.7109C44.2143 12.3746 46.3786 11.742 46.3786 10.1662C46.3786 8.58677 44.2143 7.95791 42.5865 7.62155ZM35.3734 11.0912C31.9708 11.0912 29.4427 10.7439 27.9398 10.3564C27.7451 10.3052 27.7451 10.0273 27.9398 9.97611C29.4427 9.59222 31.9708 9.24122 35.3734 9.24122C38.765 9.24122 41.2894 9.58856 42.7923 9.97246C42.9944 10.0236 42.9944 10.3088 42.7923 10.36C41.2894 10.7439 38.765 11.0912 35.3734 11.0912V11.0912Z" fill="#53E0CC"/>
<path d="M98.5502 48.4829C94.9786 48.4829 92.0684 45.5909 92.0684 42.0371C92.0684 38.4833 94.9749 35.5913 98.5502 35.5913C102.122 35.5913 105.028 38.4833 105.028 42.0371C105.028 45.5909 102.122 48.4829 98.5502 48.4829ZM98.5502 38.1177C96.3786 38.1177 94.6111 39.8763 94.6111 42.0335C94.6111 44.1942 96.3786 45.9529 98.5502 45.9529C100.722 45.9529 102.489 44.1942 102.489 42.0335C102.489 39.8727 100.722 38.1177 98.5502 38.1177Z" fill="#53E0CC"/>
<path d="M52.0417 35.5879C50.5608 35.5879 49.1976 36.0888 48.1063 36.926V28.2207H45.5635V42.4139H45.5819C45.7803 45.7922 48.5986 48.4831 52.0417 48.4831C55.6133 48.4831 58.5199 45.5911 58.5199 42.0373C58.5199 38.4835 55.6133 35.5915 52.0417 35.5915V35.5879ZM52.0417 45.9531C49.87 45.9531 48.1063 44.1945 48.1063 42.0373C48.1063 39.8765 49.8737 38.1179 52.0417 38.1179C54.2133 38.1179 55.9771 39.8765 55.9771 42.0373C55.9771 44.1981 54.2096 45.9531 52.0417 45.9531Z" fill="#53E0CC"/>
<path d="M113.906 35.5879C112.425 35.5879 111.062 36.0888 109.971 36.926V28.2207H107.428V42.0373C107.428 45.5911 110.334 48.4831 113.906 48.4831C117.478 48.4831 120.384 45.5911 120.384 42.0373C120.384 38.4835 117.478 35.5915 113.906 35.5915V35.5879ZM113.906 45.9531C111.734 45.9531 109.971 44.1945 109.971 42.0337C109.971 39.8729 111.738 38.1179 113.906 38.1179C116.078 38.1179 117.845 39.8765 117.845 42.0337C117.845 44.1945 116.078 45.9531 113.906 45.9531Z" fill="#53E0CC"/>
<path d="M144.622 35.5879C143.141 35.5879 141.777 36.0924 140.682 36.926V28.2207H138.14V42.0373C138.14 45.5911 141.046 48.4831 144.618 48.4831C148.189 48.4831 151.096 45.5911 151.096 42.0373C151.096 38.4835 148.189 35.5915 144.618 35.5915L144.622 35.5879ZM144.622 45.9531C142.45 45.9531 140.682 44.1945 140.682 42.0337C140.682 39.8729 142.45 38.1179 144.622 38.1179C146.793 38.1179 148.561 39.8765 148.561 42.0337C148.561 44.1945 146.793 45.9531 144.622 45.9531Z" fill="#53E0CC"/>
<path d="M67.2248 35.6389C63.6531 35.6389 60.7466 38.5309 60.7466 42.0847C60.7466 45.6385 63.6531 48.5305 67.2248 48.5305C67.4122 48.5305 67.5886 48.5232 67.776 48.5086C68.114 48.4793 68.4264 48.4245 68.713 48.3514C70.5539 47.8614 71.3917 46.5781 71.3917 46.5781V48.3002H73.703V42.0811C73.703 38.5273 70.7964 35.6353 67.2248 35.6353V35.6389ZM67.2248 46.0041C65.0568 46.0041 63.2857 44.2455 63.2857 42.0847C63.2857 39.9276 65.0531 38.1653 67.2248 38.1653C69.3928 38.1653 71.1639 39.9239 71.1639 42.0847C71.1639 44.2419 69.3964 46.0041 67.2248 46.0041Z" fill="#53E0CC"/>
<path d="M89.4998 36.4289H86.957V42.0923C86.957 44.2458 85.1969 45.9971 83.0326 45.9971C80.8683 45.9971 79.1082 44.2458 79.1082 42.0923V36.4289H76.5654V42.0923C76.5654 45.6425 79.4683 48.5272 83.0363 48.5272C84.5134 48.5272 85.873 48.0263 86.9607 47.1927V51.156C86.9607 53.3058 85.2814 55.1302 83.2127 55.2216C82.1177 55.2582 81.0998 54.8852 80.3208 54.143C79.5381 53.3972 79.1082 52.3954 79.1082 51.3205H76.5654C76.5654 53.0937 77.2746 54.7463 78.5644 55.9711C79.7806 57.1301 81.357 57.7553 83.0326 57.7553C83.1318 57.7553 83.231 57.7553 83.3266 57.748C86.7917 57.5981 89.5035 54.7024 89.5035 51.156V42.7614H89.4667C89.4888 42.5384 89.5035 42.3154 89.5035 42.0887V36.4253L89.4998 36.4289Z" fill="#53E0CC"/>
<path d="M129.074 35.6389C125.503 35.6389 122.596 38.5309 122.596 42.0847C122.596 45.6385 125.503 48.5305 129.074 48.5305C129.262 48.5305 129.438 48.5232 129.626 48.5086C129.964 48.4793 130.276 48.4245 130.563 48.3514C132.404 47.8614 133.241 46.5781 133.241 46.5781V48.3002H135.553V42.0811C135.553 38.5273 132.646 35.6353 129.074 35.6353V35.6389ZM129.074 46.0041C126.906 46.0041 125.135 44.2455 125.135 42.0847C125.135 39.9239 126.903 38.1653 129.074 38.1653C131.242 38.1653 133.013 39.9239 133.013 42.0847C133.013 44.2419 131.246 46.0041 129.074 46.0041Z" fill="#53E0CC"/>
</svg>
