<svg width="201" height="70" viewBox="0 0 201 70" fill="none" xmlns="http://www.w3.org/2000/svg">
<path d="M21.715 42.3644V27.7593H25.1019L28.8517 33.7003L32.6014 27.7593H35.9883V42.3644H32.6014V34.0716L30.0613 38.0942H27.7025L25.1624 34.0716V42.3644H21.715ZM64.3535 27.7593V42.3644H60.9666L54.8581 33.6384V42.3644H51.4712V27.7593H54.8581L60.9666 36.4852V27.7593H64.3535ZM37.6818 31.163V27.6974H49.7778V31.163H45.4232V42.3025H42.0363V31.163H37.6818ZM43.0645 53.5039C21.2917 53.5039 3.57097 45.2111 3.57097 35.0618C3.57097 24.9125 21.2917 16.5579 43.0645 16.5579C64.8374 16.5579 82.5581 24.8506 82.5581 34.9999C82.5581 45.1492 64.8978 53.5039 43.0645 53.5039ZM43.0645 13.0923C19.4168 13.0923 0.184082 22.9322 0.184082 34.9999C0.184082 47.0677 19.3563 56.9076 43.0645 56.9076C66.7727 56.9076 85.9449 47.0677 85.9449 34.9999C85.9449 22.9322 66.7727 13.0923 43.0645 13.0923Z" fill="#0F0F0F"/>
<path d="M107.504 35.0516C109.117 35.6262 110.046 36.8419 110.046 38.2785C110.046 41.2402 107.637 42.5 105.029 42.5H97.1381V27.9568H104.321C107.438 27.9568 109.604 29.2608 109.604 31.8026C109.604 33.3055 108.83 34.499 107.504 35.0516ZM104.078 30.8301H100.719V33.836H104.122C105.227 33.836 105.89 33.3055 105.89 32.3772C105.89 31.4711 105.227 30.8301 104.078 30.8301ZM104.41 39.6267C105.714 39.6267 106.333 38.9858 106.333 38.0354C106.333 37.1071 105.714 36.5324 104.476 36.5324H100.719V39.6267H104.41ZM119.169 32.2225L122.661 31.5153V42.5H119.302V41.1076C118.329 42.2127 116.87 42.8094 115.456 42.8094C113.224 42.8094 111.478 41.2844 111.478 38.2343V32.2225L114.97 31.5153V37.1513C114.97 38.9858 115.589 39.892 116.826 39.892C117.71 39.892 118.528 39.472 119.169 38.6984V32.2225ZM129.792 42.942C127.538 42.942 125.35 42.2127 124.09 41.4391L124.996 39.3615C126.234 40.0025 128.068 40.4887 129.704 40.4887C130.875 40.4887 131.693 40.2456 131.693 39.5825C131.693 38.9195 130.897 38.9195 129.24 38.6984C126.499 38.3227 124.421 37.5933 124.421 35.2726C124.421 32.8856 126.388 31.449 129.637 31.449C131.14 31.449 132.886 31.8247 134.08 32.333V34.9632C132.975 34.278 131.185 33.8581 129.682 33.8581C128.444 33.8581 127.626 34.1454 127.626 34.7864C127.626 35.3831 128.356 35.4715 129.814 35.6705C132.179 36.002 134.898 36.4882 134.898 39.2068C134.898 41.4833 132.997 42.942 129.792 42.942ZM138.116 30.587C136.967 30.587 136.083 29.7913 136.083 28.6641C136.083 27.5811 136.967 26.7191 138.116 26.7191C139.266 26.7191 140.172 27.5811 140.172 28.6641C140.172 29.7913 139.266 30.587 138.116 30.587ZM136.393 42.5V32.2225L139.885 31.5153V42.5H136.393ZM149.428 31.5374C151.682 31.5374 153.45 33.0624 153.45 36.1125V42.5H149.958V37.1955C149.958 35.4494 149.361 34.4548 148.057 34.4548C147.107 34.4548 146.289 34.9853 145.67 35.7147V42.5H142.178V32.2225L145.538 31.5153V33.2834C146.51 32.1562 147.991 31.5374 149.428 31.5374ZM165.286 39.251L166.479 40.9971C165.242 42.058 163.429 42.942 161.109 42.942C157.418 42.942 154.854 40.7981 154.854 37.4386C154.854 34.0349 157.55 31.449 161.131 31.449C164.247 31.449 166.369 33.3939 166.369 36.2451C166.369 37.0187 166.214 37.6596 166.015 38.1238H158.39C158.81 39.4941 160.003 40.2456 161.86 40.2456C163.098 40.2456 164.291 39.8256 165.286 39.251ZM161.109 33.8581C159.981 33.8581 158.788 34.4769 158.368 35.8031H163.319C163.186 34.6317 162.39 33.8581 161.109 33.8581ZM172.879 42.942C170.624 42.942 168.436 42.2127 167.176 41.4391L168.082 39.3615C169.32 40.0025 171.155 40.4887 172.79 40.4887C173.962 40.4887 174.779 40.2456 174.779 39.5825C174.779 38.9195 173.984 38.9195 172.326 38.6984C169.585 38.3227 167.508 37.5933 167.508 35.2726C167.508 32.8856 169.475 31.449 172.724 31.449C174.227 31.449 175.973 31.8247 177.166 32.333V34.9632C176.061 34.278 174.271 33.8581 172.768 33.8581C171.53 33.8581 170.713 34.1454 170.713 34.7864C170.713 35.3831 171.442 35.4715 172.901 35.6705C175.266 36.002 177.984 36.4882 177.984 39.2068C177.984 41.4833 176.083 42.942 172.879 42.942ZM184.319 42.942C182.065 42.942 179.877 42.2127 178.617 41.4391L179.523 39.3615C180.761 40.0025 182.595 40.4887 184.231 40.4887C185.402 40.4887 186.22 40.2456 186.22 39.5825C186.22 38.9195 185.424 38.9195 183.767 38.6984C181.026 38.3227 178.948 37.5933 178.948 35.2726C178.948 32.8856 180.916 31.449 184.165 31.449C185.667 31.449 187.414 31.8247 188.607 32.333V34.9632C187.502 34.278 185.712 33.8581 184.209 33.8581C182.971 33.8581 182.153 34.1454 182.153 34.7864C182.153 35.3831 182.883 35.4715 184.341 35.6705C186.706 36.002 189.425 36.4882 189.425 39.2068C189.425 41.4833 187.524 42.942 184.319 42.942Z" fill="black"/>
</svg>
