<svg width="201" height="70" viewBox="0 0 201 70" fill="none" xmlns="http://www.w3.org/2000/svg">
<g clip-path="url(#clip0_19341_5222)">
<path d="M18.9365 22.8262H10.2861V31.4853H18.9365V22.8262Z" fill="#00FFC0"/>
<path d="M121.17 27.1514H115.403V51.6783H121.17V27.1514Z" fill="white"/>
<path d="M121.17 17.0596H115.403V22.8265H121.17V17.0596Z" fill="white"/>
<path d="M31.9207 51.6786H37.6876V32.3944C37.7007 31.4386 37.5531 30.4875 37.2507 29.5808C37.0469 28.7766 36.5783 28.0645 35.9206 27.5589C35.2628 27.0532 34.4541 26.7837 33.6246 26.7935C32.4878 26.7824 31.3617 27.0144 30.3219 27.4741C29.2821 27.9337 28.3525 28.6103 27.5955 29.4585V17.0596H21.8198V51.6786H27.5955V31.4856H31.9644L31.9207 51.6786Z" fill="white"/>
<path d="M56.4399 40.1368V35.532C56.4821 33.9163 56.2091 32.3076 55.636 30.7962C55.1517 29.5607 54.2733 28.5196 53.137 27.8341C51.785 27.0926 50.2565 26.7331 48.7157 26.7943C47.155 26.7523 45.6074 27.0913 44.207 27.7817C43.016 28.43 42.0614 29.4396 41.4809 30.6651C40.8439 32.1385 40.5453 33.7359 40.6071 35.3398V43.5446C40.555 45.1337 40.8533 46.7147 41.4809 48.1756C42.0447 49.4099 42.9874 50.4323 44.1721 51.094C45.5756 51.8158 47.138 52.1734 48.7157 52.1338C49.747 52.2026 50.7818 52.0657 51.7598 51.7312C52.7377 51.3967 53.6396 50.8713 54.4128 50.1853C55.7409 48.8921 56.3962 46.996 56.3962 44.5145V43.0203H50.673V47.3892H46.3478V40.1368H56.4399ZM50.673 37.2796H46.3478V31.5127H50.673V37.2796Z" fill="white"/>
<path d="M69.4251 31.486V51.679H75.192V32.3948C75.2051 31.439 75.0574 30.4879 74.7551 29.5812C74.4984 28.8032 74.0366 28.1089 73.4182 27.5715C72.7696 27.0462 71.9545 26.7704 71.1202 26.7939C69.9731 26.7873 68.841 27.0538 67.8173 27.5715C66.8221 28.1346 65.9153 28.8412 65.1261 29.6686V27.1346H59.3242V51.679H65.0911V31.486H69.4251Z" fill="white"/>
<path d="M93.0151 30.5332C92.4201 29.3467 91.4659 28.3777 90.2889 27.7634C88.9424 27.1361 87.4755 26.811 85.9902 26.811C84.5049 26.811 83.0376 27.1361 81.6912 27.7634C80.5147 28.3723 79.5651 29.3434 78.9825 30.5332C78.3413 31.9529 78.0421 33.5031 78.1087 35.0594V43.8583C78.0441 45.4144 78.3433 46.9642 78.9825 48.3845C79.5679 49.5694 80.5129 50.5389 81.6825 51.1543C83.0289 51.7816 84.4961 52.1067 85.9815 52.1067C87.4668 52.1067 88.9337 51.7816 90.2802 51.1543C91.4537 50.5347 92.4061 49.5671 93.0064 48.3845C93.6678 46.9699 93.985 45.419 93.9326 43.8583V35.0594C93.9903 33.4993 93.6757 31.9479 93.0151 30.5332ZM88.1744 47.3534H83.8058V31.4856H88.1744V47.3534Z" fill="white"/>
<path d="M0.187191 40.4768C0.155129 42.5113 0.435076 44.5387 1.01728 46.4884C1.52029 48.144 2.55529 49.5875 3.96191 50.5951C5.6973 51.7017 7.73462 52.2392 9.79004 52.133C11.7429 52.2481 13.6853 51.7731 15.3647 50.7699C16.6883 49.8747 17.6682 48.5559 18.1434 47.0301C18.702 45.2528 18.9705 43.3969 18.9385 41.5341V38.738H13.1716V47.3796H5.95412V22.8266H10.2794V17.0159H9.79004C7.73835 16.8993 5.70132 17.4246 3.96191 18.5188C2.55374 19.5288 1.51858 20.9755 1.01728 22.6343C0.431039 24.5801 0.150995 26.6052 0.187191 28.6371V40.4768Z" fill="white"/>
<path d="M113.173 45.2912C113.223 43.93 112.768 42.5984 111.897 41.5514C111.243 40.7861 110.517 40.084 109.73 39.4543L109.617 39.367L109.468 39.2446L108.699 38.6505L105.99 36.6233C105.08 35.9941 104.204 35.3144 103.369 34.5874C103.111 34.3993 102.895 34.159 102.736 33.882C102.576 33.605 102.476 33.2976 102.443 32.9797V31.4855H107.022V34.369H113.138C113.172 33.0067 112.784 31.6671 112.028 30.5331C111.239 29.3155 110.113 28.3533 108.787 27.7632C107.488 27.1054 106.048 26.7783 104.592 26.8108C103.179 26.7958 101.777 27.0755 100.477 27.6321C99.2842 28.1254 98.2392 28.9204 97.4449 29.9389C96.6821 30.9929 96.2828 32.2671 96.3099 33.5681C96.337 34.8693 96.7878 36.126 97.5935 37.1476C98.2488 37.9129 98.974 38.615 99.7604 39.2446L99.8828 39.332L100.031 39.4543C100.285 39.6553 100.538 39.8563 100.8 40.0485L103.5 42.0757C104.413 42.7026 105.289 43.3824 106.122 44.1116C106.379 44.3005 106.595 44.541 106.754 44.8178C106.914 45.0946 107.014 45.4017 107.048 45.7193V47.3533H102.46V44.4611H96.344C96.3326 45.8519 96.7206 47.2168 97.4624 48.3931C98.2497 49.6127 99.3768 50.5755 100.704 51.1629C102.003 51.8207 103.443 52.1479 104.898 52.1154C106.313 52.1304 107.714 51.8507 109.014 51.294C110.207 50.8008 111.252 50.0059 112.046 48.9872C112.804 47.9058 113.199 46.6115 113.173 45.2912Z" fill="white"/>
<path d="M140.147 45.291C140.195 43.9315 139.744 42.6015 138.88 41.5512C138.227 40.788 137.504 40.086 136.722 39.4541L136.6 39.3668L136.451 39.2444C136.198 39.0435 135.944 38.8425 135.682 38.6503L133 36.6231C132.108 35.9932 131.254 35.3135 130.44 34.5872C130.181 34.3991 129.965 34.1588 129.806 33.8818C129.646 33.6048 129.546 33.2974 129.513 32.9795V31.4853H134.066V34.3688H140.182C140.215 33.0065 139.828 31.6669 139.072 30.5329C138.293 29.3161 137.175 28.3535 135.857 27.763C134.564 27.0985 133.125 26.7652 131.672 26.7931C130.266 26.7799 128.874 27.0597 127.582 27.6145C126.397 28.1082 125.36 28.9034 124.576 29.9212C123.82 30.9775 123.425 32.2499 123.45 33.5488C123.475 34.8478 123.919 36.1038 124.716 37.1299C125.371 37.8931 126.093 38.595 126.874 39.227L126.988 39.3143L127.145 39.4367L127.906 40.0308L130.597 42.058C131.488 42.6936 132.343 43.3791 133.157 44.1114C133.412 44.3018 133.625 44.5429 133.783 44.8196C133.942 45.0962 134.04 45.4025 134.074 45.7191V47.3531H129.513V44.4609H123.397C123.383 45.8534 123.768 47.2209 124.507 48.4016C125.286 49.6183 126.404 50.5811 127.722 51.1715C129.026 51.8407 130.477 52.1712 131.942 52.1326C133.351 52.1468 134.746 51.867 136.04 51.3113C137.226 50.8176 138.262 50.0224 139.046 49.0045C139.797 47.914 140.182 46.614 140.147 45.291Z" fill="white"/>
</g>
<defs>
<clipPath id="clip0_19341_5222">
<rect width="200" height="70" fill="white" transform="translate(0.184082)"/>
</clipPath>
</defs>
</svg>
