<svg width="171" height="40" viewBox="0 0 171 40" fill="none" xmlns="http://www.w3.org/2000/svg">
<g clip-path="url(#clip0_17147_4585)">
<path d="M136.839 10.0006C136.839 4.30815 131.588 0.371338 124.465 0.371338C119.058 0.371338 114.274 2.60574 111.207 5.58495L114.066 10.0006C116.822 7.76616 119.837 6.32975 123.269 6.32975C126.96 6.32975 129.716 8.29816 129.716 11.0646C129.716 14.1502 126.492 16.225 121.917 16.225H117.446V21.7578H121.761C127.324 21.7578 130.496 23.5134 130.496 26.8118C130.496 30.1102 127.168 32.185 122.749 32.185C118.59 32.185 114.794 30.9614 111.519 28.7802V35.111C114.638 36.973 118.746 38.1434 123.217 38.1434C129.664 38.1434 134.551 35.8026 136.631 31.8658L136.891 30.4294L134.811 25.7478H137.619C137.099 22.1834 134.707 19.683 130.86 18.2466C134.551 16.6506 136.839 13.831 136.839 10.0006ZM147.601 14.1502C147.601 18.7786 146.249 21.2258 144.014 21.2258C141.518 21.2258 140.062 17.9274 140.062 12.9798C140.062 8.67056 141.414 5.95735 143.65 5.95735C146.145 5.95735 147.601 9.25576 147.601 14.1502ZM154.516 13.2458C154.516 5.26575 150.201 0.371338 143.962 0.371338C140.946 0.371338 138.346 1.54174 136.475 3.66975C137.983 5.42535 138.814 7.60656 138.814 10.107C138.814 13.4054 137.359 16.0122 134.915 17.9274C137.931 19.7894 139.646 22.5558 139.906 26.1202C140.27 26.2798 140.634 26.3862 140.998 26.4394L141.518 25.7478H146.093L145.365 26.6522C150.772 25.801 154.516 20.9598 154.516 13.2458Z" fill="#0F0F0F"/>
<path d="M93.3218 0.371338H91.866V38.0902H93.3218V0.371338Z" fill="#0F0F0F"/>
<path d="M93.3218 0.371338H91.866V38.0902H93.3218V0.371338Z" fill="#0F0F0F"/>
<path d="M18.2459 25.535V12.9798H21.1574L24.3809 18.087L27.6044 12.9798H30.5159V25.535H27.6044V18.4062L25.4207 21.8642H23.3931L21.2094 18.4062V25.535H18.2459ZM54.9 12.9798V25.535H51.9884L46.7373 18.0338V25.535H43.8258V12.9798H46.7373L51.9884 20.481V12.9798H54.9ZM31.9717 15.9058V12.9266H42.37V15.9058H38.6266V25.4818H35.7151V15.9058H31.9717ZM36.5989 35.111C17.882 35.111 2.64842 27.9822 2.64842 19.2574C2.64842 10.5326 17.882 3.35055 36.5989 3.35055C55.3159 3.35055 70.5494 10.4794 70.5494 19.2042C70.5494 27.929 55.3679 35.111 36.5989 35.111ZM36.5989 0.371338C16.2702 0.371338 -0.263107 8.83016 -0.263107 19.2042C-0.263107 29.5782 16.2182 38.037 36.5989 38.037C56.9796 38.037 73.461 29.5782 73.461 19.2042C73.461 8.83016 56.9796 0.371338 36.5989 0.371338Z" fill="#0F0F0F"/>
<path d="M163.822 34.7386C165.486 34.7386 166.63 33.9406 166.63 32.6638C166.63 31.653 165.954 31.1742 164.29 30.9082C163.614 30.8018 163.198 30.7486 163.198 30.4294C163.198 30.1102 163.77 29.8974 164.446 29.8974C165.226 29.8974 166.058 30.1634 166.578 30.5358L166.734 29.1526C166.162 28.8866 165.278 28.6206 164.394 28.6206C162.731 28.6206 161.535 29.4186 161.535 30.6954C161.535 31.7062 162.315 32.185 163.718 32.451C164.394 32.5574 164.966 32.6106 164.966 32.9298C164.966 33.249 164.446 33.4086 163.718 33.4086C162.887 33.4086 162.003 33.1426 161.431 32.8234L160.859 33.8874C161.639 34.3662 162.731 34.7386 163.822 34.7386ZM160.599 28.6737C159.975 28.6737 159.247 29.0994 158.675 29.9506L158.883 28.6737L157.115 29.0462L156.18 34.4726H157.947L158.519 31.3338C158.883 30.7486 159.455 30.3762 160.235 30.3762C160.495 30.3762 160.755 30.4294 161.015 30.5358L161.223 28.7802C161.015 28.727 160.755 28.6737 160.599 28.6737ZM152.02 33.1958C151.396 33.1958 151.032 32.7702 151.032 32.0254C151.032 30.7486 151.916 30.057 152.8 30.057C153.112 30.057 153.424 30.1634 153.632 30.323L153.216 32.6638C152.904 33.0894 152.436 33.1958 152.02 33.1958ZM154.412 28.9929C153.944 28.8333 153.424 28.6737 152.852 28.6737C150.98 28.6737 149.213 30.2166 149.213 32.2914C149.213 33.781 150.149 34.6854 151.292 34.6854C152.02 34.6854 152.644 34.313 153.164 33.781L153.06 34.5258H154.776L155.764 28.7269L154.412 28.9929ZM145.989 29.8442C146.613 29.8442 147.029 30.2166 147.029 30.8018V30.9614H144.481C144.741 30.2698 145.313 29.8442 145.989 29.8442ZM148.537 30.8018C148.537 29.525 147.549 28.6206 146.093 28.6206C144.118 28.6206 142.506 30.1634 142.506 32.0786C142.506 33.6746 143.65 34.7386 145.365 34.7386C146.457 34.7386 147.445 34.313 148.173 33.781L147.653 32.8234C147.081 33.1426 146.353 33.3554 145.677 33.3554C144.741 33.3554 144.326 32.9298 144.222 32.185H148.121C148.381 31.8126 148.537 31.3338 148.537 30.8018ZM142.038 26.7585L139.646 29.9506L138.398 26.7585H136.423L138.502 31.4402L137.983 34.4726H139.802L140.322 31.4402L144.014 26.7585H142.038Z" fill="#0F0F0F"/>
</g>
<defs>
<clipPath id="clip0_17147_4585">
<rect width="171" height="40" fill="white"/>
</clipPath>
</defs>
</svg>
