<svg width="377" height="305" viewBox="0 0 377 305" fill="none" xmlns="http://www.w3.org/2000/svg">
<path d="M205.108 280.423L203.725 278.297C202.764 276.841 179.859 241.763 167.962 229.866C156.066 217.97 145.189 215.116 143.893 214.825L117.347 208.651C117.099 206.397 116.968 204.132 116.954 201.865C116.852 195.36 117.917 188.889 120.099 182.761C121.493 183.121 122.927 183.302 124.366 183.299C125.023 183.3 125.679 183.266 126.332 183.197C151.93 180.853 152.222 145.338 152.222 143.882V139.033C152.223 138.971 152.21 138.909 152.184 138.853C152.159 138.796 152.121 138.746 152.074 138.705C152.026 138.665 151.971 138.636 151.911 138.619C151.851 138.603 151.788 138.6 151.727 138.611L146.951 139.441C145.655 139.659 119.415 144.435 111.829 159.827C105.13 154.745 95.8112 152.954 94.2095 152.677L89.4043 151.832C89.3453 151.824 89.2853 151.828 89.2282 151.845C89.1711 151.862 89.1181 151.89 89.0727 151.929C89.0273 151.967 88.9906 152.015 88.9649 152.068C88.9393 152.122 88.9252 152.181 88.9238 152.24V157.118C88.9238 176.557 100.049 182.761 106.616 183.328C107.096 183.328 107.562 183.401 108.072 183.401C108.899 183.405 109.723 183.322 110.533 183.154C108.802 189.273 107.949 195.608 107.999 201.967C107.999 203.525 108.086 205.068 108.188 206.597C103.616 205.549 99.7574 204.646 97.5149 204.151C90.4964 202.564 85.7494 202.098 82.1819 204.399C80.9762 205.28 79.9657 206.401 79.2139 207.692C78.4622 208.982 77.9854 210.414 77.8135 211.898C75.6439 222.396 88.618 227.915 90.0595 228.498L103.747 234.089C103.834 234.123 103.906 234.186 103.952 234.268C103.998 234.349 104.014 234.443 103.999 234.535C103.984 234.627 103.937 234.711 103.868 234.773C103.798 234.835 103.709 234.871 103.616 234.875C91.0206 235.283 75.1779 229.968 62.8445 223.11C48.3705 215.101 38.6582 212.917 30.3873 215.829C28.9619 216.252 27.6842 217.068 26.7005 218.183C25.7169 219.298 25.0669 220.667 24.8249 222.134C23.9367 228.425 31.5522 235.327 38.1048 240.016C61.6796 257.489 101.33 270.216 147.315 275.269C147.529 275.293 147.733 275.373 147.906 275.501C148.08 275.629 148.217 275.799 148.305 275.997L160.26 303.969C160.355 304.199 160.52 304.394 160.731 304.527C160.943 304.66 161.19 304.725 161.439 304.711L164.089 304.595C171.808 304.294 179.363 302.278 186.206 298.694C193.049 295.11 199.009 290.048 203.652 283.874L205.108 281.763C205.24 281.564 205.311 281.331 205.311 281.093C205.311 280.855 205.24 280.622 205.108 280.423ZM142.786 149.619C141.694 158.123 137.995 173.034 125.531 174.184C124.664 174.352 123.771 174.339 122.909 174.146C122.048 173.953 121.235 173.584 120.522 173.063C119.41 171.8 118.804 170.172 118.818 168.491C118.789 157.919 134.122 152.065 142.757 149.619H142.786ZM109.295 173.966C108.731 174.242 108.092 174.329 107.475 174.213C101.927 173.703 99.6263 167.762 98.6507 162.986C104.024 164.865 109.805 168.112 109.805 172.393C109.797 172.961 109.609 173.512 109.266 173.966H109.295ZM192.557 281.457C185.931 288.265 177.216 292.659 167.802 293.936C167.537 293.971 167.267 293.92 167.033 293.788C166.799 293.657 166.614 293.453 166.506 293.208C164.701 288.956 156.663 270.172 155.061 266.401C154.975 266.2 154.836 266.026 154.659 265.898C154.482 265.77 154.274 265.692 154.056 265.673L151.814 265.454C106.004 260.853 66.6741 248.563 43.8857 231.701C41.7827 230.187 39.7923 228.523 37.9301 226.721C37.7467 226.549 37.621 226.324 37.5702 226.077C37.5195 225.83 37.5461 225.574 37.6464 225.343C37.7468 225.112 37.916 224.918 38.131 224.786C38.3459 224.655 38.5961 224.593 38.8474 224.61C42.7353 224.916 48.5307 226.663 57.7771 231.818C77.0563 242.491 105.116 250.238 122.677 239.317L129.215 234.948C129.344 234.868 129.448 234.753 129.516 234.616C129.583 234.479 129.61 234.326 129.595 234.175C129.58 234.023 129.523 233.879 129.43 233.758C129.337 233.638 129.212 233.545 129.069 233.492L93.7144 219.062C90.7148 217.824 87.2783 215.189 87.555 213.849C87.6569 213.383 87.7297 213.063 87.8025 212.83C90.3044 212.868 92.7908 213.23 95.1997 213.907C104.461 215.989 141.17 224.624 141.65 224.741C141.738 224.741 150.489 226.794 160.769 237.06C169.71 246.015 186.31 270.551 192.658 280.016C192.795 280.236 192.858 280.494 192.84 280.753C192.821 281.011 192.722 281.258 192.557 281.457Z" fill="#202020"/>
<path d="M358.182 207.945C355.022 218.357 345.586 228.127 331.491 236.602V183.381C331.487 182.317 331.062 181.299 330.309 180.548C329.555 179.798 328.535 179.376 327.472 179.376H296.995C295.932 179.376 294.912 179.798 294.159 180.548C293.405 181.299 292.98 182.317 292.976 183.381V198.83H266.955C265.891 198.834 264.871 199.259 264.118 200.011C263.365 200.764 262.94 201.784 262.936 202.849V221.866H236.886C235.821 221.87 234.801 222.295 234.049 223.047C233.296 223.8 232.871 224.82 232.867 225.885V264.924C226.46 265.594 219.917 266.113 213.239 266.482C213.061 266.497 212.896 266.579 212.777 266.711C212.657 266.844 212.594 267.017 212.598 267.195L213.02 275.088C213.024 275.179 213.046 275.268 213.085 275.351C213.123 275.434 213.178 275.508 213.246 275.569C213.314 275.63 213.393 275.677 213.48 275.706C213.566 275.736 213.657 275.749 213.748 275.743C251.957 273.661 288.011 266.263 315.43 254.877C344.232 242.907 362.128 227.458 367.166 210.173L367.719 208.135C367.738 208.074 367.741 208.009 367.73 207.947C367.719 207.884 367.693 207.825 367.655 207.774C367.617 207.723 367.567 207.681 367.51 207.653C367.453 207.625 367.39 207.61 367.326 207.611H358.589C358.493 207.609 358.399 207.642 358.324 207.703C358.249 207.765 358.199 207.85 358.182 207.945ZM262.66 260.555C255.864 261.866 248.841 262.987 241.589 263.919V230.428H262.66V260.555ZM292.787 253.187C286.118 255.226 279.094 257.07 271.717 258.721V207.48H292.787V253.187ZM322.827 241.393C315.997 244.781 308.96 247.733 301.757 250.231V188.026H322.827V241.393Z" fill="#202020"/>
<path d="M373.496 116.064C378.87 107.502 377.312 96.8137 370.031 92.256C367.83 90.9704 365.337 90.2689 362.788 90.2179C360.24 90.167 357.72 90.7682 355.47 91.9647C353.391 90.7064 351.185 89.6716 348.888 88.8777C356.999 82.1504 362.328 70.8363 362.328 58.0515C362.328 37.4472 348.524 20.6872 331.545 20.6872C314.567 20.6872 300.777 37.4472 300.777 58.0369C300.592 68.6194 304.529 78.8592 311.757 86.5916H273.489C280.717 78.8592 284.654 68.6194 284.469 58.0369C284.469 37.4327 270.665 20.6726 253.701 20.6726C236.737 20.6726 222.918 37.4472 222.918 58.0369C222.918 71.3896 228.743 83.0969 237.479 89.7077C233.411 91.4053 229.712 93.8781 226.588 96.9884C223.268 100.337 217.967 105.725 215.303 118.83C214.691 121.83 214.298 125.135 214.138 126.65C214.126 126.76 214.136 126.872 214.169 126.979C214.202 127.085 214.256 127.183 214.328 127.268C214.401 127.352 214.49 127.421 214.589 127.47C214.689 127.519 214.798 127.547 214.909 127.553C255.113 129.97 291.953 138.226 318.746 150.851C344.636 163.024 358.993 178.197 359.241 193.632C359.245 193.745 359.292 193.852 359.374 193.931C359.455 194.01 359.564 194.054 359.678 194.054H368.269C368.35 194.057 368.43 194.037 368.5 193.995C368.569 193.954 368.626 193.893 368.662 193.821C369.245 192.598 371.822 186.686 374.356 174.076V173.989C377.257 155.116 376.704 135.874 372.725 117.199C373.001 116.85 373.307 116.471 373.496 116.064ZM354.916 104.415C355.703 103.015 356.817 101.826 358.164 100.951C359.511 100.076 361.049 99.5408 362.648 99.391C363.524 99.3795 364.386 99.6114 365.138 100.061C368.051 101.896 368.313 106.977 365.692 111.171C363.071 115.365 358.411 117.345 355.499 115.539C352.586 113.734 352.353 108.608 354.975 104.429L354.916 104.415ZM309.995 58.0369C309.995 42.5146 319.663 29.8899 331.545 29.8899C343.427 29.8899 353.111 42.5291 353.111 58.0369C353.111 73.5447 343.442 86.1693 331.56 86.1693C319.678 86.1693 309.995 73.5593 309.995 58.0369ZM232.15 58.0369C232.15 42.5146 241.819 29.8899 253.701 29.8899C265.583 29.8899 275.251 42.5146 275.251 58.0369C275.251 73.5593 265.583 86.1693 253.701 86.1693C241.819 86.1693 232.15 73.5593 232.15 58.0369ZM232.834 103.25C238.004 98.0513 245.022 95.4158 253.701 95.4158H299.074C298.477 95.94 297.851 96.4642 297.283 97.0466C286.536 107.88 284.687 123.796 284.367 129.46C264.766 124.438 244.766 121.13 224.593 119.573C227.199 109.38 230.796 105.288 232.834 103.264V103.25ZM353.111 163.271V133.406C353.107 133.177 353.013 132.959 352.85 132.798C352.686 132.637 352.466 132.547 352.237 132.547H345.16C344.931 132.547 344.711 132.637 344.547 132.798C344.384 132.959 344.29 133.177 344.287 133.406V155.801C331.545 146.351 314.115 138.197 293.162 131.921V131.513C293.162 131.338 293.162 113.792 303.588 103.264C308.684 98.1387 315.586 95.5031 324.119 95.4449H334.851C339.439 95.36 343.992 96.2587 348.204 98.0805C347.854 98.5464 347.519 99.027 347.199 99.5366C341.826 108.113 343.384 118.787 350.664 123.359C352.852 124.709 355.374 125.42 357.945 125.412C360.255 125.404 362.538 124.908 364.643 123.956C367.569 140.539 367.687 157.497 364.993 174.12C364.789 175.212 364.483 176.58 364.104 178.109C361.31 172.575 357.592 167.557 353.111 163.271Z" fill="#202020"/>
<path d="M193.345 117.738C182.962 117.738 172.799 118.117 162.941 118.801C170.978 115.321 176.788 108.608 177.793 100.425C177.872 99.6567 177.741 98.8817 177.415 98.1822L155.893 51.3677C157.091 50.9032 158.12 50.0871 158.845 49.0267C159.57 47.9663 159.957 46.7113 159.956 45.4266V38.2625C159.955 37.3776 159.77 36.5025 159.414 35.6923C159.058 34.8822 158.538 34.1546 157.887 33.5554C157.236 32.9562 156.467 32.4984 155.631 32.2109C154.794 31.9233 153.906 31.8122 153.024 31.8847L105.147 35.8307C107.233 31.8429 108.298 27.4005 108.248 22.9003C108.248 10.2029 100.473 0.257507 90.5418 0.257507C80.611 0.257507 72.8353 10.2029 72.8353 22.9003C72.7853 27.4005 73.8509 31.8429 75.9369 35.8307L28.0593 31.8847C27.175 31.81 26.2848 31.9199 25.4452 32.2074C24.6056 32.4949 23.8348 32.9536 23.1818 33.5546C22.5288 34.1556 22.0078 34.8857 21.6517 35.6986C21.2957 36.5116 21.1125 37.3896 21.1136 38.277V45.4412C21.1109 46.8944 21.6067 48.3044 22.5184 49.436C23.43 50.5676 24.7023 51.3523 26.1227 51.6589L0.39285 108.273C0.0637929 108.972 -0.0623451 109.749 0.028818 110.516C1.77617 124.553 15.5803 135.139 32.0637 135.139C48.5471 135.139 62.3657 124.553 64.0985 110.516C64.1775 109.748 64.0467 108.973 63.7199 108.273L38.9657 53.814L68.7436 58.692L61.6814 142.07C32.9228 155.423 15.4201 173.304 14.9978 193.253V193.996C15.0784 197.099 15.568 200.179 16.454 203.155C16.5003 203.31 16.5774 203.455 16.6808 203.58C16.7842 203.705 16.9117 203.808 17.0557 203.883C17.1998 203.957 17.3574 204.002 17.5192 204.015C17.681 204.027 17.8436 204.007 17.9975 203.955L24.5209 201.83C24.8079 201.727 25.0461 201.52 25.1888 201.251C25.3316 200.982 25.3686 200.669 25.2927 200.373C24.6709 198.189 24.338 195.932 24.3025 193.661C24.8413 157.534 102.031 127.086 193.345 127.086H197.713C197.995 127.086 198.265 126.974 198.465 126.775C198.664 126.576 198.776 126.305 198.776 126.023V118.495C198.772 118.311 198.697 118.135 198.567 118.005C198.437 117.875 198.261 117.8 198.077 117.796L193.345 117.738ZM112.311 58.6774L144.069 53.4645L123.523 98.1822C123.177 98.9326 123.051 99.7657 123.159 100.585C124.499 110.457 132.842 118.306 143.72 120.65C134.794 121.728 126.246 123.067 117.917 124.684L112.311 58.6774ZM150.462 112.627C142.497 112.627 135.624 108.739 132.988 103.148C138.276 105.27 143.919 106.372 149.617 106.395C156.126 106.351 162.55 104.917 168.459 102.187C166.057 108.302 158.893 112.642 150.462 112.642V112.627ZM165.766 93.7847C160.985 96.1815 155.732 97.4862 150.386 97.6046C145.039 97.7229 139.734 96.6519 134.852 94.4691L150.462 60.483L165.766 93.7847ZM90.5418 8.99429C95.4053 8.99429 99.5116 15.3721 99.5116 22.9003C99.5116 30.4285 95.4053 36.7918 90.5418 36.7918C85.6784 36.7918 81.5721 30.4285 81.5721 22.9003C81.5721 15.3721 85.6784 9.00882 90.5418 9.00882V8.99429ZM32.0782 126.475C21.8853 126.475 13.1486 121.335 9.9305 113.967C16.5153 118.271 24.2116 120.563 32.0782 120.563C39.9449 120.563 47.6411 118.271 54.226 113.967C50.9642 121.262 42.242 126.475 32.0782 126.475ZM52.4641 104.633C39.1113 114.141 25.0014 114.141 11.6924 104.633L32.0782 59.7841L52.4641 104.633ZM29.8504 43.4754V40.8253L90.1633 45.8052H90.5273L151.204 40.7962V43.4754L103.632 51.2803C103.437 51.3125 103.261 51.4175 103.139 51.5741C103.018 51.7307 102.96 51.9274 102.977 52.1248L109.297 126.475C104.356 127.572 99.5601 128.771 94.9102 130.071V90.2609C94.9103 90.1089 94.8509 89.9629 94.7448 89.8541C94.6387 89.7453 94.4943 89.6823 94.3423 89.6785H86.7414C86.5894 89.6823 86.445 89.7453 86.3389 89.8541C86.2328 89.9629 86.1734 90.1089 86.1734 90.2609V132.663C80.8052 134.362 75.6845 136.182 70.8113 138.124L78.0919 52.0957C78.1093 51.8983 78.0514 51.7016 77.9299 51.545C77.8084 51.3884 77.6322 51.2834 77.4367 51.2512L29.8504 43.4754Z" fill="#202020"/>
</svg>
