<svg width="181" height="41" viewBox="0 0 181 41" fill="none" xmlns="http://www.w3.org/2000/svg">
<g clip-path="url(#clip0_16706_20123)">
<g clip-path="url(#clip1_16706_20123)">
<path d="M40.0586 0C17.9349 0 0 8.96817 0 20.0293C0 31.0904 17.9349 40.0586 40.0586 40.0586C62.1822 40.0586 80.1171 31.0904 80.1171 20.0293C80.1171 8.96817 62.1836 0 40.0586 0ZM40.0586 36.8972C19.6802 36.8972 3.16133 29.3451 3.16133 20.0307C3.16133 10.7163 19.6816 3.16274 40.0586 3.16274C60.4355 3.16274 76.9558 10.7149 76.9558 20.0293C76.9558 29.3437 60.4369 36.8958 40.0586 36.8958V36.8972ZM35.0064 16.5161V13.3533H46.3077V16.5161H42.2377V26.7067H39.075V16.5161H35.005H35.0064ZM59.9494 13.3533V26.7067H56.7866L51.0504 18.7574V26.7067H47.8877V13.3533H51.0504L56.7866 21.3026V13.3533H59.9494ZM20.0745 26.7067V13.3533H23.2372L26.7505 18.7574L30.2637 13.3533H33.4264V26.7067H30.2637V19.1531L27.8655 22.8401H25.6354L23.2372 19.1531V26.7067H20.0745Z" fill="#FFCB05"/>
</g>
</g>
<rect x="104.117" y="0.0292969" width="3" height="40" fill="#FFCB05"/>
<path d="M149.69 15.2337C149.69 18.5772 150.631 21.3038 152.26 23.1974C153.891 25.0932 156.202 26.1403 158.909 26.1403C161.633 26.1403 163.992 25.0686 165.667 23.0888C167.34 21.1114 168.319 18.2419 168.319 14.6606C168.319 11.3016 167.387 8.57497 165.765 6.6851C164.142 4.79282 161.839 3.7539 159.132 3.7539C156.408 3.7539 154.042 4.82554 152.359 6.80511C150.678 8.78241 149.69 11.652 149.69 15.2337ZM162.043 15.4247C162.043 17.338 161.758 18.7773 161.252 19.7317C160.751 20.6767 160.041 21.138 159.164 21.138C158.19 21.138 157.396 20.5183 156.836 19.3519C156.275 18.1831 155.966 16.4933 155.966 14.4377C155.966 12.6537 156.251 11.2207 156.758 10.2406C157.263 9.26555 157.975 8.75617 158.845 8.75617C159.82 8.75617 160.613 9.37602 161.174 10.5385C161.735 11.7034 162.043 13.3852 162.043 15.4247Z" fill="#FFCB05" stroke="#0F0F0F" stroke-width="0.353768"/>
<path d="M148.596 18.3842C152.219 19.7427 154.211 22.2785 154.211 25.7652C154.211 31.3802 149.094 34.8217 141.487 34.8217C137.593 34.8217 134.106 33.916 131.434 32.4217V26.2633C134.242 28.0293 137.366 28.935 140.989 28.935C144.294 28.935 146.694 27.5312 146.694 25.3124C146.694 23.0483 144.34 21.9162 139.947 21.9162H136.325V16.4371H139.947C143.615 16.4371 146.06 14.988 146.06 12.7692C146.06 10.8673 144.068 9.50888 141.26 9.50888C138.589 9.50888 136.144 10.5504 133.97 12.2711L131.117 7.87872C133.744 5.3882 137.91 3.5769 142.574 3.5769C148.823 3.5769 153.396 6.83722 153.396 11.6824C153.396 14.8069 151.539 17.071 148.596 18.3842Z" fill="#FFCB05"/>
<path d="M153.464 20.7383C152.719 19.7675 151.743 18.9602 150.57 18.3153C152.839 16.8257 154.28 14.5978 154.28 11.6824C154.28 8.95 152.979 6.67058 150.853 5.10118C148.744 3.54427 145.843 2.69249 142.574 2.69249C137.691 2.69249 133.305 4.58505 130.509 7.23696L129.975 7.74331L130.375 8.36044L133.228 12.7528L133.757 13.5674L134.519 12.9645C136.575 11.3367 138.832 10.3933 141.26 10.3933C142.532 10.3933 143.547 10.7024 144.216 11.1572C144.871 11.6026 145.176 12.1648 145.176 12.7692C145.176 13.4987 144.793 14.1574 143.925 14.6761C143.036 15.2081 141.68 15.5526 139.947 15.5526H136.325H135.44V16.4371V21.9162V22.8006H136.325H139.947C142.094 22.8006 143.618 23.0816 144.574 23.5571C145.041 23.7893 145.342 24.0529 145.527 24.3247C145.708 24.5898 145.81 24.9082 145.81 25.3124C145.81 26.0517 145.428 26.7002 144.615 27.2041C143.781 27.721 142.531 28.0505 140.989 28.0505C137.526 28.0505 134.566 27.1882 131.905 25.5147L130.55 24.6621V26.2633V32.4217V32.9404L131.002 33.1936C133.822 34.7706 137.461 35.7061 141.487 35.7061C145.41 35.7061 148.787 34.8205 151.209 33.1234C153.66 31.4064 155.096 28.8794 155.096 25.7652C155.096 23.8438 154.543 22.145 153.464 20.7383Z" stroke="#202020" stroke-width="1.76884"/>
<mask id="path-6-outside-1_16706_20123" maskUnits="userSpaceOnUse" x="149.719" y="24.4817" width="32" height="11" fill="black">
<rect fill="white" x="149.719" y="24.4817" width="32" height="11"/>
<path d="M156.923 26.0328H159.097L155.497 30.5949L154.976 33.4817H152.95L153.47 30.5949L151.455 26.0328H153.629L154.749 28.9874L156.923 26.0328ZM160.458 32.2251C161.103 32.2251 161.828 32.0327 162.337 31.761L162.892 32.8025C162.179 33.3232 161.16 33.7307 160.073 33.7307C158.33 33.7307 157.141 32.7006 157.141 31.127C157.141 29.2931 158.783 27.7761 160.752 27.7761C162.247 27.7761 163.243 28.6478 163.243 29.8931C163.243 30.4478 163.05 30.9346 162.858 31.2855H159.1C159.213 31.8968 159.62 32.2251 160.458 32.2251ZM160.617 29.0893C160.017 29.0893 159.518 29.4402 159.269 30.0063H161.556V29.9157C161.556 29.4176 161.183 29.0893 160.617 29.0893ZM168.755 28.1271L170.022 27.8327L169.038 33.4817H167.17L167.294 32.7798C166.807 33.3345 166.219 33.6741 165.517 33.6741C164.373 33.6741 163.434 32.8025 163.434 31.3421C163.434 29.3384 165.223 27.8214 167.113 27.8214C167.724 27.8214 168.302 27.9686 168.755 28.1271ZM166.355 32.1232C166.683 32.1232 167.09 32.0213 167.407 31.6478L167.792 29.5082C167.588 29.3497 167.317 29.2818 167.068 29.2818C166.332 29.2818 165.506 29.8818 165.506 31.0704C165.506 31.7723 165.777 32.1232 166.355 32.1232ZM174.529 27.8441C174.71 27.8441 174.948 27.8667 175.152 27.9233L174.903 29.8025C174.654 29.7006 174.348 29.6553 174.11 29.6553C173.386 29.6553 172.899 29.961 172.548 30.4025L172.005 33.4817H170.058L170.986 28.2176L172.922 27.8327L172.718 28.9874C173.261 28.2289 173.929 27.8441 174.529 27.8441ZM177.398 33.7307C176.3 33.7307 175.19 33.4138 174.454 32.9609L175.066 31.8176C175.654 32.1345 176.526 32.3496 177.319 32.3496C177.998 32.3496 178.439 32.1911 178.439 31.9647C178.439 31.7044 177.907 31.693 177.262 31.5912C175.858 31.3647 175.077 30.878 175.077 29.8478C175.077 28.5799 176.266 27.7988 177.975 27.7988C178.903 27.7988 179.775 28.0365 180.33 28.2742L180.137 29.7346C179.651 29.4063 178.802 29.1346 178.02 29.1346C177.398 29.1346 176.877 29.2818 176.877 29.5535C176.877 29.7912 177.285 29.8251 177.885 29.9157C179.594 30.21 180.239 30.6968 180.239 31.6704C180.239 32.9383 179.13 33.7307 177.398 33.7307Z"/>
</mask>
<path d="M156.923 26.0328H159.097L155.497 30.5949L154.976 33.4817H152.95L153.47 30.5949L151.455 26.0328H153.629L154.749 28.9874L156.923 26.0328ZM160.458 32.2251C161.103 32.2251 161.828 32.0327 162.337 31.761L162.892 32.8025C162.179 33.3232 161.16 33.7307 160.073 33.7307C158.33 33.7307 157.141 32.7006 157.141 31.127C157.141 29.2931 158.783 27.7761 160.752 27.7761C162.247 27.7761 163.243 28.6478 163.243 29.8931C163.243 30.4478 163.05 30.9346 162.858 31.2855H159.1C159.213 31.8968 159.62 32.2251 160.458 32.2251ZM160.617 29.0893C160.017 29.0893 159.518 29.4402 159.269 30.0063H161.556V29.9157C161.556 29.4176 161.183 29.0893 160.617 29.0893ZM168.755 28.1271L170.022 27.8327L169.038 33.4817H167.17L167.294 32.7798C166.807 33.3345 166.219 33.6741 165.517 33.6741C164.373 33.6741 163.434 32.8025 163.434 31.3421C163.434 29.3384 165.223 27.8214 167.113 27.8214C167.724 27.8214 168.302 27.9686 168.755 28.1271ZM166.355 32.1232C166.683 32.1232 167.09 32.0213 167.407 31.6478L167.792 29.5082C167.588 29.3497 167.317 29.2818 167.068 29.2818C166.332 29.2818 165.506 29.8818 165.506 31.0704C165.506 31.7723 165.777 32.1232 166.355 32.1232ZM174.529 27.8441C174.71 27.8441 174.948 27.8667 175.152 27.9233L174.903 29.8025C174.654 29.7006 174.348 29.6553 174.11 29.6553C173.386 29.6553 172.899 29.961 172.548 30.4025L172.005 33.4817H170.058L170.986 28.2176L172.922 27.8327L172.718 28.9874C173.261 28.2289 173.929 27.8441 174.529 27.8441ZM177.398 33.7307C176.3 33.7307 175.19 33.4138 174.454 32.9609L175.066 31.8176C175.654 32.1345 176.526 32.3496 177.319 32.3496C177.998 32.3496 178.439 32.1911 178.439 31.9647C178.439 31.7044 177.907 31.693 177.262 31.5912C175.858 31.3647 175.077 30.878 175.077 29.8478C175.077 28.5799 176.266 27.7988 177.975 27.7988C178.903 27.7988 179.775 28.0365 180.33 28.2742L180.137 29.7346C179.651 29.4063 178.802 29.1346 178.02 29.1346C177.398 29.1346 176.877 29.2818 176.877 29.5535C176.877 29.7912 177.285 29.8251 177.885 29.9157C179.594 30.21 180.239 30.6968 180.239 31.6704C180.239 32.9383 179.13 33.7307 177.398 33.7307Z" fill="#FFCB05"/>
<path d="M156.923 26.0328V24.9715H156.386L156.068 25.4039L156.923 26.0328ZM159.097 26.0328L159.93 26.6902L161.286 24.9715H159.097V26.0328ZM155.497 30.5949L154.663 29.9375L154.499 30.1456L154.452 30.4065L155.497 30.5949ZM154.976 33.4817V34.543H155.863L156.02 33.6701L154.976 33.4817ZM152.95 33.4817L151.905 33.2933L151.68 34.543H152.95V33.4817ZM153.47 30.5949L154.515 30.7834L154.572 30.4635L154.441 30.1661L153.47 30.5949ZM151.455 26.0328V24.9715H149.826L150.484 26.4616L151.455 26.0328ZM153.629 26.0328L154.621 25.6564L154.361 24.9715H153.629V26.0328ZM154.749 28.9874L153.757 29.3638L154.449 31.1872L155.604 29.6163L154.749 28.9874ZM156.923 27.0941H159.097V24.9715H156.923V27.0941ZM158.263 25.3753L154.663 29.9375L156.33 31.2524L159.93 26.6902L158.263 25.3753ZM154.452 30.4065L153.931 33.2933L156.02 33.6701L156.541 30.7834L154.452 30.4065ZM154.976 32.4204H152.95V34.543H154.976V32.4204ZM153.994 33.6701L154.515 30.7834L152.426 30.4065L151.905 33.2933L153.994 33.6701ZM154.441 30.1661L152.426 25.604L150.484 26.4616L152.499 31.0237L154.441 30.1661ZM151.455 27.0941H153.629V24.9715H151.455V27.0941ZM152.636 26.4092L153.757 29.3638L155.742 28.611L154.621 25.6564L152.636 26.4092ZM155.604 29.6163L157.778 26.6617L156.068 25.4039L153.895 28.3585L155.604 29.6163ZM162.337 31.761L163.274 31.2621L162.775 30.3248L161.838 30.8245L162.337 31.761ZM162.892 32.8025L163.518 33.6596L164.262 33.1165L163.829 32.3035L162.892 32.8025ZM162.858 31.2855V32.3468H163.486L163.789 31.7958L162.858 31.2855ZM159.1 31.2855V30.2242H157.824L158.056 31.4788L159.1 31.2855ZM159.269 30.0063L158.298 29.5788L157.643 31.0676H159.269V30.0063ZM161.556 30.0063V31.0676H162.617V30.0063H161.556ZM160.458 33.2864C161.28 33.2864 162.176 33.0497 162.837 32.6974L161.838 30.8245C161.479 31.0156 160.926 31.1638 160.458 31.1638V33.2864ZM161.401 32.2599L161.955 33.3014L163.829 32.3035L163.274 31.2621L161.401 32.2599ZM162.266 31.9453C161.71 32.3511 160.907 32.6694 160.073 32.6694V34.792C161.413 34.792 162.647 34.2953 163.518 33.6596L162.266 31.9453ZM160.073 32.6694C159.407 32.6694 158.94 32.4739 158.655 32.223C158.383 31.983 158.202 31.6291 158.202 31.127H156.08C156.08 32.1985 156.493 33.1464 157.251 33.815C157.997 34.4725 158.996 34.792 160.073 34.792V32.6694ZM158.202 31.127C158.202 29.9538 159.291 28.8374 160.752 28.8374V26.7148C158.274 26.7148 156.08 28.6323 156.08 31.127H158.202ZM160.752 28.8374C161.297 28.8374 161.659 28.9953 161.867 29.1734C162.063 29.3409 162.182 29.5733 162.182 29.8931H164.304C164.304 28.9676 163.925 28.1415 163.249 27.5618C162.585 26.9928 161.702 26.7148 160.752 26.7148V28.8374ZM162.182 29.8931C162.182 30.2067 162.07 30.5146 161.927 30.7752L163.789 31.7958C164.031 31.3546 164.304 30.6888 164.304 29.8931H162.182ZM162.858 30.2242H159.1V32.3468H162.858V30.2242ZM158.056 31.4788C158.15 31.9855 158.394 32.492 158.888 32.8467C159.356 33.1826 159.916 33.2864 160.458 33.2864V31.1638C160.162 31.1638 160.1 31.1035 160.126 31.1224C160.142 31.1338 160.155 31.1501 160.162 31.1607C160.165 31.1673 160.154 31.1506 160.143 31.0922L158.056 31.4788ZM160.617 28.028C159.556 28.028 158.7 28.6652 158.298 29.5788L160.241 30.4337C160.337 30.2153 160.477 30.1506 160.617 30.1506V28.028ZM159.269 31.0676H161.556V28.945H159.269V31.0676ZM162.617 30.0063V29.9157H160.495V30.0063H162.617ZM162.617 29.9157C162.617 29.3842 162.409 28.8791 161.999 28.5187C161.603 28.1697 161.1 28.028 160.617 28.028V30.1506C160.699 30.1506 160.666 30.1731 160.598 30.1127C160.564 30.0831 160.535 30.0437 160.516 29.9999C160.497 29.9568 160.495 29.9252 160.495 29.9157H162.617ZM168.755 28.1271L168.404 29.1288L168.695 29.2305L168.995 29.1609L168.755 28.1271ZM170.022 27.8327L171.068 28.015L171.343 26.4366L169.782 26.7989L170.022 27.8327ZM169.038 33.4817V34.543H169.93L170.083 33.664L169.038 33.4817ZM167.17 33.4817L166.125 33.2963L165.903 34.543H167.17V33.4817ZM167.294 32.7798L168.339 32.9652L169.003 29.2235L166.496 32.0798L167.294 32.7798ZM167.407 31.6478L168.217 32.3344L168.401 32.1167L168.452 31.8357L167.407 31.6478ZM167.792 29.5082L168.837 29.6961L168.95 29.0644L168.444 28.6704L167.792 29.5082ZM168.995 29.1609L170.262 28.8665L169.782 26.7989L168.515 27.0933L168.995 29.1609ZM168.977 27.6504L167.992 33.2994L170.083 33.664L171.068 28.015L168.977 27.6504ZM169.038 32.4204H167.17V34.543H169.038V32.4204ZM168.215 33.6671L168.339 32.9652L166.249 32.5944L166.125 33.2963L168.215 33.6671ZM166.496 32.0798C166.151 32.4736 165.832 32.6128 165.517 32.6128V34.7354C166.605 34.7354 167.464 34.1955 168.092 33.4798L166.496 32.0798ZM165.517 32.6128C165.222 32.6128 164.986 32.5048 164.819 32.3274C164.651 32.1503 164.495 31.8401 164.495 31.3421H162.373C162.373 32.3045 162.686 33.1602 163.275 33.7841C163.863 34.4077 164.668 34.7354 165.517 34.7354V32.6128ZM164.495 31.3421C164.495 30.0047 165.725 28.8827 167.113 28.8827V26.7601C164.72 26.7601 162.373 28.672 162.373 31.3421H164.495ZM167.113 28.8827C167.562 28.8827 168.015 28.9926 168.404 29.1288L169.105 27.1253C168.589 26.9446 167.886 26.7601 167.113 26.7601V28.8827ZM166.355 33.1845C166.9 33.1845 167.644 33.0093 168.217 32.3344L166.598 30.9611C166.559 31.0073 166.525 31.0268 166.495 31.0386C166.459 31.0528 166.412 31.0619 166.355 31.0619V33.1845ZM168.452 31.8357L168.837 29.6961L166.748 29.3203L166.363 31.4599L168.452 31.8357ZM168.444 28.6704C168.006 28.3298 167.484 28.2205 167.068 28.2205V30.3431C167.099 30.3431 167.127 30.3476 167.146 30.3533C167.166 30.3591 167.16 30.3612 167.141 30.3459L168.444 28.6704ZM167.068 28.2205C165.746 28.2205 164.444 29.2956 164.444 31.0704H166.567C166.567 30.7362 166.676 30.5658 166.761 30.4808C166.86 30.3819 166.98 30.3431 167.068 30.3431V28.2205ZM164.444 31.0704C164.444 31.5275 164.527 32.0752 164.884 32.5222C165.279 33.0171 165.84 33.1845 166.355 33.1845V31.0619C166.315 31.0619 166.333 31.0557 166.382 31.0759C166.407 31.0862 166.436 31.1019 166.467 31.1244C166.497 31.1471 166.523 31.1725 166.543 31.1978C166.584 31.2488 166.589 31.2814 166.584 31.2619C166.578 31.2403 166.567 31.1812 166.567 31.0704H164.444ZM175.152 27.9233L176.204 28.0627L176.325 27.1477L175.436 26.9007L175.152 27.9233ZM174.903 29.8025L174.501 30.7848L175.774 31.3057L175.955 29.9419L174.903 29.8025ZM172.548 30.4025L171.717 29.7421L171.55 29.9529L171.503 30.2181L172.548 30.4025ZM172.005 33.4817V34.543H172.895L173.05 33.6661L172.005 33.4817ZM170.058 33.4817L169.013 33.2974L168.793 34.543H170.058V33.4817ZM170.986 28.2176L170.779 27.1767L170.067 27.3183L169.941 28.0333L170.986 28.2176ZM172.922 27.8327L173.967 28.0172L174.237 26.4892L172.715 26.7918L172.922 27.8327ZM172.718 28.9874L171.673 28.803L173.581 29.6055L172.718 28.9874ZM174.529 28.9054C174.578 28.9054 174.641 28.9085 174.707 28.9164C174.775 28.9244 174.83 28.9353 174.868 28.9459L175.436 26.9007C175.117 26.8121 174.78 26.7827 174.529 26.7827V28.9054ZM174.1 27.7839L173.851 29.6631L175.955 29.9419L176.204 28.0627L174.1 27.7839ZM175.305 28.8202C174.902 28.6555 174.455 28.594 174.11 28.594V30.7166C174.166 30.7166 174.24 30.7223 174.319 30.7361C174.399 30.7501 174.462 30.7688 174.501 30.7848L175.305 28.8202ZM174.11 28.594C173.024 28.594 172.245 29.0789 171.717 29.7421L173.379 31.0629C173.554 30.8431 173.748 30.7166 174.11 30.7166V28.594ZM171.503 30.2181L170.96 33.2973L173.05 33.6661L173.593 30.5869L171.503 30.2181ZM172.005 32.4204H170.058V34.543H172.005V32.4204ZM171.103 33.666L172.031 28.4019L169.941 28.0333L169.013 33.2974L171.103 33.666ZM171.193 29.2586L173.129 28.8737L172.715 26.7918L170.779 27.1767L171.193 29.2586ZM171.877 27.6483L171.673 28.803L173.763 29.1719L173.967 28.0172L171.877 27.6483ZM173.581 29.6055C174.002 29.017 174.386 28.9054 174.529 28.9054V26.7827C173.473 26.7827 172.52 27.4409 171.855 28.3693L173.581 29.6055ZM174.454 32.9609L173.518 32.4605L173.048 33.3413L173.898 33.8648L174.454 32.9609ZM175.066 31.8176L175.569 30.8831L174.632 30.3785L174.13 31.3172L175.066 31.8176ZM177.262 31.5912L177.093 32.6389L177.096 32.6395L177.262 31.5912ZM180.33 28.2742L181.382 28.4129L181.487 27.6155L180.748 27.2987L180.33 28.2742ZM180.137 29.7346L179.544 30.6145L180.966 31.5732L181.19 29.8732L180.137 29.7346ZM177.885 29.9157L178.065 28.8698L178.054 28.8679L178.043 28.8663L177.885 29.9157ZM177.398 32.6694C176.475 32.6694 175.562 32.3966 175.011 32.0571L173.898 33.8648C174.818 34.431 176.124 34.792 177.398 34.792V32.6694ZM175.39 33.4613L176.002 32.318L174.13 31.3172L173.518 32.4605L175.39 33.4613ZM174.563 32.752C175.321 33.1605 176.369 33.4109 177.319 33.4109V31.2883C176.683 31.2883 175.988 31.1086 175.569 30.8831L174.563 32.752ZM177.319 33.4109C177.723 33.4109 178.134 33.3657 178.482 33.2445C178.654 33.1849 178.874 33.0853 179.069 32.9101C179.276 32.7239 179.501 32.4043 179.501 31.9647H177.378C177.378 31.6384 177.547 31.4234 177.651 31.3307C177.742 31.2489 177.809 31.2314 177.785 31.2397C177.743 31.2543 177.593 31.2883 177.319 31.2883V33.4109ZM179.501 31.9647C179.501 31.4495 179.201 31.1018 178.927 30.923C178.703 30.7757 178.462 30.7139 178.326 30.6831C178.075 30.6267 177.643 30.5769 177.427 30.5428L177.096 32.6395C177.271 32.6671 177.445 32.6895 177.573 32.7072C177.714 32.7268 177.801 32.7408 177.859 32.7539C177.886 32.7599 177.891 32.7622 177.88 32.7586C177.872 32.7557 177.826 32.7391 177.765 32.6987C177.701 32.6573 177.6 32.5764 177.514 32.4385C177.422 32.2909 177.378 32.1245 177.378 31.9647H179.501ZM177.431 30.5434C176.785 30.4393 176.444 30.2956 176.281 30.1726C176.212 30.1211 176.187 30.082 176.174 30.0556C176.16 30.028 176.138 29.9684 176.138 29.8478H174.016C174.016 30.6852 174.359 31.3832 175.005 31.8691C175.583 32.3037 176.335 32.5166 177.093 32.6389L177.431 30.5434ZM176.138 29.8478C176.138 29.5929 176.238 29.3941 176.489 29.2203C176.772 29.0242 177.266 28.8601 177.975 28.8601V26.7375C176.975 26.7375 176.019 26.9639 175.281 27.4753C174.51 28.0091 174.016 28.8348 174.016 29.8478H176.138ZM177.975 28.8601C178.739 28.8601 179.468 29.0597 179.912 29.2497L180.748 27.2987C180.082 27.0133 179.068 26.7375 177.975 26.7375V28.8601ZM179.278 28.1356L179.085 29.5959L181.19 29.8732L181.382 28.4129L179.278 28.1356ZM180.731 28.8547C180.056 28.3994 178.997 28.0733 178.02 28.0733V30.1959C178.606 30.1959 179.246 30.4132 179.544 30.6145L180.731 28.8547ZM178.02 28.0733C177.644 28.0733 177.231 28.1157 176.873 28.2374C176.698 28.2971 176.468 28.3985 176.263 28.5799C176.043 28.7754 175.816 29.1048 175.816 29.5535H177.938C177.938 29.8663 177.776 30.0754 177.673 30.1669C177.586 30.2443 177.525 30.2579 177.557 30.2469C177.615 30.2271 177.774 30.1959 178.02 30.1959V28.0733ZM175.816 29.5535C175.816 29.9786 176.024 30.3158 176.287 30.5267C176.502 30.6985 176.736 30.7744 176.87 30.8118C177.13 30.8846 177.488 30.9292 177.726 30.9651L178.043 28.8663C177.872 28.8406 177.761 28.8254 177.642 28.8064C177.528 28.7881 177.47 28.7755 177.442 28.7678C177.398 28.7556 177.493 28.7728 177.613 28.8686C177.683 28.9245 177.771 29.0145 177.839 29.1467C177.909 29.283 177.938 29.4249 177.938 29.5535H175.816ZM177.704 30.9616C178.525 31.1029 178.903 31.2657 179.068 31.3885C179.131 31.4356 179.145 31.4641 179.15 31.4752C179.157 31.4915 179.178 31.5444 179.178 31.6704H181.301C181.301 30.8953 181.016 30.1949 180.338 29.6881C179.753 29.2506 178.953 29.0228 178.065 28.8698L177.704 30.9616ZM179.178 31.6704C179.178 31.9541 179.072 32.1529 178.847 32.3156C178.588 32.5027 178.118 32.6694 177.398 32.6694V34.792C178.41 34.792 179.361 34.5625 180.089 34.0365C180.852 33.4859 181.301 32.6546 181.301 31.6704H179.178Z" fill="#202020" mask="url(#path-6-outside-1_16706_20123)"/>
<defs>
<clipPath id="clip0_16706_20123">
<rect width="80.1171" height="40.0586" fill="white"/>
</clipPath>
<clipPath id="clip1_16706_20123">
<rect width="80.1171" height="40.0586" fill="white"/>
</clipPath>
</defs>
</svg>
