<svg width="50" height="50" viewBox="0 0 50 50" fill="none" xmlns="http://www.w3.org/2000/svg">
<g clip-path="url(#clip0_19436_5162)">
<path d="M44.9388 42.9727H6.01184C4.68318 42.9709 3.40948 42.4423 2.46997 41.5028C1.53046 40.5633 1.00184 39.2895 1 37.9609V11.5461C1.00183 10.2168 1.53024 8.94242 2.46955 8.00181C3.40885 7.0612 4.68254 6.53102 6.01184 6.52734H44.9388C46.2693 6.52918 47.5448 7.05854 48.4856 7.99935C49.4264 8.94016 49.9558 10.2156 49.9576 11.5461V37.9609C49.9558 39.2907 49.4262 40.5655 48.4852 41.5052C47.5442 42.4449 46.2687 42.9727 44.9388 42.9727V42.9727ZM6.01184 7.91064C5.0507 7.91248 4.12955 8.29557 3.45056 8.97585C2.77158 9.65614 2.39025 10.578 2.39025 11.5392V37.9539C2.39209 38.9138 2.77424 39.834 3.45303 40.5128C4.13181 41.1915 5.0519 41.5737 6.01184 41.5755H44.9388C45.9 41.5755 46.8219 41.1942 47.5021 40.5152C48.1824 39.8362 48.5655 38.9151 48.5674 37.9539V11.5392C48.5674 10.5768 48.1851 9.65392 47.5046 8.97343C46.8241 8.29295 45.9012 7.91064 44.9388 7.91064H6.01184Z" fill="#202020"/>
<path d="M49.9578 16.2523H1.021V11.5602C1.02283 10.2309 1.55123 8.95642 2.49054 8.01581C3.42985 7.0752 4.70354 6.54506 6.03284 6.54138H44.9598C46.2903 6.54322 47.5658 7.07254 48.5066 8.01335C49.4474 8.95415 49.9768 10.2297 49.9786 11.5602L49.9578 16.2523ZM2.41125 14.862H48.5675V11.5602C48.5675 10.5978 48.1852 9.67487 47.5047 8.99439C46.8243 8.3139 45.9013 7.93163 44.939 7.93163H6.01199C5.05084 7.93347 4.12969 8.31656 3.45071 8.99685C2.77173 9.67713 2.39039 10.599 2.39039 11.5602L2.41125 14.862Z" fill="#202020"/>
<path d="M6.84585 12.5888C6.60496 12.5888 6.36948 12.5173 6.16928 12.3833C5.96909 12.2494 5.81318 12.0589 5.72132 11.8362C5.62945 11.6136 5.60578 11.3686 5.65329 11.1325C5.70079 10.8963 5.81734 10.6796 5.98816 10.5097C6.15898 10.3399 6.37639 10.2246 6.61282 10.1784C6.84924 10.1323 7.09404 10.1574 7.31619 10.2505C7.53835 10.3436 7.72785 10.5006 7.86068 10.7016C7.99351 10.9025 8.06369 11.1384 8.06231 11.3793C8.06232 11.5387 8.03079 11.6966 7.96957 11.8438C7.90835 11.991 7.81864 12.1247 7.70559 12.2371C7.59254 12.3495 7.45837 12.4384 7.31082 12.4987C7.16328 12.5591 7.00527 12.5897 6.84585 12.5888ZM6.84585 11.1986C6.82243 11.1986 6.79924 11.2033 6.77769 11.2124C6.75614 11.2216 6.73666 11.235 6.72043 11.2519C6.7042 11.2688 6.69156 11.2888 6.68324 11.3107C6.67493 11.3326 6.67113 11.3559 6.67206 11.3793C6.67206 11.5739 7.02656 11.5739 7.02656 11.3793C7.02656 11.3314 7.00753 11.2854 6.97364 11.2515C6.93974 11.2176 6.89378 11.1986 6.84585 11.1986V11.1986Z" fill="#202020"/>
<path d="M10.7879 12.5888C10.5467 12.5901 10.3105 12.5198 10.1094 12.3867C9.90832 12.2536 9.75132 12.0636 9.65839 11.8411C9.56545 11.6185 9.54077 11.3733 9.58749 11.1367C9.63421 10.9001 9.75021 10.6827 9.92075 10.5122C10.0913 10.3416 10.3087 10.2256 10.5453 10.1789C10.7819 10.1322 11.0271 10.1569 11.2497 10.2498C11.4722 10.3427 11.6621 10.4997 11.7953 10.7009C11.9284 10.902 11.9988 11.1381 11.9974 11.3793C11.9956 11.6995 11.8675 12.0061 11.6411 12.2325C11.4147 12.4589 11.1081 12.5869 10.7879 12.5888ZM10.7879 11.1985C10.7399 11.1985 10.694 11.2176 10.6601 11.2515C10.6262 11.2854 10.6071 11.3313 10.6071 11.3793C10.6071 11.5739 10.9616 11.5739 10.9616 11.3793C10.9626 11.3559 10.9588 11.3325 10.9505 11.3106C10.9421 11.2887 10.9295 11.2687 10.9133 11.2519C10.897 11.235 10.8776 11.2216 10.856 11.2124C10.8345 11.2032 10.8113 11.1985 10.7879 11.1985Z" fill="#202020"/>
<path d="M14.7283 12.5888C14.4871 12.5901 14.2509 12.5198 14.0498 12.3867C13.8487 12.2536 13.6917 12.0636 13.5988 11.8411C13.5059 11.6185 13.4812 11.3733 13.5279 11.1367C13.5746 10.9001 13.6906 10.6827 13.8612 10.5122C14.0317 10.3416 14.2491 10.2256 14.4857 10.1789C14.7223 10.1322 14.9675 10.1569 15.1901 10.2498C15.4126 10.3427 15.6026 10.4997 15.7357 10.7009C15.8688 10.902 15.9392 11.1381 15.9378 11.3793C15.9378 11.7 15.8104 12.0077 15.5835 12.2345C15.3567 12.4613 15.0491 12.5888 14.7283 12.5888ZM14.7283 11.1985C14.6804 11.1985 14.6344 11.2176 14.6005 11.2515C14.5666 11.2854 14.5475 11.3313 14.5475 11.3793C14.5475 11.5739 14.9021 11.5739 14.9021 11.3793C14.903 11.3559 14.8992 11.3325 14.8909 11.3106C14.8826 11.2887 14.8699 11.2687 14.8537 11.2519C14.8374 11.235 14.818 11.2216 14.7964 11.2124C14.7749 11.2032 14.7517 11.1985 14.7283 11.1985Z" fill="#202020"/>
<path d="M42.5752 38.2597H29.3678C28.7717 38.2579 28.2006 38.0198 27.7798 37.5977C27.3589 37.1755 27.1226 36.6037 27.1226 36.0075V21.8131C27.1226 21.217 27.3589 20.6452 27.7798 20.223C28.2006 19.8009 28.7717 19.5628 29.3678 19.5609H42.5752C43.1719 19.5627 43.7437 19.8006 44.1657 20.2226C44.5877 20.6446 44.8255 21.2164 44.8274 21.8131V36.0145C44.8237 36.6101 44.585 37.1801 44.1633 37.6005C43.7415 38.021 43.1707 38.2579 42.5752 38.2597V38.2597ZM29.3678 20.9442C29.255 20.9442 29.1432 20.9666 29.039 21.01C28.9348 21.0534 28.8403 21.1169 28.7608 21.1971C28.6813 21.2772 28.6185 21.3723 28.5759 21.4768C28.5333 21.5814 28.5119 21.6933 28.5128 21.8062V36.0075C28.5119 36.1204 28.5333 36.2324 28.5759 36.3369C28.6185 36.4414 28.6813 36.5365 28.7608 36.6166C28.8403 36.6968 28.9348 36.7604 29.039 36.8038C29.1432 36.8472 29.255 36.8695 29.3678 36.8695H42.5752C42.8038 36.8695 43.023 36.7787 43.1847 36.617C43.3463 36.4554 43.4371 36.2361 43.4371 36.0075V21.8131C43.4371 21.5845 43.3463 21.3653 43.1847 21.2036C43.023 21.042 42.8038 20.9512 42.5752 20.9512L29.3678 20.9442Z" fill="#202020"/>
<path d="M20.6506 25.6435H7.74211C7.18904 25.6435 6.65862 25.4238 6.26754 25.0327C5.87646 24.6417 5.65674 24.1112 5.65674 23.5582V22.4251C5.65674 21.872 5.87646 21.3416 6.26754 20.9505C6.65862 20.5594 7.18904 20.3397 7.74211 20.3397H20.6506C21.2037 20.3397 21.7341 20.5594 22.1252 20.9505C22.5163 21.3416 22.736 21.872 22.736 22.4251V23.5582C22.736 24.1112 22.5163 24.6417 22.1252 25.0327C21.7341 25.4238 21.2037 25.6435 20.6506 25.6435V25.6435ZM7.74211 21.6813C7.55775 21.6813 7.38096 21.7546 7.25059 21.8849C7.12023 22.0153 7.04699 22.1921 7.04699 22.3764V23.5095C7.04699 23.6938 7.12023 23.8706 7.25059 24.001C7.38096 24.1314 7.55775 24.2046 7.74211 24.2046H20.6506C20.8349 24.2046 21.0118 24.1314 21.1421 24.001C21.2725 23.8706 21.3457 23.6938 21.3457 23.5095V22.3764C21.3457 22.1921 21.2725 22.0153 21.1421 21.8849C21.0118 21.7546 20.8349 21.6813 20.6506 21.6813H7.74211Z" fill="#202020"/>
<path d="M22.0692 27.8331H6.33154V29.2234H22.0692V27.8331Z" fill="#202020"/>
<path d="M22.0692 31.6143H6.33154V33.0045H22.0692V31.6143Z" fill="#202020"/>
<path d="M22.0692 35.3959H6.33154V36.7861H22.0692V35.3959Z" fill="#202020"/>
</g>
<defs>
<clipPath id="clip0_19436_5162">
<rect width="50" height="50" fill="white"/>
</clipPath>
</defs>
</svg>
