<svg width="51" height="42" viewBox="0 0 51 42" fill="none" xmlns="http://www.w3.org/2000/svg">
<path d="M49.0426 3.39622L46.7572 2.20232C43.9456 0.75435 40.8343 -0.000341655 37.6782 5.80379e-05C34.5222 0.000457731 31.4111 0.755938 28.5998 2.20462L25.5 3.82405L22.3955 2.20232C19.5839 0.754332 16.4726 -0.000379565 13.3165 1.43207e-07C10.1605 0.000379852 7.04941 0.755841 4.23813 2.20451L1.95725 3.39611C1.36659 3.70315 0.87131 4.16889 0.525967 4.74203C0.180624 5.31517 -0.00137954 5.97347 7.87322e-06 6.64439V36.7306C-1.16968e-05 37.3577 0.159672 37.9744 0.463715 38.5212C0.767758 39.068 1.20594 39.5267 1.73616 39.8532C2.26638 40.1796 2.87082 40.3628 3.49139 40.3853C4.11196 40.4077 4.72781 40.2685 5.27976 39.9811C7.76857 38.699 10.5226 38.0303 13.3165 38.0299C16.1104 38.0295 18.8647 38.6974 21.3539 39.9788L24.9763 41.8715C24.9898 41.8785 25.004 41.883 25.0177 41.89C25.0358 41.8986 25.054 41.907 25.0725 41.9146C25.1007 41.9261 25.1295 41.9358 25.1578 41.945C25.1758 41.9508 25.1935 41.9565 25.2119 41.9617C25.2437 41.9701 25.2759 41.9762 25.3082 41.9817C25.3238 41.9844 25.339 41.9882 25.3547 41.9901C25.4508 42.0033 25.5481 42.0033 25.6441 41.9901C25.6598 41.988 25.6751 41.9844 25.6907 41.9817C25.7229 41.9762 25.755 41.9702 25.787 41.9617C25.8052 41.9569 25.823 41.9508 25.8411 41.945C25.8699 41.936 25.898 41.9261 25.9263 41.9146C25.9449 41.907 25.9631 41.8986 25.9812 41.89C25.9949 41.8835 26.0091 41.8785 26.0225 41.8715L29.6409 39.9811C32.1297 38.699 34.8838 38.0303 37.6777 38.0299C40.4716 38.0295 43.2258 38.6974 45.715 39.9788C46.267 40.2673 46.8832 40.4075 47.5043 40.3858C48.1254 40.3641 48.7305 40.1813 49.2614 39.8549C49.7924 39.5286 50.2312 39.0698 50.5357 38.5226C50.8401 37.9754 51 37.3583 51 36.7306V6.64439C51.0015 5.97344 50.8196 5.31509 50.4742 4.74194C50.1288 4.16879 49.6334 3.7031 49.0426 3.39622ZM13.3206 35.7319C10.1631 35.7302 7.05028 36.4858 4.23836 37.9364C4.03347 38.0434 3.80477 38.0954 3.57425 38.0873C3.34372 38.0792 3.11914 38.0114 2.9221 37.8903C2.72506 37.7691 2.5622 37.5989 2.44918 37.3958C2.33617 37.1927 2.2768 36.9636 2.27679 36.7307V6.64439C2.27623 6.39532 2.34378 6.15093 2.47199 5.93817C2.60021 5.72541 2.78412 5.55255 3.00343 5.43865L5.28021 4.24934C7.76902 2.96716 10.5231 2.2985 13.317 2.2981C16.1109 2.2977 18.8651 2.96557 21.3543 4.24704L24.3616 5.81818V38.9611L22.3955 37.934C19.5858 36.4847 16.4755 35.7299 13.3206 35.7319ZM48.7232 36.7307C48.7232 36.9641 48.6636 37.1936 48.5502 37.3969C48.4368 37.6003 48.2734 37.7707 48.0757 37.8917C47.8781 38.0126 47.6529 38.0801 47.4219 38.0876C47.1909 38.095 46.962 38.0421 46.7571 37.9341C43.9454 36.4862 40.8342 35.7315 37.6781 35.7319C34.5221 35.7323 31.411 36.4877 28.5997 37.9364L26.6384 38.9612V5.81818L29.6415 4.24934C32.1303 2.96719 34.8844 2.29855 37.6782 2.29815C40.4721 2.29775 43.2264 2.9656 45.7156 4.24704L47.9965 5.43865C48.2158 5.55255 48.3997 5.7254 48.5279 5.93816C48.6562 6.15092 48.7237 6.39531 48.7232 6.64439V36.7307Z" fill="#202020"/>
</svg>
