<svg width="50" height="50" viewBox="0 0 50 50" fill="none" xmlns="http://www.w3.org/2000/svg">
<g clip-path="url(#clip0_19436_5179)">
<path d="M2.50328 47.981C2.35791 47.9981 2.21123 47.9631 2.08927 47.8822C2.02035 47.7718 1.99195 47.6409 2.00893 47.5118C2.00893 47.1414 2.00893 46.771 2.00893 46.4129C1.97515 45.4912 2.03724 44.5684 2.19428 43.6595C2.45996 42.4702 3.12571 41.4079 4.08048 40.6496C5.03525 39.8913 6.22133 39.4828 7.44105 39.4923H7.50902C7.9837 39.5117 8.45655 39.5633 8.92425 39.6466C9.21471 39.696 9.54222 39.7454 9.8265 39.7763H9.94395C10.2045 39.7804 10.4582 39.693 10.6608 39.5293C11.7609 38.4806 13.2251 37.8986 14.7458 37.9057C15.4138 37.9125 16.0783 38.0038 16.7233 38.1773C16.8159 38.203 16.9116 38.2155 17.0077 38.2144C17.246 38.218 17.4787 38.142 17.6689 37.9983C18.7704 36.9426 20.2336 36.3464 21.76 36.3314C22.7595 36.3431 23.7468 36.553 24.6645 36.9488L25.3196 37.2142L25.468 36.7697C26.432 33.8373 28.8854 32.6087 31.3883 31.7259C33.0796 31.1635 34.8467 30.8616 36.629 30.8307C37.5054 30.8011 38.3759 30.6748 39.2245 30.4542C40.1425 30.2783 40.9719 29.7919 41.5729 29.0767C42.174 28.3616 42.5101 27.4614 42.5246 26.5277C42.6111 25.1634 42.6235 23.7805 42.6297 22.4346C42.6297 21.809 42.6297 21.1917 42.6297 20.5825V20.5023C42.6263 20.277 42.6428 20.0518 42.6791 19.8294C42.7631 19.3387 42.9805 18.8806 43.3074 18.505C43.6344 18.1294 44.0584 17.8507 44.5331 17.6995L44.8606 17.576L44.6505 16.119L28.6259 19.1564L28.8051 20.2368C28.8855 20.7245 28.972 21.2061 29.0462 21.6938C29.1203 22.1815 29.0461 22.2433 28.6197 22.3112L14.9127 24.546L10.4136 25.2868C10.3397 25.2946 10.2651 25.2946 10.1912 25.2868C10.1262 25.2941 10.0606 25.2822 10.0023 25.2526C9.94412 25.223 9.89587 25.1769 9.86361 25.1202C9.78945 25.009 9.75234 24.8917 9.98099 24.583L13.862 19.2923L14.8385 17.9711C14.9003 17.8785 14.9682 17.7859 15.0424 17.6871L15.4008 17.1747L14.443 16.508L13.1081 15.5943L12.1935 14.9769L7.83039 11.9889C7.44723 11.7296 7.39778 11.637 7.43486 11.4703C7.47194 11.3036 7.53992 11.211 8.05286 11.1308L22.1679 8.79713L22.8353 8.64897L22.6438 7.45129C22.5449 6.83393 22.4521 6.25361 22.3471 5.65477C22.2938 5.49443 22.2938 5.32121 22.3471 5.16088C22.4742 5.05104 22.6363 4.9898 22.8044 4.98802L35.0963 3.13594L38.5818 2.59882L39.8178 2.41362C40.7324 2.27163 41.6718 2.12965 42.5555 2H42.7224C42.8831 2 43.0499 1.99998 43.1179 2.44448L43.3342 3.74094C44.0511 8.1242 44.7659 12.5033 45.4786 16.8784C45.5021 17.0956 45.5899 17.301 45.7308 17.4681C45.8717 17.6353 46.0594 17.7567 46.2697 17.8168C46.7723 17.9971 47.2075 18.3269 47.5169 18.7618C47.8262 19.1966 47.9948 19.7157 48 20.2492C48 23.2187 48 25.7128 48 28.2749C47.9343 29.4796 47.5032 30.6359 46.764 31.5901C45.9733 32.7269 44.9879 33.7155 43.8533 34.5102C43.6824 34.6215 43.5443 34.7763 43.4531 34.9585C43.3619 35.1408 43.3208 35.344 43.3342 35.5474C43.3342 36.9673 43.3342 38.4119 43.3342 39.8072V40.4245C43.3342 40.8999 43.2724 40.9616 42.778 41.0048C40.8597 41.171 38.9714 41.5861 37.1604 42.2396C35.8565 42.6902 34.5463 43.2088 33.2856 43.7089L31.4316 44.425C31.2432 44.4933 31.0815 44.62 30.9703 44.7866C30.8591 44.9532 30.8042 45.151 30.8136 45.3511C30.8096 45.7045 30.7356 46.0537 30.5959 46.3784C30.4562 46.7032 30.2536 46.9971 29.9997 47.2433C29.7458 47.4895 29.4457 47.683 29.1166 47.8128C28.7874 47.9426 28.4358 48.0061 28.0821 47.9995H2.4848L2.50328 47.981ZM7.70063 40.1652C6.91907 40.1509 6.14525 40.322 5.44268 40.6643C4.74011 41.0067 4.12879 41.5105 3.65893 42.1346C2.60216 43.5175 2.65783 45.0609 2.70727 46.5611V47.2711H8.96136V46.8698C9.00462 46.2524 8.99844 45.6351 8.96136 45.0177C8.96136 43.6101 8.91806 42.2766 9.53606 41.0357L9.70293 40.6962L9.38774 40.4863H9.3507C9.27571 40.4231 9.18671 40.3786 9.09112 40.3566C8.63622 40.2412 8.16982 40.177 7.70063 40.1652ZM21.7168 37.0352C21.0545 37.0298 20.3978 37.1584 19.7866 37.4133C19.1754 37.6681 18.6222 38.0439 18.1602 38.5181C17.6983 38.9923 17.3372 39.5549 17.0987 40.1722C16.8603 40.7895 16.7494 41.4487 16.7728 42.1099C16.7728 43.3693 16.7728 44.6308 16.7728 45.8943V46.4006C16.7728 46.5055 16.7728 46.6105 16.7728 46.7216C16.7728 46.8327 16.7728 46.8142 16.7728 46.8574V47.2711H26.1601L25.7893 46.6167C25.4458 45.903 25.3129 45.1064 25.4062 44.3201C25.4062 44.1472 25.4062 43.9744 25.4062 43.8015C25.4062 42.0111 25.4062 40.511 25.4062 38.9799C25.4336 38.7581 25.3882 38.5335 25.2767 38.3397C25.1653 38.146 24.9938 37.9936 24.7882 37.9057L24.232 37.6711C23.7182 37.4228 23.1768 37.2363 22.619 37.1155C22.3206 37.0667 22.0191 37.0399 21.7168 37.0352ZM10.0181 47.2649H15.9632L16.0003 46.8759C16.0722 45.9703 16.0887 45.0611 16.0497 44.1534C16.0065 42.5112 15.9632 40.9554 16.6059 39.4676L16.7295 39.1774L16.4947 38.9675C16.428 38.8888 16.34 38.831 16.2413 38.8009C15.7577 38.6704 15.2591 38.604 14.7582 38.6033C13.5893 38.5363 12.4371 38.9043 11.524 39.6363C10.6109 40.3683 10.0018 41.4123 9.8142 42.5668C9.68388 43.5385 9.64247 44.52 9.69055 45.4992C9.69055 45.919 9.69055 46.345 9.69055 46.7648C9.68754 46.8389 9.70287 46.9126 9.73521 46.9794C9.76756 47.0462 9.81594 47.104 9.87598 47.1476L10.0181 47.2649ZM45.3056 18.2983C44.7717 18.3097 44.2641 18.5316 43.8936 18.9156C43.523 19.2997 43.3197 19.8146 43.328 20.3479C43.328 21.0085 43.328 21.6753 43.328 22.342C43.328 23.7496 43.328 25.2004 43.2291 26.6142C43.2223 27.4936 42.9592 28.3519 42.4719 29.0843C41.9846 29.8167 41.2943 30.3914 40.4852 30.7381C39.581 31.1134 38.628 31.3587 37.6548 31.4666C37.1728 31.5222 36.6784 31.5654 36.2025 31.6024C34.9074 31.6753 33.6234 31.8822 32.371 32.2198C30.5093 32.684 28.7929 33.6049 27.3775 34.8991C26.9686 35.2857 26.6469 35.7549 26.4337 36.2755C26.2206 36.796 26.121 37.356 26.1416 37.918C26.1416 39.5417 26.1416 41.1962 26.1416 42.7952V45.0486C26.1352 45.2553 26.1498 45.4621 26.1849 45.6659C26.2806 46.1156 26.5293 46.5182 26.8888 46.8052C27.2482 47.0922 27.6961 47.246 28.1562 47.2402H28.3478C28.8406 47.1923 29.2974 46.9615 29.6281 46.5935C29.9588 46.2254 30.1393 45.7468 30.1338 45.2523C30.1338 43.5278 30.1338 41.8054 30.1338 40.085V37.9983H30.8445V43.9558L31.4625 43.6595C34.8834 42.0227 38.5244 40.8914 42.2712 40.301L42.642 40.2393V38.4984C42.642 37.3562 42.642 36.1709 42.642 35.0103C42.6247 34.8587 42.6531 34.7055 42.7236 34.5702C42.7941 34.4349 42.9034 34.3237 43.0376 34.2509C44.1754 33.5097 45.175 32.5758 45.9915 31.4913C46.7466 30.6265 47.2113 29.5469 47.3202 28.4045C47.3697 25.7005 47.3511 22.947 47.3202 20.2924C47.3243 19.8994 47.2031 19.5154 46.9743 19.1957C46.7454 18.8761 46.4208 18.6375 46.0472 18.5144C45.8247 18.3963 45.5811 18.3229 45.3303 18.2983H45.3056ZM8.78212 11.7481L9.6164 12.3655L9.8142 12.5137L10.1046 12.7236L12.2182 14.1682L15.9262 16.724C16.2228 16.9278 16.2784 17.0389 16.2908 17.0883C16.3031 17.1377 16.2908 17.2673 16.0621 17.5637L13.5901 20.9591L11.9215 23.231L11.7238 23.5212L11.6002 23.7002L11.0378 24.5398L28.3417 21.6814L27.9276 19.3355L25.2641 19.8417C25.1745 19.8598 25.0835 19.8701 24.9921 19.8726C24.8252 19.8726 24.6769 19.8726 24.5966 19.3972C24.3494 17.9402 24.1063 16.4792 23.8674 15.014L23.5398 13.0508C23.4286 12.3593 22.9218 9.41449 22.9218 9.41449L8.78212 11.7481ZM23.0516 5.69799L25.2825 19.1132L44.564 15.4523L42.4752 2.73464L23.0516 5.69799Z" fill="black"/>
<path d="M35.9743 28.4601C34.8493 28.4584 33.7711 28.0108 32.9762 27.2156C32.1813 26.4204 31.7348 25.3426 31.7348 24.2188C31.7381 23.0954 32.1854 22.0188 32.9794 21.2233C33.7734 20.4278 34.8498 19.9778 35.9743 19.9713C36.5346 19.9681 37.09 20.0755 37.6087 20.2874C38.1273 20.4993 38.5988 20.8115 38.9963 21.2061C39.3891 21.5995 39.7005 22.0665 39.9126 22.5803C40.1246 23.094 40.2333 23.6445 40.2323 24.2003C40.2274 25.3259 39.7793 26.4045 38.9849 27.2027C38.1904 28.001 37.1134 28.4549 35.9866 28.4662L35.9743 28.4601ZM35.9743 20.6504C35.0386 20.6486 34.1395 21.0137 33.4704 21.6671C32.8013 22.3205 32.4155 23.2102 32.3961 24.1447C32.3828 25.089 32.7449 26 33.4029 26.6782C34.0608 27.3563 34.9611 27.7462 35.9063 27.7624H35.9557C36.8845 27.7611 37.7762 27.3979 38.441 26.7499C39.1058 26.1019 39.4912 25.2204 39.5154 24.2929C39.526 23.8204 39.4424 23.3506 39.2694 22.9107C39.0965 22.4709 38.8377 22.0698 38.508 21.7308C38.189 21.3951 37.8059 21.1266 37.3814 20.941C36.9568 20.7555 36.4994 20.6567 36.0361 20.6504H35.9743Z" fill="black"/>
<path d="M7.82427 37.0475C7.10909 37.0458 6.42382 36.7609 5.91868 36.2551C5.41355 35.7493 5.12982 35.064 5.12982 34.3496C5.13309 33.6368 5.41926 32.9544 5.92555 32.4521C6.43184 31.9498 7.11691 31.6686 7.83045 31.6702C8.54029 31.6751 9.21968 31.9589 9.72163 32.4604C10.2236 32.9618 10.5077 33.6405 10.5126 34.3496C10.5136 34.704 10.4442 35.0551 10.3084 35.3826C10.1726 35.71 9.97315 36.0073 9.72155 36.2572C9.4741 36.5088 9.17871 36.7083 8.85287 36.844C8.52703 36.9797 8.17729 37.0489 7.82427 37.0475ZM7.82427 32.3679C7.30334 32.3693 6.80369 32.5742 6.43189 32.9387C6.0601 33.3032 5.84563 33.7984 5.83434 34.3187C5.82749 34.5849 5.87495 34.8497 5.97375 35.0969C6.07256 35.3442 6.22068 35.5689 6.40911 35.7572C6.59265 35.9498 6.81298 36.1037 7.05713 36.2098C7.30128 36.3158 7.56424 36.3718 7.83045 36.3745C8.35722 36.3713 8.8615 36.1608 9.23399 35.7887C9.60648 35.4166 9.81721 34.9129 9.82045 34.3866C9.82054 33.8625 9.61464 33.3592 9.24712 32.9852C8.87959 32.6111 8.37979 32.3961 7.8552 32.3864L7.82427 32.3679Z" fill="black"/>
<path d="M21.8903 33.9236C21.1783 33.9204 20.4964 33.6364 19.993 33.1334C19.4895 32.6305 19.2053 31.9493 19.202 31.2381C19.2019 30.5306 19.4807 29.8515 19.9781 29.3478C20.4754 28.844 21.1513 28.5561 21.8594 28.5464C22.5708 28.5447 23.254 28.8242 23.7599 29.3238C24.2659 29.8235 24.5535 30.5027 24.56 31.2134C24.5625 31.5669 24.4952 31.9174 24.362 32.2449C24.2289 32.5724 24.0324 32.8705 23.7839 33.1221C23.5355 33.3738 23.2398 33.5741 22.9138 33.7116C22.5878 33.8491 22.2379 33.9212 21.8841 33.9236H21.8903ZM21.8903 29.244C21.3656 29.2456 20.8625 29.4528 20.4892 29.8211C20.1159 30.1894 19.9023 30.6893 19.8942 31.2134C19.8924 31.7387 20.0962 32.244 20.4623 32.6212C20.8283 32.9984 21.3275 33.2177 21.8532 33.2322C22.3738 33.2293 22.8731 33.0252 23.2464 32.6626C23.6196 32.3001 23.838 31.8073 23.8555 31.2875C23.8614 31.022 23.8141 30.758 23.7165 30.5109C23.6189 30.2639 23.4728 30.0389 23.2869 29.849C23.1038 29.6558 22.8836 29.5015 22.6393 29.3954C22.3951 29.2894 22.1319 29.2336 21.8656 29.2317L21.8903 29.244Z" fill="black"/>
<path d="M14.8573 35.4855C14.1443 35.4855 13.4605 35.2026 12.9564 34.699C12.4522 34.1953 12.169 33.5123 12.169 32.8C12.1673 32.092 12.4456 31.412 12.9432 30.9079C13.4409 30.4038 14.1177 30.1165 14.8264 30.1083C15.5384 30.1067 16.2223 30.3859 16.7292 30.8854C17.2361 31.3848 17.5251 32.0641 17.5332 32.7753C17.5365 33.4898 17.2559 34.1764 16.7531 34.6844C16.2503 35.1925 15.5663 35.4806 14.8511 35.4855H14.8573ZM14.8573 30.8059C14.3325 30.809 13.8297 31.0165 13.4558 31.3843C13.0818 31.7521 12.8662 32.2512 12.855 32.7753C12.8547 33.3002 13.0591 33.8045 13.4248 34.1814C13.7905 34.5583 14.2889 34.778 14.814 34.7941C15.3351 34.7927 15.8353 34.5891 16.2089 34.2263C16.5825 33.8634 16.8003 33.3697 16.8163 32.8494C16.8236 32.5837 16.777 32.3193 16.6793 32.0721C16.5816 31.8249 16.4348 31.6 16.2477 31.4109C16.0651 31.2172 15.8449 31.0625 15.6006 30.9564C15.3562 30.8502 15.0929 30.7949 14.8264 30.7936L14.8573 30.8059Z" fill="black"/>
<path d="M2.50328 47.981C2.35791 47.9981 2.21123 47.9631 2.08927 47.8822C2.02035 47.7718 1.99195 47.6409 2.00893 47.5118C2.00893 47.1414 2.00893 46.771 2.00893 46.4129C1.97515 45.4912 2.03724 44.5684 2.19428 43.6595C2.45996 42.4702 3.12571 41.4079 4.08048 40.6496C5.03525 39.8913 6.22133 39.4828 7.44105 39.4923H7.50902C7.9837 39.5117 8.45655 39.5633 8.92425 39.6466C9.21471 39.696 9.54222 39.7454 9.8265 39.7763H9.94395C10.2045 39.7804 10.4582 39.693 10.6608 39.5293C11.7609 38.4806 13.2251 37.8986 14.7458 37.9057C15.4138 37.9125 16.0783 38.0038 16.7233 38.1773C16.8159 38.203 16.9116 38.2155 17.0077 38.2144C17.246 38.218 17.4787 38.142 17.6689 37.9983C18.7704 36.9426 20.2336 36.3464 21.76 36.3314C22.7595 36.3431 23.7468 36.553 24.6645 36.9488L25.3196 37.2142L25.468 36.7697C26.432 33.8373 28.8854 32.6087 31.3883 31.7259C33.0796 31.1635 34.8467 30.8616 36.629 30.8307C37.5054 30.8011 38.3759 30.6748 39.2245 30.4542C40.1425 30.2783 40.9719 29.7919 41.5729 29.0767C42.174 28.3616 42.5101 27.4614 42.5246 26.5277C42.6111 25.1634 42.6235 23.7805 42.6297 22.4346C42.6297 21.809 42.6297 21.1917 42.6297 20.5825V20.5023C42.6263 20.277 42.6428 20.0518 42.6791 19.8294C42.7631 19.3387 42.9805 18.8806 43.3074 18.505C43.6344 18.1294 44.0584 17.8507 44.5331 17.6995L44.8606 17.576L44.6505 16.119L28.6259 19.1564L28.8051 20.2368C28.8855 20.7245 28.972 21.2061 29.0462 21.6938C29.1203 22.1815 29.0461 22.2433 28.6197 22.3112L14.9127 24.546L10.4136 25.2868C10.3397 25.2946 10.2651 25.2946 10.1912 25.2868C10.1262 25.2941 10.0606 25.2822 10.0023 25.2526C9.94412 25.223 9.89587 25.1769 9.86361 25.1202C9.78945 25.009 9.75234 24.8917 9.98099 24.583L13.862 19.2923L14.8385 17.9711C14.9003 17.8785 14.9682 17.7859 15.0424 17.6871L15.4008 17.1747L14.443 16.508L13.1081 15.5943L12.1935 14.9769L7.83039 11.9889C7.44723 11.7296 7.39778 11.637 7.43486 11.4703C7.47194 11.3036 7.53992 11.211 8.05286 11.1308L22.1679 8.79713L22.8353 8.64897L22.6438 7.45129C22.5449 6.83393 22.4521 6.25361 22.3471 5.65477C22.2938 5.49443 22.2938 5.32121 22.3471 5.16088C22.4742 5.05104 22.6363 4.9898 22.8044 4.98802L35.0963 3.13594L38.5818 2.59882L39.8178 2.41362C40.7324 2.27163 41.6718 2.12965 42.5555 2H42.7224C42.8831 2 43.0499 1.99998 43.1179 2.44448L43.3342 3.74094C44.0511 8.1242 44.7659 12.5033 45.4786 16.8784C45.5021 17.0956 45.5899 17.301 45.7308 17.4681C45.8717 17.6353 46.0594 17.7567 46.2697 17.8168C46.7723 17.9971 47.2075 18.3269 47.5169 18.7618C47.8262 19.1966 47.9948 19.7157 48 20.2492C48 23.2187 48 25.7128 48 28.2749C47.9343 29.4796 47.5032 30.6359 46.764 31.5901C45.9733 32.7269 44.9879 33.7155 43.8533 34.5102C43.6824 34.6215 43.5443 34.7763 43.4531 34.9585C43.3619 35.1408 43.3208 35.344 43.3342 35.5474C43.3342 36.9673 43.3342 38.4119 43.3342 39.8072V40.4245C43.3342 40.8999 43.2724 40.9616 42.778 41.0048C40.8597 41.171 38.9714 41.5861 37.1604 42.2396C35.8565 42.6902 34.5463 43.2088 33.2856 43.7089L31.4316 44.425C31.2432 44.4933 31.0815 44.62 30.9703 44.7866C30.8591 44.9532 30.8042 45.151 30.8136 45.3511C30.8096 45.7045 30.7356 46.0537 30.5959 46.3784C30.4562 46.7032 30.2536 46.9971 29.9997 47.2433C29.7458 47.4895 29.4457 47.683 29.1166 47.8128C28.7874 47.9426 28.4358 48.0061 28.0821 47.9995H2.4848L2.50328 47.981ZM7.70063 40.1652C6.91907 40.1509 6.14525 40.322 5.44268 40.6643C4.74011 41.0067 4.12879 41.5105 3.65893 42.1346C2.60216 43.5175 2.65783 45.0609 2.70727 46.5611V47.2711H8.96136V46.8698C9.00462 46.2524 8.99844 45.6351 8.96136 45.0177C8.96136 43.6101 8.91806 42.2766 9.53606 41.0357L9.70293 40.6962L9.38774 40.4863H9.3507C9.27571 40.4231 9.18671 40.3786 9.09112 40.3566C8.63622 40.2412 8.16982 40.177 7.70063 40.1652ZM21.7168 37.0352C21.0545 37.0298 20.3978 37.1584 19.7866 37.4133C19.1754 37.6681 18.6222 38.0439 18.1602 38.5181C17.6983 38.9923 17.3372 39.5549 17.0987 40.1722C16.8603 40.7895 16.7494 41.4487 16.7728 42.1099C16.7728 43.3693 16.7728 44.6308 16.7728 45.8943V46.4006C16.7728 46.5055 16.7728 46.6105 16.7728 46.7216C16.7728 46.8327 16.7728 46.8142 16.7728 46.8574V47.2711H26.1601L25.7893 46.6167C25.4458 45.903 25.3129 45.1064 25.4062 44.3201C25.4062 44.1472 25.4062 43.9744 25.4062 43.8015C25.4062 42.0111 25.4062 40.511 25.4062 38.9799C25.4336 38.7581 25.3882 38.5335 25.2767 38.3397C25.1653 38.146 24.9938 37.9936 24.7882 37.9057L24.232 37.6711C23.7182 37.4228 23.1768 37.2363 22.619 37.1155C22.3206 37.0667 22.0191 37.0399 21.7168 37.0352ZM10.0181 47.2649H15.9632L16.0003 46.8759C16.0722 45.9703 16.0887 45.0611 16.0497 44.1534C16.0065 42.5112 15.9632 40.9554 16.6059 39.4676L16.7295 39.1774L16.4947 38.9675C16.428 38.8888 16.34 38.831 16.2413 38.8009C15.7577 38.6704 15.2591 38.604 14.7582 38.6033C13.5893 38.5363 12.4371 38.9043 11.524 39.6363C10.6109 40.3683 10.0018 41.4123 9.8142 42.5668C9.68388 43.5385 9.64247 44.52 9.69055 45.4992C9.69055 45.919 9.69055 46.345 9.69055 46.7648C9.68754 46.8389 9.70287 46.9126 9.73521 46.9794C9.76756 47.0462 9.81594 47.104 9.87598 47.1476L10.0181 47.2649ZM45.3056 18.2983C44.7717 18.3097 44.2641 18.5316 43.8936 18.9156C43.523 19.2997 43.3197 19.8146 43.328 20.3479C43.328 21.0085 43.328 21.6753 43.328 22.342C43.328 23.7496 43.328 25.2004 43.2291 26.6142C43.2223 27.4936 42.9592 28.3519 42.4719 29.0843C41.9846 29.8167 41.2943 30.3914 40.4852 30.7381C39.581 31.1134 38.628 31.3587 37.6548 31.4666C37.1728 31.5222 36.6784 31.5654 36.2025 31.6024C34.9074 31.6753 33.6234 31.8822 32.371 32.2198C30.5093 32.684 28.7929 33.6049 27.3775 34.8991C26.9686 35.2857 26.6469 35.7549 26.4337 36.2755C26.2206 36.796 26.121 37.356 26.1416 37.918C26.1416 39.5417 26.1416 41.1962 26.1416 42.7952V45.0486C26.1352 45.2553 26.1498 45.4621 26.1849 45.6659C26.2806 46.1156 26.5293 46.5182 26.8888 46.8052C27.2482 47.0922 27.6961 47.246 28.1562 47.2402H28.3478C28.8406 47.1923 29.2974 46.9615 29.6281 46.5935C29.9588 46.2254 30.1393 45.7468 30.1338 45.2523C30.1338 43.5278 30.1338 41.8054 30.1338 40.085V37.9983H30.8445V43.9558L31.4625 43.6595C34.8834 42.0227 38.5244 40.8914 42.2712 40.301L42.642 40.2393V38.4984C42.642 37.3562 42.642 36.1709 42.642 35.0103C42.6247 34.8587 42.6531 34.7055 42.7236 34.5702C42.7941 34.4349 42.9034 34.3237 43.0376 34.2509C44.1754 33.5097 45.175 32.5758 45.9915 31.4913C46.7466 30.6265 47.2113 29.5469 47.3202 28.4045C47.3697 25.7005 47.3511 22.947 47.3202 20.2924C47.3243 19.8994 47.2031 19.5154 46.9743 19.1957C46.7454 18.8761 46.4208 18.6375 46.0472 18.5144C45.8247 18.3963 45.5811 18.3229 45.3303 18.2983H45.3056ZM8.78212 11.7481L9.6164 12.3655L9.8142 12.5137L10.1046 12.7236L12.2182 14.1682L15.9262 16.724C16.2228 16.9278 16.2784 17.0389 16.2908 17.0883C16.3031 17.1377 16.2908 17.2673 16.0621 17.5637L13.5901 20.9591L11.9215 23.231L11.7238 23.5212L11.6002 23.7002L11.0378 24.5398L28.3417 21.6814L27.9276 19.3355L25.2641 19.8417C25.1745 19.8598 25.0835 19.8701 24.9921 19.8726C24.8252 19.8726 24.6769 19.8726 24.5966 19.3972C24.3494 17.9402 24.1063 16.4792 23.8674 15.014L23.5398 13.0508C23.4286 12.3593 22.9218 9.41449 22.9218 9.41449L8.78212 11.7481ZM23.0516 5.69799L25.2825 19.1132L44.564 15.4523L42.4752 2.73464L23.0516 5.69799Z" stroke="black" stroke-width="0.5" stroke-miterlimit="10"/>
<path d="M35.9743 28.4601C34.8493 28.4584 33.7711 28.0108 32.9762 27.2156C32.1813 26.4204 31.7348 25.3426 31.7348 24.2188C31.7381 23.0954 32.1854 22.0188 32.9794 21.2233C33.7734 20.4278 34.8498 19.9778 35.9743 19.9713C36.5346 19.9681 37.09 20.0755 37.6087 20.2874C38.1273 20.4993 38.5988 20.8115 38.9963 21.2061C39.3891 21.5995 39.7005 22.0665 39.9126 22.5803C40.1246 23.094 40.2333 23.6445 40.2323 24.2003C40.2274 25.3259 39.7793 26.4045 38.9849 27.2027C38.1904 28.001 37.1134 28.4549 35.9866 28.4662L35.9743 28.4601ZM35.9743 20.6504C35.0386 20.6486 34.1395 21.0137 33.4704 21.6671C32.8013 22.3205 32.4155 23.2102 32.3961 24.1447C32.3828 25.089 32.7449 26 33.4029 26.6782C34.0608 27.3563 34.9611 27.7462 35.9063 27.7624H35.9557C36.8845 27.7611 37.7762 27.3979 38.441 26.7499C39.1058 26.1019 39.4912 25.2204 39.5154 24.2929C39.526 23.8204 39.4424 23.3506 39.2694 22.9107C39.0965 22.4709 38.8377 22.0698 38.508 21.7308C38.189 21.3951 37.8059 21.1266 37.3814 20.941C36.9568 20.7555 36.4994 20.6567 36.0361 20.6504H35.9743Z" stroke="black" stroke-width="0.5" stroke-miterlimit="10"/>
<path d="M7.82427 37.0475C7.10909 37.0458 6.42382 36.7609 5.91868 36.2551C5.41355 35.7493 5.12982 35.064 5.12982 34.3496C5.13309 33.6368 5.41926 32.9544 5.92555 32.4521C6.43184 31.9498 7.11691 31.6686 7.83045 31.6702C8.54029 31.6751 9.21968 31.9589 9.72163 32.4604C10.2236 32.9618 10.5077 33.6405 10.5126 34.3496C10.5136 34.704 10.4442 35.0551 10.3084 35.3826C10.1726 35.71 9.97315 36.0073 9.72155 36.2572C9.4741 36.5088 9.17871 36.7083 8.85287 36.844C8.52703 36.9797 8.17729 37.0489 7.82427 37.0475ZM7.82427 32.3679C7.30334 32.3693 6.80369 32.5742 6.43189 32.9387C6.0601 33.3032 5.84563 33.7984 5.83434 34.3187C5.82749 34.5849 5.87495 34.8497 5.97375 35.0969C6.07256 35.3442 6.22068 35.5689 6.40911 35.7572C6.59265 35.9498 6.81298 36.1037 7.05713 36.2098C7.30128 36.3158 7.56424 36.3718 7.83045 36.3745C8.35722 36.3713 8.8615 36.1608 9.23399 35.7887C9.60648 35.4166 9.81721 34.9129 9.82045 34.3866C9.82054 33.8625 9.61464 33.3592 9.24712 32.9852C8.87959 32.6111 8.37979 32.3961 7.8552 32.3864L7.82427 32.3679Z" stroke="black" stroke-width="0.5" stroke-miterlimit="10"/>
<path d="M21.8903 33.9236C21.1783 33.9204 20.4964 33.6364 19.993 33.1334C19.4895 32.6305 19.2053 31.9493 19.202 31.2381C19.2019 30.5306 19.4807 29.8515 19.9781 29.3478C20.4754 28.844 21.1513 28.5561 21.8594 28.5464C22.5708 28.5447 23.254 28.8242 23.7599 29.3238C24.2659 29.8235 24.5535 30.5027 24.56 31.2134C24.5625 31.5669 24.4952 31.9174 24.362 32.2449C24.2289 32.5724 24.0324 32.8705 23.7839 33.1221C23.5355 33.3738 23.2398 33.5741 22.9138 33.7116C22.5878 33.8491 22.2379 33.9212 21.8841 33.9236H21.8903ZM21.8903 29.244C21.3656 29.2456 20.8625 29.4528 20.4892 29.8211C20.1159 30.1894 19.9023 30.6893 19.8942 31.2134C19.8924 31.7387 20.0962 32.244 20.4623 32.6212C20.8283 32.9984 21.3275 33.2177 21.8532 33.2322C22.3738 33.2293 22.8731 33.0252 23.2464 32.6626C23.6196 32.3001 23.838 31.8073 23.8555 31.2875C23.8614 31.022 23.8141 30.758 23.7165 30.5109C23.6189 30.2639 23.4728 30.0389 23.2869 29.849C23.1038 29.6558 22.8836 29.5015 22.6393 29.3954C22.3951 29.2894 22.1319 29.2336 21.8656 29.2317L21.8903 29.244Z" stroke="black" stroke-width="0.5" stroke-miterlimit="10"/>
<path d="M14.8573 35.4855C14.1443 35.4855 13.4605 35.2026 12.9564 34.699C12.4522 34.1953 12.169 33.5123 12.169 32.8C12.1673 32.092 12.4456 31.412 12.9432 30.9079C13.4409 30.4038 14.1177 30.1165 14.8264 30.1083C15.5384 30.1067 16.2223 30.3859 16.7292 30.8854C17.2361 31.3848 17.5251 32.0641 17.5332 32.7753C17.5365 33.4898 17.2559 34.1764 16.7531 34.6844C16.2503 35.1925 15.5663 35.4806 14.8511 35.4855H14.8573ZM14.8573 30.8059C14.3325 30.809 13.8297 31.0165 13.4558 31.3843C13.0818 31.7521 12.8662 32.2512 12.855 32.7753C12.8547 33.3002 13.0591 33.8045 13.4248 34.1814C13.7905 34.5583 14.2889 34.778 14.814 34.7941C15.3351 34.7927 15.8353 34.5891 16.2089 34.2263C16.5825 33.8634 16.8003 33.3697 16.8163 32.8494C16.8236 32.5837 16.777 32.3193 16.6793 32.0721C16.5816 31.8249 16.4348 31.6 16.2477 31.4109C16.0651 31.2172 15.8449 31.0625 15.6006 30.9564C15.3562 30.8502 15.0929 30.7949 14.8264 30.7936L14.8573 30.8059Z" stroke="black" stroke-width="0.5" stroke-miterlimit="10"/>
</g>
<defs>
<clipPath id="clip0_19436_5179">
<rect width="50" height="50" fill="white"/>
</clipPath>
</defs>
</svg>
