<svg xmlns="http://www.w3.org/2000/svg" viewBox="0 0 512 512"><circle cx="256" cy="256" r="256" fill="#F0F0F0"/><path d="M492.029 156.753C453.26 64.662 362.188 0 256 0 185.306 0 121.313 28.659 74.989 74.989l64.11 81.764h352.93z"/><path d="M139.826 354.32l-64.837 82.691C121.313 483.341 185.306 512 256 512c106.546 0 197.878-65.094 236.424-157.68H139.826z" fill="#496E2D"/><path d="M55.652 188.29v134.492h447.53C508.924 301.491 512 279.107 512 256c0-23.442-3.158-46.142-9.061-67.71H55.652z" fill="#A2001D"/><path d="M74.98 74.98c-99.974 99.974-99.974 262.065 0 362.04L256 256 74.98 74.98z" fill="#0052B4"/><path fill="#FFDA44" d="M83.386 192.352L114.631 235.953 165.759 219.708 133.948 262.901 165.193 306.504 114.285 289.597 82.473 332.789 82.823 279.146 31.913 262.237 83.037 245.993z"/></svg>