<svg width="54" height="54" viewBox="0 0 54 54" fill="none" xmlns="http://www.w3.org/2000/svg">
<g clip-path="url(#clip0_19221_3723)">
<path d="M27.1597 25.5066C24.5943 25.5066 22.0866 24.7585 19.9536 23.3569C17.8205 21.9552 16.1581 19.963 15.1763 17.6322C14.1946 15.3013 13.9377 12.7365 14.4382 10.2621C14.9387 7.78764 16.174 5.51475 17.988 3.73079C19.802 1.94684 22.1132 0.731966 24.6292 0.239773C27.1453 -0.252419 29.7533 0.000170681 32.1234 0.965641C34.4935 1.93111 36.5192 3.56608 37.9444 5.66379C39.3696 7.7615 40.1304 10.2277 40.1304 12.7506C40.1276 16.1329 38.76 19.3758 36.3282 21.7674C33.8963 24.159 30.5989 25.5039 27.1597 25.5066ZM27.1597 1.57732C24.9113 1.57732 22.7135 2.23305 20.8441 3.4616C18.9747 4.69015 17.5178 6.43634 16.6577 8.47926C15.7975 10.5222 15.5727 12.7701 16.0117 14.9386C16.4508 17.1072 17.5339 19.0991 19.1241 20.6622C20.7143 22.2254 22.7402 23.2896 24.9454 23.7203C27.1507 24.151 29.4364 23.9289 31.5133 23.082C33.5902 22.2352 35.365 20.8016 36.6134 18.9626C37.8617 17.1236 38.5275 14.9618 38.5264 12.7506C38.5222 9.78767 37.3231 6.94733 35.1922 4.85268C33.0613 2.75803 30.1726 1.58011 27.1597 1.57732Z" fill="white"/>
<path d="M27.9889 19.1499H26.5239C25.7643 19.1485 25.0363 18.8511 24.4991 18.3229C23.962 17.7946 23.6596 17.0786 23.6582 16.3316C23.6582 16.1224 23.7427 15.9218 23.8931 15.7739C24.0435 15.626 24.2475 15.5429 24.4602 15.5429C24.6729 15.5429 24.8769 15.626 25.0273 15.7739C25.1777 15.9218 25.2622 16.1224 25.2622 16.3316C25.2622 16.6607 25.3951 16.9763 25.6318 17.209C25.8684 17.4417 26.1893 17.5725 26.5239 17.5725H27.9889C28.3235 17.5725 28.6445 17.4417 28.8811 17.209C29.1178 16.9763 29.2507 16.6607 29.2507 16.3316V14.8909C29.2507 14.5618 29.1178 14.2461 28.8811 14.0134C28.6445 13.7807 28.3235 13.6499 27.9889 13.6499H26.5239C25.7648 13.6499 25.0368 13.3538 24.4995 12.8264C23.9622 12.299 23.6596 11.5835 23.6582 10.8369V9.39621C23.6596 8.64917 23.962 7.93317 24.4991 7.40493C25.0363 6.8767 25.7643 6.5793 26.5239 6.57791H27.9889C28.7485 6.5793 29.4766 6.8767 30.0137 7.40493C30.5509 7.93317 30.8532 8.64917 30.8546 9.39621V9.4593C30.8546 9.66848 30.7702 9.8691 30.6198 10.017C30.4694 10.1649 30.2653 10.248 30.0526 10.248C29.8399 10.248 29.636 10.1649 29.4856 10.017C29.3352 9.8691 29.2507 9.66848 29.2507 9.4593V9.39621C29.2507 9.0671 29.1178 8.75151 28.8811 8.5188C28.6445 8.28609 28.3235 8.15532 27.9889 8.15532H26.5239C26.1893 8.15532 25.8684 8.28609 25.6318 8.5188C25.3951 8.75151 25.2622 9.0671 25.2622 9.39621V10.8527C25.2636 11.1809 25.3971 11.4952 25.6336 11.7268C25.8701 11.9583 26.1902 12.0883 26.5239 12.0883H27.9889C28.7485 12.0897 29.4766 12.3871 30.0137 12.9153C30.5509 13.4436 30.8532 14.1596 30.8546 14.9066V16.3473C30.849 17.0916 30.5448 17.8036 30.0081 18.3284C29.4715 18.8533 28.7457 19.1485 27.9889 19.1499Z" fill="white"/>
<path d="M27.2673 7.93433C27.0546 7.93433 26.8506 7.85124 26.7002 7.70333C26.5498 7.55542 26.4653 7.3548 26.4653 7.14562V4.97932C26.4653 4.77014 26.5498 4.56953 26.7002 4.42161C26.8506 4.2737 27.0546 4.19061 27.2673 4.19061C27.48 4.19061 27.684 4.2737 27.8344 4.42161C27.9848 4.56953 28.0693 4.77014 28.0693 4.97932V7.17194C28.0624 7.37653 27.9748 7.57043 27.8251 7.7127C27.6755 7.85497 27.4755 7.93444 27.2673 7.93433Z" fill="white"/>
<path d="M27.2673 21.316C27.0546 21.316 26.8506 21.2329 26.7002 21.085C26.5498 20.9371 26.4653 20.7365 26.4653 20.5273V18.361C26.4653 18.1518 26.5498 17.9512 26.7002 17.8033C26.8506 17.6554 27.0546 17.5723 27.2673 17.5723C27.48 17.5723 27.684 17.6554 27.8344 17.8033C27.9848 17.9512 28.0693 18.1518 28.0693 18.361V20.5273C28.0693 20.7365 27.9848 20.9371 27.8344 21.085C27.684 21.2329 27.48 21.316 27.2673 21.316Z" fill="white"/>
<path d="M22.6693 54H4.4323C3.25722 53.9986 2.13067 53.5388 1.29976 52.7217C0.468852 51.9045 0.00141491 50.7967 0 49.641V47.7219C0.00141491 46.5663 0.468852 45.4583 1.29976 44.6412C2.13067 43.824 3.25722 43.3644 4.4323 43.363H22.6693C23.8444 43.3644 24.971 43.824 25.8019 44.6412C26.6328 45.4583 27.1001 46.5663 27.1016 47.7219V49.641C27.1001 50.7967 26.6328 51.9045 25.8019 52.7217C24.971 53.5388 23.8444 53.9986 22.6693 54ZM4.4323 44.9404C3.68218 44.9404 2.96279 45.2334 2.43237 45.755C1.90196 46.2767 1.60396 46.9842 1.60396 47.7219V49.641C1.60537 50.3783 1.90383 51.0849 2.43394 51.6063C2.96405 52.1276 3.68262 52.4212 4.4323 52.4226H22.6693C23.419 52.4212 24.1376 52.1276 24.6677 51.6063C25.1978 51.0849 25.4962 50.3783 25.4976 49.641V47.7219C25.4976 46.9842 25.1997 46.2767 24.6692 45.755C24.1388 45.2334 23.4194 44.9404 22.6693 44.9404H4.4323Z" fill="white"/>
<path d="M22.6693 44.8353H4.4323C3.25771 44.8353 2.13115 44.3769 1.30009 43.5606C0.469025 42.7443 0.00141687 41.6369 0 40.4818V38.5625C0.00141491 37.4069 0.468852 36.299 1.29976 35.4819C2.13067 34.6647 3.25722 34.205 4.4323 34.2036H22.6693C23.8444 34.205 24.971 34.6647 25.8019 35.4819C26.6328 36.299 27.1001 37.4069 27.1016 38.5625V40.4818C27.1001 41.6369 26.6326 42.7443 25.8015 43.5606C24.9705 44.3769 23.8439 44.8353 22.6693 44.8353ZM4.4323 35.781C3.68218 35.781 2.96279 36.0741 2.43237 36.5958C1.90196 37.1174 1.60396 37.8248 1.60396 38.5625V40.4818C1.60538 41.2186 1.90401 41.9247 2.43427 42.4452C2.96452 42.9657 3.68311 43.2579 4.4323 43.2579H22.6693C23.4185 43.2579 24.1371 42.9657 24.6674 42.4452C25.1976 41.9247 25.4962 41.2186 25.4976 40.4818V38.5625C25.4976 37.8248 25.1997 37.1174 24.6692 36.5958C24.1388 36.0741 23.4194 35.781 22.6693 35.781H4.4323Z" fill="white"/>
<path d="M22.6693 35.6759H4.4323C3.25771 35.6759 2.13115 35.2174 1.30009 34.4011C0.469025 33.5848 0.00141687 32.4774 0 31.3222V29.4031C0.00141491 28.2475 0.468852 27.1396 1.29976 26.3224C2.13067 25.5053 3.25722 25.0456 4.4323 25.0442H22.6693C23.8444 25.0456 24.971 25.5053 25.8019 26.3224C26.6328 27.1396 27.1001 28.2475 27.1016 29.4031V31.3222C27.1001 32.4774 26.6326 33.5848 25.8015 34.4011C24.9705 35.2174 23.8439 35.6759 22.6693 35.6759ZM4.4323 26.6269C3.68218 26.6269 2.96279 26.9199 2.43237 27.4416C1.90196 27.9632 1.60396 28.6707 1.60396 29.4084V31.3275C1.60538 32.0643 1.90401 32.7704 2.43427 33.2909C2.96452 33.8114 3.68311 34.1038 4.4323 34.1038H22.6693C23.4185 34.1038 24.1371 33.8114 24.6674 33.2909C25.1976 32.7704 25.4962 32.0643 25.4976 31.3275V29.4084C25.4976 28.6707 25.1997 27.9632 24.6692 27.4416C24.1388 26.9199 23.4194 26.6269 22.6693 26.6269H4.4323Z" fill="white"/>
<path d="M49.5682 54H31.3312C30.1561 53.9986 29.0295 53.5388 28.1986 52.7217C27.3677 51.9045 26.9003 50.7967 26.8989 49.641V47.7219C26.9003 46.5663 27.3677 45.4583 28.1986 44.6412C29.0295 43.824 30.1561 43.3644 31.3312 43.363H49.5682C50.7433 43.3644 51.8699 43.824 52.7008 44.6412C53.5317 45.4583 53.9991 46.5663 54.0005 47.7219V49.641C53.9991 50.7967 53.5317 51.9045 52.7008 52.7217C51.8699 53.5388 50.7433 53.9986 49.5682 54ZM31.3312 44.9404C30.5811 44.9404 29.8616 45.2334 29.3312 45.755C28.8008 46.2767 28.5029 46.9842 28.5029 47.7219V49.641C28.5043 50.3783 28.8027 51.0849 29.3328 51.6063C29.8629 52.1276 30.5815 52.4212 31.3312 52.4226H49.5682C50.3179 52.4212 51.0365 52.1276 51.5666 51.6063C52.0967 51.0849 52.3951 50.3783 52.3965 49.641V47.7219C52.3965 46.9842 52.0986 46.2767 51.5682 45.755C51.0378 45.2334 50.3183 44.9404 49.5682 44.9404H31.3312Z" fill="white"/>
<path d="M49.5682 44.8353H31.3312C30.1566 44.8353 29.03 44.3769 28.1989 43.5606C27.3679 42.7443 26.9003 41.6369 26.8989 40.4818V38.5625C26.9003 37.4069 27.3677 36.299 28.1986 35.4819C29.0295 34.6647 30.1561 34.205 31.3312 34.2036H49.5682C50.7433 34.205 51.8699 34.6647 52.7008 35.4819C53.5317 36.299 53.9991 37.4069 54.0005 38.5625V40.4818C53.9991 41.6369 53.5314 42.7443 52.7004 43.5606C51.8693 44.3769 50.7428 44.8353 49.5682 44.8353ZM31.3312 35.781C30.5811 35.781 29.8616 36.0741 29.3312 36.5958C28.8008 37.1174 28.5029 37.8248 28.5029 38.5625V40.4818C28.5043 41.2186 28.8029 41.9247 29.3331 42.4452C29.8634 42.9657 30.582 43.2579 31.3312 43.2579H49.5682C50.3174 43.2579 51.0359 42.9657 51.5662 42.4452C52.0965 41.9247 52.3951 41.2186 52.3965 40.4818V38.5625C52.3965 37.8248 52.0986 37.1174 51.5682 36.5958C51.0378 36.0741 50.3183 35.781 49.5682 35.781H31.3312Z" fill="white"/>
<path d="M49.5682 35.6759H31.3312C30.1566 35.6759 29.03 35.2174 28.1989 34.4011C27.3679 33.5848 26.9003 32.4774 26.8989 31.3222V29.4031C26.9003 28.2475 27.3677 27.1396 28.1986 26.3224C29.0295 25.5053 30.1561 25.0456 31.3312 25.0442H49.5682C50.7433 25.0456 51.8699 25.5053 52.7008 26.3224C53.5317 27.1396 53.9991 28.2475 54.0005 29.4031V31.3222C53.9991 32.4774 53.5314 33.5848 52.7004 34.4011C51.8693 35.2174 50.7428 35.6759 49.5682 35.6759ZM31.3312 26.6269C30.5811 26.6269 29.8616 26.9199 29.3312 27.4416C28.8008 27.9632 28.5029 28.6707 28.5029 29.4084V31.3275C28.5043 32.0643 28.8029 32.7704 29.3331 33.2909C29.8634 33.8114 30.582 34.1038 31.3312 34.1038H49.5682C50.3174 34.1038 51.0359 33.8114 51.5662 33.2909C52.0965 32.7704 52.3951 32.0643 52.3965 31.3275V29.4084C52.3965 28.6707 52.0986 27.9632 51.5682 27.4416C51.0378 26.9199 50.3183 26.6269 49.5682 26.6269H31.3312Z" fill="white"/>
<path d="M6.57102 35.6759C6.35832 35.6759 6.15433 35.5929 6.00393 35.445C5.85353 35.2971 5.76904 35.0964 5.76904 34.8872V25.8329C5.76904 25.6237 5.85353 25.4231 6.00393 25.2752C6.15433 25.1273 6.35832 25.0442 6.57102 25.0442C6.78372 25.0442 6.98771 25.1273 7.13811 25.2752C7.28851 25.4231 7.373 25.6237 7.373 25.8329V34.8872C7.373 35.0964 7.28851 35.2971 7.13811 35.445C6.98771 35.5929 6.78372 35.6759 6.57102 35.6759Z" fill="white"/>
<path d="M13.6228 35.6759C13.4101 35.6759 13.2061 35.5929 13.0557 35.445C12.9053 35.2971 12.8208 35.0964 12.8208 34.8872V25.8329C12.8208 25.6237 12.9053 25.4231 13.0557 25.2752C13.2061 25.1273 13.4101 25.0442 13.6228 25.0442C13.8355 25.0442 14.0395 25.1273 14.1899 25.2752C14.3403 25.4231 14.4248 25.6237 14.4248 25.8329V34.8872C14.4248 35.0964 14.3403 35.2971 14.1899 35.445C14.0395 35.5929 13.8355 35.6759 13.6228 35.6759Z" fill="white"/>
<path d="M20.6809 35.6759C20.4682 35.6759 20.2642 35.5929 20.1138 35.445C19.9634 35.2971 19.8789 35.0964 19.8789 34.8872V25.8329C19.8789 25.6237 19.9634 25.4231 20.1138 25.2752C20.2642 25.1273 20.4682 25.0442 20.6809 25.0442C20.8936 25.0442 21.0975 25.1273 21.2479 25.2752C21.3983 25.4231 21.4829 25.6237 21.4829 25.8329V34.8872C21.4829 35.0964 21.3983 35.2971 21.2479 35.445C21.0975 35.5929 20.8936 35.6759 20.6809 35.6759Z" fill="white"/>
<path d="M6.57102 44.504C6.35832 44.504 6.15433 44.4209 6.00393 44.2729C5.85353 44.125 5.76904 43.9245 5.76904 43.7153V34.661C5.76904 34.4518 5.85353 34.2511 6.00393 34.1032C6.15433 33.9553 6.35832 33.8723 6.57102 33.8723C6.78372 33.8723 6.98771 33.9553 7.13811 34.1032C7.28851 34.2511 7.373 34.4518 7.373 34.661V43.7153C7.373 43.9245 7.28851 44.125 7.13811 44.2729C6.98771 44.4209 6.78372 44.504 6.57102 44.504Z" fill="white"/>
<path d="M13.6228 44.504C13.4101 44.504 13.2061 44.4209 13.0557 44.2729C12.9053 44.125 12.8208 43.9245 12.8208 43.7153V34.661C12.8208 34.4518 12.9053 34.2511 13.0557 34.1032C13.2061 33.9553 13.4101 33.8723 13.6228 33.8723C13.8355 33.8723 14.0395 33.9553 14.1899 34.1032C14.3403 34.2511 14.4248 34.4518 14.4248 34.661V43.7153C14.4248 43.9245 14.3403 44.125 14.1899 44.2729C14.0395 44.4209 13.8355 44.504 13.6228 44.504Z" fill="white"/>
<path d="M20.6809 44.5039C20.4682 44.5039 20.2642 44.4208 20.1138 44.2729C19.9634 44.125 19.8789 43.9244 19.8789 43.7152V34.6609C19.8789 34.4518 19.9634 34.2511 20.1138 34.1032C20.2642 33.9552 20.4682 33.8722 20.6809 33.8722C20.8936 33.8722 21.0975 33.9552 21.2479 34.1032C21.3983 34.2511 21.4829 34.4518 21.4829 34.6609V43.7152C21.4829 43.9244 21.3983 44.125 21.2479 44.2729C21.0975 44.4208 20.8936 44.5039 20.6809 44.5039Z" fill="white"/>
<path d="M6.57102 53.29C6.35832 53.29 6.15433 53.207 6.00393 53.0591C5.85353 52.9112 5.76904 52.7105 5.76904 52.5013V43.4522C5.76904 43.2431 5.85353 43.0425 6.00393 42.8946C6.15433 42.7467 6.35832 42.6635 6.57102 42.6635C6.78372 42.6635 6.98771 42.7467 7.13811 42.8946C7.28851 43.0425 7.373 43.2431 7.373 43.4522V52.5066C7.37159 52.7148 7.28647 52.9141 7.13622 53.0609C6.98597 53.2076 6.7828 53.29 6.57102 53.29Z" fill="white"/>
<path d="M13.6228 53.29C13.4101 53.29 13.2061 53.207 13.0557 53.0591C12.9053 52.9112 12.8208 52.7105 12.8208 52.5013V43.4522C12.8208 43.2431 12.9053 43.0425 13.0557 42.8946C13.2061 42.7467 13.4101 42.6635 13.6228 42.6635C13.8355 42.6635 14.0395 42.7467 14.1899 42.8946C14.3403 43.0425 14.4248 43.2431 14.4248 43.4522V52.5066C14.4233 52.7148 14.3382 52.9141 14.188 53.0609C14.0377 53.2076 13.8346 53.29 13.6228 53.29Z" fill="white"/>
<path d="M20.6809 53.2903C20.4682 53.2903 20.2642 53.2073 20.1138 53.0594C19.9634 52.9115 19.8789 52.7108 19.8789 52.5016V43.4526C19.8789 43.2434 19.9634 43.0429 20.1138 42.8949C20.2642 42.747 20.4682 42.6639 20.6809 42.6639C20.8936 42.6639 21.0975 42.747 21.2479 42.8949C21.3983 43.0429 21.4829 43.2434 21.4829 43.4526V52.5069C21.4815 52.7152 21.3963 52.9144 21.2461 53.0612C21.0958 53.208 20.8927 53.2903 20.6809 53.2903Z" fill="white"/>
<path d="M33.3948 36.0279C33.1821 36.0279 32.9781 35.9449 32.8277 35.797C32.6773 35.6491 32.5928 35.4484 32.5928 35.2392V26.1849C32.5928 25.9758 32.6773 25.7752 32.8277 25.6272C32.9781 25.4793 33.1821 25.3962 33.3948 25.3962C33.6075 25.3962 33.8115 25.4793 33.9619 25.6272C34.1123 25.7752 34.1967 25.9758 34.1967 26.1849V35.2392C34.1967 35.4484 34.1123 35.6491 33.9619 35.797C33.8115 35.9449 33.6075 36.0279 33.3948 36.0279Z" fill="white"/>
<path d="M40.4524 36.0279C40.2397 36.0279 40.0357 35.9449 39.8853 35.797C39.7349 35.6491 39.6504 35.4484 39.6504 35.2392V26.1849C39.6504 25.9758 39.7349 25.7752 39.8853 25.6272C40.0357 25.4793 40.2397 25.3962 40.4524 25.3962C40.6651 25.3962 40.8691 25.4793 41.0195 25.6272C41.1699 25.7752 41.2544 25.9758 41.2544 26.1849V35.2392C41.2544 35.4484 41.1699 35.6491 41.0195 35.797C40.8691 35.9449 40.6651 36.0279 40.4524 36.0279Z" fill="white"/>
<path d="M47.5046 36.0279C47.2919 36.0279 47.0879 35.9449 46.9375 35.797C46.7871 35.6491 46.7026 35.4484 46.7026 35.2392V26.1849C46.7026 25.9758 46.7871 25.7752 46.9375 25.6272C47.0879 25.4793 47.2919 25.3962 47.5046 25.3962C47.7173 25.3962 47.9212 25.4793 48.0716 25.6272C48.222 25.7752 48.3066 25.9758 48.3066 26.1849V35.2392C48.3066 35.4484 48.222 35.6491 48.0716 35.797C47.9212 35.9449 47.7173 36.0279 47.5046 36.0279Z" fill="white"/>
<path d="M33.3948 44.8353C33.1821 44.8353 32.9781 44.7523 32.8277 44.6044C32.6773 44.4565 32.5928 44.2558 32.5928 44.0466V34.9923C32.5928 34.7831 32.6773 34.5826 32.8277 34.4346C32.9781 34.2867 33.1821 34.2036 33.3948 34.2036C33.6075 34.2036 33.8115 34.2867 33.9619 34.4346C34.1123 34.5826 34.1967 34.7831 34.1967 34.9923V44.0466C34.1967 44.2558 34.1123 44.4565 33.9619 44.6044C33.8115 44.7523 33.6075 44.8353 33.3948 44.8353Z" fill="white"/>
<path d="M40.4524 44.8353C40.2397 44.8353 40.0357 44.7523 39.8853 44.6044C39.7349 44.4565 39.6504 44.2558 39.6504 44.0466V34.9923C39.6504 34.7831 39.7349 34.5826 39.8853 34.4346C40.0357 34.2867 40.2397 34.2036 40.4524 34.2036C40.6651 34.2036 40.8691 34.2867 41.0195 34.4346C41.1699 34.5826 41.2544 34.7831 41.2544 34.9923V44.0466C41.2544 44.2558 41.1699 44.4565 41.0195 44.6044C40.8691 44.7523 40.6651 44.8353 40.4524 44.8353Z" fill="white"/>
<path d="M47.5046 44.8353C47.2919 44.8353 47.0879 44.7523 46.9375 44.6044C46.7871 44.4565 46.7026 44.2558 46.7026 44.0466V34.9923C46.7026 34.7831 46.7871 34.5826 46.9375 34.4346C47.0879 34.2867 47.2919 34.2036 47.5046 34.2036C47.7173 34.2036 47.9212 34.2867 48.0716 34.4346C48.222 34.5826 48.3066 34.7831 48.3066 34.9923V44.0466C48.3066 44.2558 48.222 44.4565 48.0716 44.6044C47.9212 44.7523 47.7173 44.8353 47.5046 44.8353Z" fill="white"/>
<path d="M33.3948 53.6427C33.1821 53.6427 32.9781 53.5596 32.8277 53.4117C32.6773 53.2638 32.5928 53.0631 32.5928 52.8539V43.7996C32.5928 43.5905 32.6773 43.3899 32.8277 43.242C32.9781 43.0941 33.1821 43.0109 33.3948 43.0109C33.6075 43.0109 33.8115 43.0941 33.9619 43.242C34.1123 43.3899 34.1967 43.5905 34.1967 43.7996V52.8539C34.1967 53.0631 34.1123 53.2638 33.9619 53.4117C33.8115 53.5596 33.6075 53.6427 33.3948 53.6427Z" fill="white"/>
<path d="M40.4524 53.6427C40.2397 53.6427 40.0357 53.5596 39.8853 53.4117C39.7349 53.2638 39.6504 53.0631 39.6504 52.8539V43.7996C39.6504 43.5905 39.7349 43.3899 39.8853 43.242C40.0357 43.0941 40.2397 43.0109 40.4524 43.0109C40.6651 43.0109 40.8691 43.0941 41.0195 43.242C41.1699 43.3899 41.2544 43.5905 41.2544 43.7996V52.8539C41.2544 53.0631 41.1699 53.2638 41.0195 53.4117C40.8691 53.5596 40.6651 53.6427 40.4524 53.6427Z" fill="white"/>
<path d="M47.5046 53.6427C47.2919 53.6427 47.0879 53.5596 46.9375 53.4117C46.7871 53.2638 46.7026 53.0631 46.7026 52.8539V43.7996C46.7026 43.5905 46.7871 43.3899 46.9375 43.242C47.0879 43.0941 47.2919 43.0109 47.5046 43.0109C47.7173 43.0109 47.9212 43.0941 48.0716 43.242C48.222 43.3899 48.3066 43.5905 48.3066 43.7996V52.8539C48.3066 53.0631 48.222 53.2638 48.0716 53.4117C47.9212 53.5596 47.7173 53.6427 47.5046 53.6427Z" fill="white"/>
</g>
<defs>
<clipPath id="clip0_19221_3723">
<rect width="54" height="54" fill="white"/>
</clipPath>
</defs>
</svg>
