<svg width="54" height="58" viewBox="0 0 54 58" fill="none" xmlns="http://www.w3.org/2000/svg">
<path d="M27 32.7242C31.1136 32.7242 34.4483 29.3895 34.4483 25.276C34.4483 21.1624 31.1136 17.8277 27 17.8277C22.8865 17.8277 19.5518 21.1624 19.5518 25.276C19.5518 29.3895 22.8865 32.7242 27 32.7242Z" stroke="white" stroke-width="3" stroke-linecap="round" stroke-linejoin="round"/>
<path d="M18.6206 36.4481H35.3792" stroke="white" stroke-width="3" stroke-linecap="round" stroke-linejoin="round"/>
<path d="M13.0352 55.9998V42.0343C13.0352 40.5528 13.6237 39.1319 14.6713 38.0843C15.7189 37.0367 17.1398 36.4481 18.6214 36.4481V36.4481" stroke="white" stroke-width="3" stroke-linecap="round" stroke-linejoin="round"/>
<path d="M18.6211 43.431V56" stroke="white" stroke-width="3" stroke-linecap="round" stroke-linejoin="round"/>
<path d="M35.3794 56V43.431" stroke="white" stroke-width="3" stroke-linecap="round" stroke-linejoin="round"/>
<path d="M35.3794 36.4482C36.8609 36.4482 38.2818 37.0367 39.3294 38.0843C40.3771 39.132 40.9656 40.5528 40.9656 42.0344V55.9999" stroke="white" stroke-width="3" stroke-linecap="round" stroke-linejoin="round"/>
<path d="M38.1729 16.8965C42.2864 16.8965 45.6211 13.5618 45.6211 9.44827C45.6211 5.3347 42.2864 2 38.1729 2C34.0593 2 30.7246 5.3347 30.7246 9.44827C30.7246 13.5618 34.0593 16.8965 38.1729 16.8965Z" stroke="white" stroke-width="3" stroke-linecap="round" stroke-linejoin="round"/>
<path d="M46.5513 27.6034V48.5516" stroke="white" stroke-width="3" stroke-linecap="round" stroke-linejoin="round"/>
<path d="M37.2412 20.6206H46.5515" stroke="white" stroke-width="3" stroke-linecap="round" stroke-linejoin="round"/>
<path d="M46.5513 48.5517V56" stroke="white" stroke-width="3" stroke-linecap="round" stroke-linejoin="round"/>
<path d="M46.5513 20.6206C48.0328 20.6206 49.4537 21.2092 50.5013 22.2568C51.5489 23.3044 52.1375 24.7253 52.1375 26.2068V48.5516C52.1375 49.2924 51.8432 50.0029 51.3194 50.5267C50.7956 51.0505 50.0851 51.3447 49.3444 51.3447V51.3447C48.6036 51.3447 47.8932 51.0505 47.3693 50.5267C46.8455 50.0029 46.5513 49.2924 46.5513 48.5516V27.6034" stroke="white" stroke-width="3" stroke-linecap="round" stroke-linejoin="round"/>
<path d="M15.8282 16.8965C19.9417 16.8965 23.2764 13.5618 23.2764 9.44827C23.2764 5.3347 19.9417 2 15.8282 2C11.7146 2 8.37988 5.3347 8.37988 9.44827C8.37988 13.5618 11.7146 16.8965 15.8282 16.8965Z" stroke="white" stroke-width="3" stroke-linecap="round" stroke-linejoin="round"/>
<path d="M7.44873 20.6206H16.7591" stroke="white" stroke-width="3" stroke-linecap="round" stroke-linejoin="round"/>
<path d="M7.44873 48.5516V27.6034" stroke="white" stroke-width="3" stroke-linecap="round" stroke-linejoin="round"/>
<path d="M7.44873 56V48.5517" stroke="white" stroke-width="3" stroke-linecap="round" stroke-linejoin="round"/>
<path d="M7.44851 27.6034V48.5517C7.44851 49.2924 7.15423 50.0029 6.63043 50.5267C6.10662 51.0505 5.39618 51.3448 4.65541 51.3448V51.3448C3.91463 51.3448 3.20419 51.0505 2.68038 50.5267C2.15658 50.0029 1.8623 49.2924 1.8623 48.5517V26.2069C1.8623 24.7253 2.45085 23.3044 3.49846 22.2568C4.54608 21.2092 5.96695 20.6207 7.44851 20.6207V20.6207" stroke="white" stroke-width="3" stroke-linecap="round" stroke-linejoin="round"/>
</svg>
