<svg width="48" height="48" viewBox="0 0 48 48" fill="none" xmlns="http://www.w3.org/2000/svg">
<path d="M44.011 35.1268C46.6882 30.5041 47.607 25.1047 46.605 19.8835C45.6029 14.6624 42.7446 9.95588 38.5355 6.59644C34.3263 3.23701 29.0377 1.4411 23.6048 1.52634C18.172 1.61158 12.945 3.57248 8.84827 7.06223" stroke="black" stroke-width="1.5" stroke-miterlimit="10" stroke-linecap="round"/>
<path d="M3.42548 13.8917C1.04008 18.5622 0.389082 23.898 1.5839 28.986C2.77871 34.074 5.74505 38.5978 9.97527 41.7833C14.2055 44.9688 19.4366 46.6179 24.7733 46.4484C30.11 46.2789 35.2206 44.3013 39.2304 40.8541" stroke="black" stroke-width="1.5" stroke-miterlimit="10" stroke-linecap="round"/>
<path d="M8.60571 1V7.24355H14.9989" stroke="black" stroke-width="1.5" stroke-miterlimit="10" stroke-linecap="round"/>
<path d="M39.3017 47V40.7495H32.9156" stroke="black" stroke-width="1.5" stroke-miterlimit="10" stroke-linecap="round"/>
<path d="M35.2489 25.3045C35.2489 17.1565 24.0179 8.40857 24.0179 8.40857C24.0179 8.40857 12.7941 17.1565 12.7941 25.3045C12.7563 26.7693 13.0188 28.2267 13.566 29.5907C14.1133 30.9548 14.9342 32.198 15.9805 33.247C17.0268 34.2961 18.2773 35.1298 19.6583 35.6991C21.0393 36.2683 22.5228 36.5616 24.0215 36.5616C25.5202 36.5616 27.0037 36.2683 28.3847 35.6991C29.7657 35.1298 31.0161 34.2961 32.0624 33.247C33.1087 32.198 33.9297 30.9548 34.477 29.5907C35.0242 28.2267 35.2867 26.7693 35.2489 25.3045V25.3045Z" stroke="black" stroke-width="1.5" stroke-miterlimit="10" stroke-linecap="round"/>
<path d="M24.0179 18.2866V40.0867" stroke="black" stroke-width="1.5" stroke-miterlimit="10" stroke-linecap="round"/>
<path d="M20.3505 20.7352C20.6831 21.411 21.2042 21.9811 21.8536 22.3802C22.5031 22.7792 23.2545 22.9909 24.0216 22.9909C24.7886 22.9909 25.5401 22.7792 26.1895 22.3802C26.839 21.9811 27.36 21.411 27.6927 20.7352" stroke="black" stroke-width="1.5" stroke-miterlimit="10" stroke-linecap="round"/>
<path d="M18.6023 27.1183C19.1214 28.084 19.9007 28.8927 20.8558 29.4569C21.811 30.021 22.9056 30.3192 24.0216 30.3192C25.1375 30.3192 26.2322 30.021 27.1873 29.4569C28.1424 28.8927 28.9217 28.084 29.4408 27.1183" stroke="black" stroke-width="1.5" stroke-miterlimit="10" stroke-linecap="round"/>
</svg>
