<svg width="51" height="50" viewBox="0 0 51 50" fill="none" xmlns="http://www.w3.org/2000/svg">
<g clip-path="url(#clip0_19623_3772)">
<g clip-path="url(#clip1_19623_3772)">
<path d="M26.6684 28.7028L26.9627 28.0129L26.9626 28.0129L26.9621 28.0127L26.9601 28.0118L26.9525 28.0086L26.9228 27.9959L26.8081 27.9473C26.7081 27.9048 26.5621 27.8431 26.3779 27.7656C26.0094 27.6106 25.4877 27.3924 24.8744 27.1394C23.6487 26.634 22.0526 25.988 20.5799 25.43C17.7972 24.3756 17.3953 23.0011 17.4773 22.4014C17.4773 22.4009 17.4774 22.4003 17.4775 22.3996C17.4799 22.3816 17.4843 22.3475 17.5755 22.2873C17.6884 22.2127 17.8838 22.1382 18.1705 22.0873C18.7404 21.9863 19.4498 22.016 19.9612 22.0859C20.4693 22.1553 22.5191 22.6334 24.8388 23.1769L24.9976 23.2142C27.233 23.738 29.6373 24.3014 30.9102 24.5503C33.4045 25.0381 36.6188 26.0051 39.6498 29.0334C41.1803 30.5625 43.6118 33.917 45.6945 36.9492C46.7276 38.4532 47.6621 39.859 48.3384 40.8889C48.6765 41.4038 48.9499 41.8244 49.1387 42.1162C49.141 42.1197 49.1432 42.1232 49.1455 42.1267C47.4432 44.2545 45.2454 45.3389 43.4071 45.8917C42.4324 46.1848 41.5681 46.3254 40.9501 46.3924C40.7611 46.413 40.5957 46.4265 40.4577 46.4355L36.9328 38.5759L36.7583 38.1868L36.3348 38.1378L36.2484 38.8828L36.3347 38.1378L36.3346 38.1378L36.3342 38.1377L36.3323 38.1375L36.3249 38.1366L36.2951 38.1332L36.178 38.1195C36.0749 38.1074 35.9229 38.0896 35.7271 38.0664C35.3356 38.02 34.7693 37.9525 34.0707 37.8676C32.6734 37.6978 30.7472 37.4588 28.6314 37.182C24.4632 36.6367 15.826 34.4402 9.55814 31.3063C6.42572 29.7401 4.5841 28.3077 3.64262 27.1974C3.17054 26.6406 2.95891 26.2049 2.8913 25.909C2.82741 25.6294 2.89758 25.5278 2.92837 25.4928C2.99002 25.4228 3.15126 25.3184 3.50691 25.2643C3.85047 25.212 4.28824 25.2209 4.77794 25.2886C5.76232 25.4246 6.80666 25.7759 7.44849 26.1306C8.91451 26.9409 14.3458 29.8144 19.2539 30.8481C21.8017 31.3847 23.7658 31.0134 25.1089 30.4846C25.777 30.2216 26.2857 29.9219 26.6329 29.6828C26.8065 29.5632 26.9401 29.4585 27.0334 29.3806C27.0801 29.3417 27.1168 29.3094 27.1434 29.2853C27.1567 29.2732 27.1675 29.2631 27.1758 29.2553L27.1864 29.2453L27.1902 29.2415L27.1918 29.24L27.1925 29.2393C27.1929 29.239 27.1932 29.2387 26.6684 28.7028ZM26.6684 28.7028L26.9628 28.013L27.9951 28.4534L27.1932 29.2387L26.6684 28.7028Z" stroke="#0F0F0F" stroke-width="1.5" stroke-miterlimit="10"/>
<path d="M25.343 22.8742C25.343 22.8742 24.3887 14.9371 26.7887 12.5171L28 11" stroke="#0F0F0F" stroke-width="1.5" stroke-miterlimit="10"/>
<path d="M33.8748 4.26965C34.4582 4.10832 34.9848 3.99169 35.4045 3.9101C35.3277 4.31008 35.219 4.80686 35.0696 5.35752C34.6844 6.77707 34.0435 8.49671 33.0226 9.84785C32.3541 10.7325 31.4387 11.5343 30.5126 11.8836C30.059 12.0548 29.6251 12.1095 29.2196 12.0377C28.8205 11.967 28.3979 11.7649 27.9713 11.3382C27.5569 10.9239 27.3572 10.5112 27.2842 10.1192C27.21 9.72115 27.2578 9.29503 27.4166 8.8499C27.7408 7.94141 28.4985 7.04164 29.3357 6.38409C30.6689 5.33789 32.4169 4.67282 33.8748 4.26965Z" stroke="#0F0F0F" stroke-width="1.5" stroke-miterlimit="10"/>
<path d="M16.5 7.93164C16.5 7.93164 17.6956 10.4362 19.5689 11.6507C20.7423 12.4107 22.5679 12.8531 23.3396 11.2739C24.1113 9.69469 22.5958 8.48419 21.2211 8.035C19.1077 7.34407 16.5 7.93164 16.5 7.93164Z" stroke="#0F0F0F" stroke-width="1.5" stroke-miterlimit="10"/>
<path d="M25.3057 16.6057C25.8772 13.1057 25.1543 12.3457 25.1543 12.3457C24.9362 11.8971 24.3 11 23.5 11" stroke="#0F0F0F" stroke-width="1.5" stroke-miterlimit="10"/>
</g>
</g>
<defs>
<clipPath id="clip0_19623_3772">
<rect width="50" height="50" fill="white" transform="translate(0.5)"/>
</clipPath>
<clipPath id="clip1_19623_3772">
<rect width="50" height="49.7143" fill="white" transform="translate(0 1.14282)"/>
</clipPath>
</defs>
</svg>
