<svg width="18" height="18" viewBox="0 0 18 18" fill="none" xmlns="http://www.w3.org/2000/svg">
<path d="M15.3599 2.73867C13.6619 1.05117 11.4013 0.123047 9.00017 0.123047C6.599 0.123047 4.34197 1.05117 2.64392 2.73867C0.942358 4.42617 0.00720215 6.66914 0.00720215 9.05625C0.00720215 11.4434 0.942358 13.6863 2.64392 15.3738C4.34197 17.0578 6.599 17.9895 9.00017 17.9895C11.4013 17.9895 13.6584 17.0613 15.3564 15.3738C17.058 13.6863 17.9931 11.4434 17.9931 9.05625C17.9931 6.66914 17.058 4.42617 15.3599 2.73867ZM16.0174 6.1875H12.681C12.6775 6.17695 12.6775 6.16641 12.674 6.15586C12.3506 4.40859 11.8759 2.93906 11.5068 1.95117C13.5494 2.66133 15.1947 4.21523 16.0174 6.1875ZM7.98415 1.59961C8.31814 1.55391 8.65564 1.53281 9.00017 1.53281C9.28494 1.53281 9.56267 1.55039 9.83689 1.57852C10.1392 2.27812 10.8177 4.00078 11.2467 6.1875H6.89431C7.25994 3.75469 7.86814 1.93711 7.98415 1.59961ZM1.41345 9.05625C1.41345 8.55703 1.46267 8.06836 1.55759 7.59375H5.30876C5.17869 9.00351 5.16814 10.3605 5.27712 11.6367H1.874C1.57517 10.8316 1.41345 9.96328 1.41345 9.05625ZM2.57009 13.043H5.45291C5.62869 14.1152 5.89236 15.1277 6.25095 16.0664C4.72165 15.4758 3.43142 14.4035 2.57009 13.043ZM5.474 6.1875H1.9865C2.79509 4.25039 4.3947 2.72109 6.38103 1.99336C6.11736 2.89336 5.73064 4.38047 5.474 6.1875ZM10.0127 16.5129C9.6822 16.5551 9.3447 16.5797 9.00369 16.5797C8.65212 16.5797 8.30759 16.5551 7.96658 16.5094C7.4322 15.3984 7.08767 14.2207 6.88376 13.043H11.317C11.0674 14.2137 10.6525 15.3914 10.0127 16.5129ZM11.5349 11.6367H6.69392C6.56384 10.1988 6.60603 8.81015 6.72205 7.59375H11.4752C11.6299 8.81367 11.6896 10.2023 11.5349 11.6367ZM11.8232 16.0418C12.2381 15.1031 12.551 14.1012 12.7513 13.043H15.4338C14.5865 14.3859 13.3209 15.4441 11.8232 16.0418ZM12.9552 11.6367L12.9658 11.5102C13.0783 10.2656 13.0537 8.95078 12.892 7.59375H16.4463C16.5412 8.06836 16.5904 8.55703 16.5904 9.05625C16.5904 9.96328 16.4287 10.8316 16.1299 11.6367H12.9552Z" fill="#202020"/>
</svg>
